<svg width="24" height="24" viewBox="0 0 24 24" fill="none" xmlns="http://www.w3.org/2000/svg">
<g clip-path="url(#clip0_1_185)">
<path d="M23.7945 5.28898L19.4547 1.16197C19.1986 0.921001 18.7977 0.925761 18.5474 1.17314L14.3098 5.31681C14.1866 5.43858 14.1168 5.60447 14.1157 5.77787C14.1148 5.95109 14.1827 6.11772 14.3047 6.24095L15.6591 7.61094C15.7838 7.7371 15.9548 7.80522 16.1321 7.80485C16.3095 7.80265 16.4785 7.72831 16.6001 7.59886L17.4017 6.74577V19.084C17.4017 19.4449 17.6943 19.7375 18.0554 19.7375H19.9817C20.3426 19.7375 20.6352 19.4449 20.6352 19.084V6.68113L21.5597 7.62522C21.6844 7.7523 21.8532 7.82353 22.0332 7.82151C22.2112 7.81968 22.3807 7.74534 22.5027 7.6157L23.8227 6.21275C23.9415 6.08659 24.0053 5.91832 23.9999 5.74491C23.9948 5.5717 23.9208 5.40763 23.7945 5.28898Z" fill="#48B1FF"/>
<path d="M23.794 5.28894L19.4542 1.16193C19.3416 1.05591 19.201 0.997681 19.0576 0.986328V19.7374H19.9812C20.3421 19.7374 20.6347 19.4448 20.6347 19.0839V6.68109L21.5592 7.62518C21.6839 7.75226 21.8527 7.82349 22.0329 7.82147C22.2107 7.81964 22.3804 7.7453 22.5022 7.61566L23.8222 6.21271C23.9411 6.08655 24.0048 5.91827 23.9997 5.74487C23.9943 5.57166 23.9204 5.40759 23.794 5.28894Z" fill="#2386E8"/>
<path d="M9.67854 5.28891L5.38545 1.1619C5.12928 0.920933 4.72828 0.925877 4.47816 1.17307L0.193857 5.31675C0.0706269 5.43851 0.000680544 5.6044 -0.000234981 5.77781C-0.00115051 5.95102 0.0665985 6.11765 0.188547 6.24088L1.54298 7.61087C1.66767 7.73703 1.83723 7.80588 2.01594 7.80478C2.19355 7.80259 2.36237 7.72825 2.48396 7.59879L3.28578 6.7457V19.0839C3.28578 19.4448 3.57838 19.7374 3.93928 19.7374H5.86555C6.22645 19.7374 6.51924 19.4448 6.51924 19.0839V6.68106L7.44374 7.62516C7.56825 7.75223 7.74091 7.82236 7.91725 7.82145C8.09522 7.81961 8.26478 7.74527 8.38673 7.61564L9.70674 6.21268C9.82539 6.08652 9.88929 5.91825 9.88398 5.74485C9.87867 5.57163 9.80488 5.40757 9.67854 5.28891Z" fill="#48B1FF"/>
<path d="M9.67852 5.28894L5.38544 1.16193C5.26056 1.04456 5.10144 0.985962 4.94214 0.984863V19.7374H5.86572C6.22662 19.7374 6.51922 19.4448 6.51922 19.0839V6.68109L7.44372 7.62518C7.56842 7.75226 7.74109 7.82239 7.91723 7.82147C8.09521 7.81964 8.26477 7.7453 8.38671 7.61566L9.70672 6.21271C9.82556 6.08655 9.88928 5.91827 9.88397 5.74487C9.87866 5.57166 9.80486 5.40759 9.67852 5.28894Z" fill="#2386E8"/>
<path d="M16.7054 11.9901L12.3656 7.86305C12.1095 7.62208 11.7084 7.62703 11.4583 7.8744L7.22071 12.0179C7.09748 12.1398 7.02772 12.3056 7.02662 12.479C7.0257 12.6524 7.09364 12.8188 7.2154 12.9422L8.56984 14.312C8.6927 14.4362 8.86006 14.5061 9.03456 14.5061C9.0373 14.5061 9.04005 14.5061 9.0428 14.5059C9.22041 14.5037 9.38923 14.4294 9.51082 14.3001L10.3126 13.4469V22.3346C10.3126 22.6957 10.6052 22.9883 10.9661 22.9883H12.8924C13.2533 22.9883 13.5461 22.6957 13.5461 22.3346V13.3822L14.4706 14.3263C14.5951 14.4534 14.7658 14.525 14.9441 14.5226C15.1221 14.5208 15.2916 14.4464 15.4136 14.3168L16.7336 12.9138C16.8523 12.7877 16.9162 12.6194 16.9108 12.4462C16.9055 12.273 16.8317 12.1089 16.7054 11.9901Z" fill="#48B1FF"/>
<path d="M16.7056 11.9902L12.3658 7.86316C12.2532 7.75732 12.1126 7.69891 11.9692 7.68774V22.9884H12.8928C13.2537 22.9884 13.5463 22.6958 13.5463 22.3347V13.3823L14.4708 14.3264C14.5953 14.4535 14.7662 14.5251 14.9443 14.5227C15.1223 14.5209 15.2919 14.4465 15.4138 14.3169L16.7338 12.9139C16.8527 12.7878 16.9164 12.6195 16.9111 12.4463C16.9058 12.2731 16.832 12.109 16.7056 11.9902Z" fill="#2386E8"/>
</g>
<defs>
<clipPath id="clip0_1_185">
<rect width="24" height="24" fill="white"/>
</clipPath>
</defs>
</svg>
