<svg width="24" height="24" viewBox="0 0 24 24" fill="none" xmlns="http://www.w3.org/2000/svg">
<path d="M22.4494 4.99549C11.4494 2.77104 12.111 2.89681 12 2.89681C11.9997 2.89681 11.9993 2.89685 11.999 2.89685C11.8709 2.89704 12.5296 2.7746 1.85404 4.99629C1.52348 5.0652 1.28662 5.35652 1.28662 5.69421V21.2991C1.28662 21.7461 1.69425 22.0834 2.13356 21.9993L9.65667 20.5593C10.5971 22.5191 13.3904 22.4795 14.3046 20.5293C14.305 20.5283 14.3055 20.5274 14.306 20.5264L22.1769 21.9998C22.6162 22.0819 23.021 21.7444 23.021 21.2991V5.69421C23.021 5.35498 22.7819 5.06276 22.4494 4.99549Z" fill="#23196B"/>
<path d="M22.4492 4.99575C11.4215 2.76562 12.1105 2.89697 12 2.89697V22.0122C12.9976 22.0022 13.8917 21.4148 14.3063 20.5265L22.1769 21.9998C22.6043 22.0832 23.021 21.7523 23.021 21.2992V5.69442C23.021 5.35504 22.7819 5.06278 22.4492 4.99575Z" fill="#23196B"/>
<path d="M24 3.60988V18.1958C24 18.6837 23.5162 19.0333 23.0471 18.8673C23.0057 18.8526 20.5633 17.9995 17.6433 17.9995C14.7133 17.9995 12.2637 18.8587 12.2395 18.8673C12.078 18.9212 11.9222 18.9237 11.76 18.8673C11.7191 18.8526 9.2767 17.9995 6.35667 17.9995C3.42619 17.9995 0.977109 18.8587 0.952406 18.8673C0.485578 19.0331 0 18.6843 0 18.1958V3.60988C0 3.30763 0.190125 3.03862 0.474797 2.93784C0.584109 2.89888 3.19045 1.9873 6.35667 1.9873C9.01388 1.9873 11.2766 2.6294 12 2.85895C12.7234 2.6294 14.9861 1.9873 17.6433 1.9873C20.8095 1.9873 23.4159 2.89888 23.5252 2.93784C23.8099 3.03862 24 3.30763 24 3.60988Z" fill="#927C7C"/>
<path d="M24.0001 3.60988V18.1958C24.0001 18.6837 23.5163 19.0333 23.0472 18.8673C23.0058 18.8526 20.5634 17.9995 17.6433 17.9995C14.7133 17.9995 12.2638 18.8587 12.2395 18.8673C12.1598 18.8939 12.0855 18.9087 12 18.9087V2.85895C12.7234 2.6294 14.9861 1.9873 17.6433 1.9873C20.8096 1.9873 23.4159 2.89888 23.5252 2.93784C23.8099 3.03862 24.0001 3.30763 24.0001 3.60988Z" fill="#927C7C"/>
<path d="M20.6478 6.60887C20.5432 6.89973 20.269 7.08128 19.9767 7.08128C19.8969 7.08128 19.8156 7.0675 19.7358 7.039C19.0637 6.79754 18.3532 6.67684 17.6432 6.67731C17.0068 6.67778 16.3709 6.7757 15.7621 6.9715L15.5278 7.04659C15.1528 7.16729 14.7517 6.96104 14.6309 6.58604C14.5107 6.21104 14.717 5.80946 15.0915 5.68923L15.3258 5.61413C16.0758 5.3732 16.8595 5.25291 17.6432 5.25245C18.5173 5.25151 19.3908 5.40024 20.2177 5.69682C20.5883 5.8299 20.7808 6.23818 20.6478 6.60887Z" fill="#FFF0B3"/>
<path d="M20.6478 10.5056C20.5432 10.7964 20.269 10.9775 19.9767 10.9775C19.8969 10.9775 19.8156 10.9642 19.7358 10.9357C19.0637 10.6942 18.3533 10.5735 17.6432 10.574C17.0068 10.5745 16.3709 10.6724 15.7621 10.8682L15.5278 10.9433C15.1528 11.064 14.7516 10.8573 14.6309 10.4827C14.5107 10.1077 14.717 9.70617 15.092 9.58593L15.3258 9.51084C16.0757 9.2699 16.8595 9.14915 17.6432 9.14868C18.5172 9.14821 19.3912 9.29648 20.2177 9.59353C20.5884 9.7266 20.7808 10.1348 20.6478 10.5056Z" fill="#FFF0B3"/>
<path d="M20.6478 14.4023C20.5432 14.6931 20.269 14.8742 19.9767 14.8742C19.8969 14.8742 19.8156 14.8609 19.7358 14.8319C19.0637 14.5905 18.3533 14.4703 17.6432 14.4707C17.0068 14.4712 16.3709 14.5691 15.7621 14.7649L15.5278 14.84C15.1528 14.9602 14.7516 14.754 14.6309 14.379C14.5107 14.0045 14.717 13.6029 15.092 13.4827L15.3258 13.4071C16.0757 13.1662 16.8595 13.0459 17.6432 13.0454C18.5172 13.0449 19.3907 13.1932 20.2177 13.4903C20.5884 13.6233 20.7808 14.0316 20.6478 14.4023Z" fill="#FFF0B3"/>
<path d="M9.36184 6.60887C9.25777 6.89973 8.98351 7.08128 8.69124 7.08128C8.6109 7.08128 8.52966 7.0675 8.45031 7.039C7.77826 6.79754 7.06824 6.67684 6.35771 6.67731C5.72181 6.67778 5.08496 6.7757 4.47615 6.9715L4.24234 7.04659C3.86734 7.16729 3.46576 6.96104 3.34552 6.58604C3.22482 6.21104 3.43107 5.80946 3.80607 5.68923L4.0404 5.61413C4.79035 5.3732 5.57457 5.25291 6.35781 5.25245C7.23184 5.25151 8.10535 5.40024 8.93232 5.69682C9.30245 5.8299 9.49491 6.23818 9.36184 6.60887Z" fill="#FFF4CA"/>
<path d="M9.36091 10.5056C9.25684 10.7964 8.98258 10.9775 8.69031 10.9775C8.60997 10.9775 8.52874 10.9642 8.44938 10.9357C7.77733 10.6942 7.06731 10.5735 6.35678 10.574C5.72088 10.5745 5.08403 10.6724 4.47522 10.8682L4.24089 10.9433C3.86589 11.064 3.46478 10.8573 3.34455 10.4827C3.22384 10.1077 3.43009 9.70617 3.80509 9.58593L4.03942 9.51084C4.78938 9.2699 5.57359 9.14915 6.35683 9.14868C7.23086 9.14821 8.10438 9.29648 8.93134 9.59353C9.30152 9.7266 9.49399 10.1348 9.36091 10.5056Z" fill="#FFF4CA"/>
<path d="M9.36091 14.4023C9.25684 14.6931 8.98258 14.8742 8.69031 14.8742C8.60997 14.8742 8.52874 14.8609 8.44938 14.8319C7.77733 14.591 7.06731 14.4703 6.35678 14.4707C5.72088 14.4712 5.08403 14.5691 4.47522 14.7649L4.24089 14.84C3.86589 14.9602 3.46478 14.754 3.34455 14.379C3.22384 14.0045 3.43009 13.6029 3.80509 13.4827L4.03942 13.4071C4.78938 13.1662 5.57261 13.0459 6.35683 13.0454C7.23086 13.0449 8.10438 13.1932 8.93134 13.4903C9.30152 13.6233 9.49399 14.0316 9.36091 14.4023Z" fill="#FFF4CA"/>
</svg>
