<svg width="24" height="24" viewBox="0 0 24 24" fill="none" xmlns="http://www.w3.org/2000/svg">
<path d="M23.6766 15.6282L12.3797 8.59692C12.2531 8.51255 12.1266 8.48438 12 8.48438C11.8734 8.48438 11.7469 8.51255 11.6203 8.59692L0.323391 15.6282C0.126609 15.7546 0 15.9797 0 16.2188C0 16.4578 0.126609 16.6829 0.323391 16.8093L11.6203 23.8875C11.7469 23.9578 11.8734 24 12 24C12.1266 24 12.2531 23.9578 12.3797 23.8875L23.6766 16.8093C23.8734 16.6828 24 16.4578 24 16.2188C24 15.9797 23.8734 15.7546 23.6766 15.6282Z" fill="#FF0B69"/>
<path d="M24 16.2188C24 16.4578 23.8734 16.6829 23.6766 16.8093L12.3797 23.8875C12.2531 23.9578 12.1266 24 12 24V8.48438C12.1266 8.48438 12.2531 8.51255 12.3797 8.59692L23.6766 15.6282C23.8734 15.7546 24 15.9797 24 16.2188Z" fill="#DD025B"/>
<path d="M23.6766 11.4094L12.3797 4.37817C12.2531 4.2938 12.1266 4.26562 12 4.26562C11.8734 4.26562 11.7469 4.2938 11.6203 4.37817L0.323391 11.4094C0.126609 11.5359 0 11.761 0 12C0 12.239 0.126609 12.4641 0.323391 12.5906L11.6203 19.6218C11.7469 19.6921 11.8734 19.7344 12 19.7344C12.1266 19.7344 12.2531 19.6921 12.3797 19.6218L23.6766 12.5906C23.8734 12.4641 24 12.239 24 12C24 11.761 23.8734 11.5359 23.6766 11.4094Z" fill="#7986E8"/>
<path d="M24 12C24 12.239 23.8734 12.4641 23.6766 12.5906L12.3797 19.6218C12.2531 19.6921 12.1266 19.7344 12 19.7344V4.26562C12.1266 4.26562 12.2531 4.2938 12.3797 4.37817L23.6766 11.4094C23.8734 11.5359 24 11.761 24 12Z" fill="#6E77E5"/>
<path d="M23.6766 7.19067L12.3797 0.112547C12.2531 0.0281719 12.1266 0 12 0C11.8734 0 11.7469 0.0281719 11.6203 0.112547L0.323391 7.19067C0.126609 7.31714 0 7.54223 0 7.78125C0 8.02027 0.126609 8.24536 0.323391 8.37183L11.6203 15.4031C11.7469 15.4734 11.8734 15.5156 12 15.5156C12.1266 15.5156 12.2531 15.4734 12.3797 15.4031L23.6766 8.37183C23.8734 8.24531 24 8.02027 24 7.78125C24 7.54223 23.8734 7.31714 23.6766 7.19067Z" fill="#FEDB41"/>
<path d="M24 7.78125C24 8.02027 23.8734 8.24536 23.6766 8.37183L12.3797 15.4031C12.2531 15.4734 12.1266 15.5156 12 15.5156V0C12.1266 0 12.2531 0.0281719 12.3797 0.112547L23.6766 7.19067C23.8734 7.31714 24 7.54223 24 7.78125Z" fill="#FCBF29"/>
</svg>
