<svg width="48" height="48" viewBox="0 0 48 48" fill="none" xmlns="http://www.w3.org/2000/svg">
<rect width="48" height="48" rx="8" fill="#E4E3E1"/>
<path d="M23.9999 27.1655C22.9115 27.1655 21.8234 26.8994 20.8312 26.3672L13.6765 22.5296C12.6391 21.9731 11.9968 20.897 12.0001 19.7213C12.0036 18.5455 12.6521 17.4732 13.6928 16.9227L20.8654 13.1288C22.8282 12.0906 25.1717 12.0906 27.1344 13.1288L34.3071 16.9227C35.3477 17.4732 35.9963 18.5455 35.9997 19.7213C36.0031 20.897 35.3608 21.9731 34.3233 22.5296L27.1686 26.3672C26.1767 26.8994 25.0881 27.1654 23.9999 27.1655ZM23.9999 14.2253C23.2244 14.2253 22.449 14.4123 21.7421 14.7862L14.5695 18.5802C14.1362 18.8094 13.8766 19.2381 13.8752 19.7268C13.8738 20.2155 14.1308 20.6456 14.5629 20.8774L21.7175 24.715C23.1468 25.4816 24.8533 25.4816 26.2825 24.715L33.4372 20.8774C33.8693 20.6456 34.1263 20.2155 34.1249 19.7268C34.1235 19.238 33.8639 18.8094 33.4306 18.5802L26.2577 14.7862C25.5509 14.4123 24.7754 14.2253 23.9999 14.2253ZM21.3038 13.9575H21.3042H21.3038ZM27.1687 34.8515L35.5054 30.38C35.9617 30.1352 36.1332 29.5669 35.8884 29.1107C35.6437 28.6544 35.0754 28.4829 34.6192 28.7277L26.2824 33.1992C24.8533 33.9658 23.1468 33.9658 21.7139 33.1972L13.3772 28.7726C12.9197 28.5299 12.3523 28.7039 12.1096 29.1612C11.8669 29.6185 12.0408 30.186 12.4982 30.4287L20.8312 34.8514C21.8234 35.3836 22.9115 35.6497 24 35.6497C25.0881 35.6497 26.1767 35.3836 27.1687 34.8515ZM27.1687 30.6328L35.5054 26.1613C35.9617 25.9166 36.1332 25.3483 35.8884 24.8921C35.6437 24.4357 35.0754 24.2643 34.6192 24.509L26.2824 28.9805C24.8533 29.7472 23.1468 29.7471 21.7139 28.9786L13.3772 24.554C12.9197 24.3112 12.3523 24.4852 12.1096 24.9425C11.8669 25.3999 12.0408 25.9673 12.4982 26.2101L20.8312 30.6328C21.8234 31.165 22.9115 31.431 24 31.431C25.0881 31.431 26.1767 31.1649 27.1687 30.6328Z" fill="#8F8F8F"/>
</svg>
