<svg width="16" height="16" viewBox="0 0 16 16" fill="none" xmlns="http://www.w3.org/2000/svg">
<g clip-path="url(#clip0)">
<path d="M15 3.66663H13.3334V4.33328H15C15.1841 4.33328 15.3334 4.48253 15.3334 4.66663V12.6666C15.3334 12.8507 15.1841 13 15 13H10.3334C10.245 13 10.1602 13.0351 10.0977 13.0976L9.33337 13.862V13.3333C9.33337 13.1492 9.18412 13 9.00003 13H4.33337C4.14928 13 4.00003 12.8507 4.00003 12.6666V11.6666H3.33337V12.6666C3.33337 13.2189 3.78109 13.6666 4.33337 13.6666H8.66672V14.6666C8.66672 14.8507 8.81597 15 9.00006 15C9.08847 14.9999 9.17322 14.9648 9.23572 14.9023L10.4714 13.6667H15C15.5523 13.6667 16 13.2189 16 12.6667V4.66666C16 4.11434 15.5523 3.66663 15 3.66663Z" fill="#535C65"/>
<path d="M11.6667 1H1C0.447719 1 0 1.44772 0 2V10C0 10.5523 0.447719 11 1 11H5.66666V12C5.66666 12.1841 5.81591 12.3333 6 12.3333C6.08841 12.3333 6.17316 12.2982 6.23566 12.2357L7.47134 11H11.6667C12.219 11 12.6667 10.5523 12.6667 10V2C12.6667 1.44772 12.2189 1 11.6667 1ZM12 10C12 10.1841 11.8507 10.3333 11.6667 10.3333H7.33334C7.24494 10.3334 7.16019 10.3685 7.09769 10.431L6.33334 11.1953V10.6667C6.33334 10.4826 6.18409 10.3333 6 10.3333H1C0.815906 10.3333 0.666656 10.1841 0.666656 10V2C0.666656 1.81591 0.815906 1.66666 1 1.66666H11.6667C11.8507 1.66666 12 1.81591 12 2V10Z" fill="#535C65"/>
<path d="M5.33328 3.66663H1.66663V4.33328H5.33328V3.66663Z" fill="#535C65"/>
<path d="M11 5.66663H1.66663V6.33328H11V5.66663Z" fill="#535C65"/>
<path d="M11 7.66663H1.66663V8.33327H11V7.66663Z" fill="#535C65"/>
<path d="M11 3.66663H10.3334V4.33328H11V3.66663Z" fill="#535C65"/>
<path d="M9.66666 3.66663H9V4.33328H9.66666V3.66663Z" fill="#535C65"/>
</g>
<defs>
<clipPath id="clip0">
<rect width="16" height="16" fill="white"/>
</clipPath>
</defs>
</svg>
