<svg width="16" height="16" viewBox="0 0 16 16" fill="none" xmlns="http://www.w3.org/2000/svg">
<g clip-path="url(#clip0)">
<path d="M9.94096 1.3172L8.88765 1.16752L8.4184 0.239644C8.25909 -0.0761989 7.7409 -0.0761989 7.58162 0.239644L7.11241 1.16755L6.0591 1.31724C5.67269 1.37186 5.51835 1.85058 5.80185 2.12108L6.5576 2.83973L6.37953 3.85229C6.31288 4.23332 6.71294 4.52632 7.05566 4.35036L8 3.86514L8.94437 4.35036C9.29187 4.5296 9.68643 4.22936 9.62049 3.85229L9.44243 2.83973L10.1982 2.12105C10.4817 1.85055 10.3273 1.37186 9.94096 1.3172Z" fill="#455880"/>
<path d="M15.5972 4.17598L14.5439 4.02629L14.0747 3.09842C13.9154 2.78257 13.3972 2.78257 13.2379 3.09842L12.7687 4.02629L11.7154 4.17598C11.3289 4.2306 11.1746 4.70932 11.4581 4.97982L12.2139 5.69851L12.0358 6.71107C11.9692 7.0921 12.3692 7.3851 12.7119 7.20913L13.6563 6.72388L14.6006 7.2091C14.9499 7.38772 15.3424 7.08619 15.2768 6.71103L15.0987 5.69847L15.8545 4.97979C16.1379 4.70932 15.9836 4.2306 15.5972 4.17598Z" fill="#455880"/>
<path d="M4.28472 4.17598L3.23141 4.02629L2.76216 3.09842C2.60285 2.78257 2.08466 2.78257 1.92538 3.09842L1.45616 4.02629L0.40285 4.17598C0.0164441 4.2306 -0.137899 4.70932 0.1456 4.97982L0.90138 5.69851L0.723318 6.71107C0.656662 7.0921 1.05672 7.3851 1.39944 7.20913L2.34375 6.72388L3.28813 7.2091C3.63634 7.38775 4.03 7.08691 3.96425 6.71107L3.78619 5.69851L4.54197 4.97982C4.82543 4.70932 4.67109 4.23063 4.28472 4.17598Z" fill="#455880"/>
<path d="M9.6899 10.2624C10.3675 9.74836 10.8125 8.94268 10.8125 8.02852C10.8125 6.47762 9.5509 5.21603 7.99999 5.21603C6.44909 5.21603 5.1875 6.47762 5.1875 8.02852C5.1875 8.94268 5.63256 9.74833 6.31009 10.2624C4.824 10.9157 3.78125 12.3975 3.78125 14.1223V15.5285C3.78125 15.7876 3.99091 15.9973 4.25 15.9973H11.75C12.0091 15.9973 12.2187 15.7876 12.2187 15.5285V14.1223C12.2187 12.3975 11.176 10.9157 9.6899 10.2624Z" fill="#455880"/>
</g>
<defs>
<clipPath id="clip0">
<rect width="16" height="16" fill="white"/>
</clipPath>
</defs>
</svg>
