<svg width="24" height="18" viewBox="0 0 24 18" fill="none" xmlns="http://www.w3.org/2000/svg">
<path d="M18.7528 17.7315H14.8737H13.8292H13.6036V12.5284H15.3053C15.7368 12.5284 15.9918 12.038 15.7368 11.6849L12.4266 7.10462C12.2158 6.81038 11.7793 6.81038 11.5685 7.10462L8.25828 11.6849C8.00327 12.038 8.25337 12.5284 8.68982 12.5284H10.3915V17.7315H10.1659H9.12137H4.62444C2.04986 17.5893 0 15.1815 0 12.5725C0 10.7728 0.975889 9.20352 2.42256 8.35513C2.29015 7.99714 2.2215 7.61464 2.2215 7.21251C2.2215 5.37352 3.7074 3.88762 5.54638 3.88762C5.9436 3.88762 6.32611 3.95628 6.6841 4.08868C7.74826 1.83286 10.0433 0.268494 12.7111 0.268494C16.1635 0.273398 19.0078 2.91664 19.3314 6.28566C21.9845 6.74173 24 9.19862 24 11.9792C24 14.951 21.6853 17.5256 18.7528 17.7315Z" fill="#134A7C"/>
</svg>
