<svg width="32" height="32" viewBox="0 0 32 32" fill="none" xmlns="http://www.w3.org/2000/svg">
<path d="M27.7746 0.249634H9.95755C7.63362 0.249634 5.73218 2.15107 5.73218 4.47501V5.91276H21.8491C24.1731 5.91276 26.0745 7.8142 26.0745 10.1381V20.6723H27.7746C30.0985 20.6723 31.9999 18.7709 31.9999 16.4469V4.47501C31.9999 2.15101 30.0985 0.249634 27.7746 0.249634Z" fill="#6C7ED6"/>
<path d="M24.7787 5.71979H6.96174C6.53449 5.71979 6.12168 5.78454 5.73218 5.90391V5.91298H21.8491C24.1731 5.91298 26.0745 7.81441 26.0745 10.1383V20.6725H27.7745C28.2017 20.6725 28.6146 20.6078 29.0041 20.4884V9.94516C29.0041 7.62122 27.1027 5.71979 24.7787 5.71979Z" fill="#4F67D2"/>
<path d="M22.0424 5.71979H4.22538C1.90144 5.71979 0 7.62123 0 9.94516V21.917C0 24.241 1.90144 26.1424 4.22538 26.1424H14.9189C15.3773 26.1424 15.7196 26.569 15.6147 27.0153C15.3311 28.2226 14.8972 29.4993 14.2557 30.8082C13.9676 31.396 14.6229 31.9935 15.1796 31.649C16.789 30.653 19.0789 28.9859 21.0073 26.6292C21.2608 26.3194 21.6421 26.1423 22.0424 26.1423C24.3663 26.1423 26.2677 24.2409 26.2677 21.917V9.9451C26.2677 7.62122 24.3663 5.71979 22.0424 5.71979Z" fill="#60B8FE"/>
<path d="M18.3511 27.0151C18.4559 26.5688 18.1137 26.1422 17.6553 26.1422H14.9189C15.3773 26.1422 15.7195 26.5688 15.6147 27.0151C15.3311 28.2224 14.8972 29.4992 14.2557 30.808C13.9676 31.3958 14.6229 31.9933 15.1795 31.6488C15.797 31.2667 16.5149 30.7853 17.2739 30.2046C17.7634 29.1069 18.1113 28.0361 18.3511 27.0151Z" fill="#23A8FE"/>
<path d="M2.73644 21.917V9.94516C2.73644 7.62123 4.63788 5.71979 6.96181 5.71979H4.22538C1.90144 5.71979 0 7.62123 0 9.94516V21.917C0 24.241 1.90144 26.1424 4.22538 26.1424H6.96181C4.63781 26.1424 2.73644 24.241 2.73644 21.917Z" fill="#23A8FE"/>
<path d="M5.85708 17.6771C6.63145 17.6771 7.25921 17.0493 7.25921 16.2749C7.25921 15.5006 6.63145 14.8728 5.85708 14.8728C5.08271 14.8728 4.45496 15.5006 4.45496 16.2749C4.45496 17.0493 5.08271 17.6771 5.85708 17.6771Z" fill="#DFEBFA"/>
<path d="M10.3859 17.6771C11.1603 17.6771 11.788 17.0493 11.788 16.2749C11.788 15.5006 11.1603 14.8728 10.3859 14.8728C9.61152 14.8728 8.98376 15.5006 8.98376 16.2749C8.98376 17.0493 9.61152 17.6771 10.3859 17.6771Z" fill="#DFEBFA"/>
<path d="M14.9146 17.6771C15.6889 17.6771 16.3167 17.0493 16.3167 16.2749C16.3167 15.5006 15.6889 14.8728 14.9146 14.8728C14.1402 14.8728 13.5125 15.5006 13.5125 16.2749C13.5125 17.0493 14.1402 17.6771 14.9146 17.6771Z" fill="#DFEBFA"/>
<path d="M19.4433 17.6771C20.2176 17.6771 20.8454 17.0493 20.8454 16.2749C20.8454 15.5006 20.2176 14.8728 19.4433 14.8728C18.6689 14.8728 18.0411 15.5006 18.0411 16.2749C18.0411 17.0493 18.6689 17.6771 19.4433 17.6771Z" fill="#DFEBFA"/>
<path d="M5.85708 16.2749C5.85708 15.7561 6.13921 15.3033 6.55814 15.0609C6.35183 14.9415 6.11258 14.8728 5.85708 14.8728C5.08271 14.8728 4.45496 15.5006 4.45496 16.2749C4.45496 17.0493 5.08271 17.6771 5.85708 17.6771C6.11258 17.6771 6.35189 17.6084 6.55814 17.489C6.13914 17.2466 5.85708 16.7938 5.85708 16.2749Z" fill="#B1DBFC"/>
<path d="M10.3859 16.2749C10.3859 15.7561 10.668 15.3033 11.087 15.0609C10.8806 14.9415 10.6414 14.8728 10.3859 14.8728C9.61151 14.8728 8.98376 15.5006 8.98376 16.2749C8.98376 17.0493 9.61151 17.6771 10.3859 17.6771C10.6414 17.6771 10.8806 17.6084 11.087 17.489C10.668 17.2466 10.3859 16.7938 10.3859 16.2749Z" fill="#B1DBFC"/>
<path d="M14.9146 16.2749C14.9146 15.7561 15.1967 15.3033 15.6156 15.0609C15.4093 14.9415 15.17 14.8728 14.9146 14.8728C14.1402 14.8728 13.5125 15.5006 13.5125 16.2749C13.5125 17.0493 14.1402 17.6771 14.9146 17.6771C15.1701 17.6771 15.4094 17.6084 15.6156 17.489C15.1967 17.2466 14.9146 16.7938 14.9146 16.2749Z" fill="#B1DBFC"/>
<path d="M19.4434 16.2749C19.4434 15.7561 19.7254 15.3033 20.1444 15.0609C19.9381 14.9415 19.6988 14.8728 19.4434 14.8728C18.669 14.8728 18.0413 15.5006 18.0413 16.2749C18.0413 17.0493 18.669 17.6771 19.4434 17.6771C19.6989 17.6771 19.9382 17.6084 20.1444 17.489C19.7254 17.2466 19.4434 16.7938 19.4434 16.2749Z" fill="#B1DBFC"/>
</svg>
