<svg width="16" height="16" viewBox="0 0 16 16" fill="none" xmlns="http://www.w3.org/2000/svg">
<g clip-path="url(#clip0)">
<path d="M8 0.0010004C3.58218 0.0010004 0 3.58248 0 8.00065C0 12.4188 3.58183 16.0003 8 16.0003C12.4185 16.0003 16 12.4188 16 8.00065C16 3.58248 12.4185 0.0010004 8 0.0010004ZM8 2.39299C9.46183 2.39299 10.6464 3.57791 10.6464 5.03904C10.6464 6.50052 9.46183 7.68509 8 7.68509C6.53887 7.68509 5.3543 6.50052 5.3543 5.03904C5.3543 3.57791 6.53887 2.39299 8 2.39299ZM7.99824 13.9088C6.54028 13.9088 5.20495 13.3778 4.175 12.4989C3.9241 12.2849 3.77932 11.9711 3.77932 11.6419C3.77932 10.16 4.97865 8.97403 6.46086 8.97403H9.53984C11.0224 8.97403 12.2172 10.16 12.2172 11.6419C12.2172 11.9715 12.0731 12.2846 11.8218 12.4986C10.7922 13.3778 9.45656 13.9088 7.99824 13.9088Z" fill="#455880"/>
</g>
<defs>
<clipPath id="clip0">
<rect width="16" height="16" fill="white"/>
</clipPath>
</defs>
</svg>
