<svg width="16" height="16" viewBox="0 0 16 16" fill="none" xmlns="http://www.w3.org/2000/svg">
<path d="M9.33331 5.33333H2.66665C1.93131 5.33333 1.33331 5.93133 1.33331 6.66667V13.3333C1.33331 14.0687 1.93131 14.6667 2.66665 14.6667H9.33331C10.0686 14.6667 10.6666 14.0687 10.6666 13.3333V6.66667C10.6666 5.93133 10.0686 5.33333 9.33331 5.33333Z" fill="#455880"/>
<path d="M13.3333 1.33333H6.66665C6.31302 1.33333 5.97389 1.47381 5.72384 1.72386C5.47379 1.97391 5.33331 2.31304 5.33331 2.66667V4H10.6666C11.0203 4 11.3594 4.14048 11.6095 4.39052C11.8595 4.64057 12 4.97971 12 5.33333V10.6667H13.3333C13.6869 10.6667 14.0261 10.5262 14.2761 10.2761C14.5262 10.0261 14.6666 9.68696 14.6666 9.33333V2.66667C14.6666 2.31304 14.5262 1.97391 14.2761 1.72386C14.0261 1.47381 13.6869 1.33333 13.3333 1.33333Z" fill="#455880"/>
</svg>
