<svg width="32" height="32" viewBox="0 0 32 32" fill="none" xmlns="http://www.w3.org/2000/svg">
<rect width="32" height="32" rx="8" fill="#E4E1E4"/>
<g clip-path="url(#clip0)">
<path d="M24.2268 11.2212C24.2268 11.0184 24.1105 10.8335 23.9276 10.7457L16.2283 7.05181C16.0841 6.98265 15.9163 6.98265 15.7721 7.05181L8.07278 10.7457C7.88988 10.8335 7.77354 11.0184 7.77354 11.2212L7.77344 20.7786C7.77344 20.9815 7.88981 21.1664 8.07271 21.2541L15.7721 24.9481C15.8442 24.9826 15.9223 24.9999 16.0002 24.9999C16.0783 24.9999 16.1563 24.9826 16.2284 24.9481L23.9278 21.2541C24.1107 21.1664 24.227 20.9815 24.227 20.7786L24.2268 11.2212ZM16.0002 23.8877L8.82817 20.4467L8.82828 11.5532L16.0002 8.11227L23.172 11.5532L23.1722 20.4467L16.0002 23.8877Z" fill="#134A7C"/>
<path d="M21.6722 12.1653L16.2286 9.55358C16.0844 9.48442 15.9166 9.48442 15.7723 9.55358L10.3286 12.1653C10.1457 12.2531 10.0294 12.438 10.0294 12.6408L10.0293 19.359C10.0293 19.5619 10.1457 19.7468 10.3286 19.8345L15.7723 22.4463C15.8444 22.4809 15.9225 22.4982 16.0004 22.4982C16.0785 22.4982 16.1565 22.4809 16.2286 22.4463L21.6723 19.8345C21.8552 19.7468 21.9716 19.5619 21.9716 19.359L21.9715 12.6408C21.9715 12.438 21.8552 12.2531 21.6722 12.1653ZM16.0005 10.614L20.225 12.6409L16.0005 14.6677L11.7759 12.6409L16.0005 10.614ZM11.0841 13.4789L15.4731 15.5846V21.1329L11.0841 19.0272L11.0841 13.4789ZM16.5279 21.1329V15.5845L20.9168 13.4789L20.9169 19.0271L16.5279 21.1329Z" fill="#134A7C"/>
</g>
<defs>
<clipPath id="clip0">
<rect width="18" height="18" fill="white" transform="translate(7 7)"/>
</clipPath>
</defs>
</svg>
