<svg width="16" height="16" viewBox="0 0 16 16" fill="none" xmlns="http://www.w3.org/2000/svg">
<path d="M15.5312 0H13.625C13.3659 0 13.1562 0.209656 13.1562 0.46875V0.9375H9.31991C9.12575 0.393062 8.61031 0 8 0C7.38969 0 6.87425 0.393062 6.68009 0.9375H2.84375V0.46875C2.84375 0.209656 2.63409 0 2.375 0H0.46875C0.209656 0 0 0.209656 0 0.46875V2.34375C0 2.60284 0.209656 2.8125 0.46875 2.8125H2.375C2.63409 2.8125 2.84375 2.60284 2.84375 2.34375V1.86875H4.76888C3.14209 2.88503 2.06944 4.67 1.94122 6.66922C1.37878 6.85331 0.96875 7.37687 0.96875 8C0.96875 8.77544 1.59956 9.40625 2.375 9.40625C3.15044 9.40625 3.78125 8.77544 3.78125 8C3.78125 7.40188 3.40434 6.89334 2.87687 6.69041C3.03681 4.4615 4.59206 2.58288 6.75541 2.04688C6.98938 2.49928 7.45647 2.8125 8 2.8125C8.54353 2.8125 9.01062 2.49928 9.24459 2.04688C11.4079 2.58284 12.9632 4.46147 13.1231 6.69037C12.5957 6.89334 12.2188 7.40188 12.2188 8C12.2188 8.77544 12.8496 9.40625 13.625 9.40625C14.4004 9.40625 15.0312 8.77544 15.0312 8C15.0312 7.37687 14.6212 6.85331 14.0588 6.66922C13.9306 4.67 12.8579 2.89128 11.2311 1.875H13.1562V2.34375C13.1562 2.60284 13.3659 2.8125 13.625 2.8125H15.5312C15.7903 2.8125 16 2.60284 16 2.34375V0.46875C16 0.209656 15.7903 0 15.5312 0Z" fill="#455880"/>
<path d="M11.189 15.4186C10.9438 14.6683 10.2375 14.0938 9.40622 14.0938H6.59372C5.76247 14.0938 5.0561 14.6683 4.81091 15.4186C4.71638 15.7079 4.96247 16 5.26685 16H10.7331C11.0374 16 11.2836 15.7079 11.189 15.4186Z" fill="#455880"/>
<path d="M12.14 9.615L8.46875 4.10809V8.55509C9.01319 8.74925 9.40625 9.26469 9.40625 9.875C9.40625 10.6504 8.77544 11.2812 8 11.2812C7.22457 11.2812 6.59375 10.6504 6.59375 9.875C6.59375 9.26469 6.98682 8.74925 7.53125 8.55509V4.10809L3.86 9.615C3.73594 9.80084 3.76066 10.0485 3.9186 10.2064C4.77913 11.067 5.32919 12.1756 5.54147 13.3647C5.8671 13.2326 6.22125 13.1562 6.59375 13.1562H9.40625C9.77875 13.1562 10.1329 13.2326 10.4585 13.3647C10.6708 12.1754 11.2209 11.067 12.0814 10.2064C12.2393 10.0485 12.2641 9.80084 12.14 9.615Z" fill="#455880"/>
<path d="M8 9.40625C7.74137 9.40625 7.53125 9.61637 7.53125 9.875C7.53125 10.1336 7.74137 10.3438 8 10.3438C8.25863 10.3438 8.46875 10.1336 8.46875 9.875C8.46875 9.61637 8.25863 9.40625 8 9.40625Z" fill="#455880"/>
</svg>
