<svg width="583" height="487" viewBox="0 0 583 487" fill="none" xmlns="http://www.w3.org/2000/svg">
<circle cx="279.5" cy="260.5" r="169" stroke="#BBC6F2" stroke-dasharray="5 5"/>
<circle cx="284" cy="246" r="117.5" stroke="#BBC6F2" stroke-dasharray="5 5"/>
<rect x="14" y="76" width="161" height="169" rx="8" fill="#EEF6FF"/>
<g filter="url(#filter0_d)">
<rect x="20" y="69" width="161" height="169" rx="8" fill="#FFFDF8"/>
</g>
<rect x="35" y="127" width="121" height="8" rx="4" fill="#E6E4E1"/>
<rect x="35" y="144" width="92" height="6" rx="3" fill="#F0EEEA"/>
<rect x="35" y="161" width="92" height="6" rx="3" fill="#F0EEEA"/>
<path d="M39.563 106.13C38.445 106.13 37.5783 105.831 36.963 105.233C36.3563 104.626 36.053 103.712 36.053 102.49V97.212C36.053 97.1167 36.079 97.043 36.131 96.991C36.1917 96.9303 36.2653 96.9 36.352 96.9H37.015C37.1103 96.9 37.184 96.9303 37.236 96.991C37.2967 97.043 37.327 97.1167 37.327 97.212V102.516C37.327 103.348 37.522 103.972 37.912 104.388C38.302 104.804 38.8523 105.012 39.563 105.012C40.2737 105.012 40.824 104.804 41.214 104.388C41.604 103.972 41.799 103.348 41.799 102.516V97.212C41.799 97.1167 41.825 97.043 41.877 96.991C41.9377 96.9303 42.0113 96.9 42.098 96.9H42.774C42.8607 96.9 42.93 96.9303 42.982 96.991C43.0427 97.0517 43.073 97.1253 43.073 97.212V102.49C43.073 103.712 42.7653 104.626 42.15 105.233C41.5433 105.831 40.681 106.13 39.563 106.13ZM44.6875 106C44.6182 106 44.5532 105.974 44.4925 105.922C44.4405 105.87 44.4145 105.809 44.4145 105.74C44.4145 105.679 44.4319 105.623 44.4665 105.571L47.4435 101.372L44.6095 97.329C44.5835 97.2857 44.5705 97.2293 44.5705 97.16C44.5705 97.0907 44.5965 97.03 44.6485 96.978C44.7005 96.926 44.7612 96.9 44.8305 96.9H45.6105C45.7405 96.9 45.8575 96.9737 45.9615 97.121L48.2495 100.371L50.5245 97.121C50.6112 96.9737 50.7239 96.9 50.8625 96.9H51.6035C51.6729 96.9 51.7335 96.926 51.7855 96.978C51.8375 97.03 51.8635 97.0907 51.8635 97.16C51.8635 97.238 51.8462 97.2943 51.8115 97.329L49.0165 101.385L51.9805 105.571C52.0152 105.623 52.0325 105.679 52.0325 105.74C52.0325 105.809 52.0065 105.87 51.9545 105.922C51.9025 105.974 51.8375 106 51.7595 106H50.9665C50.8365 106 50.7195 105.926 50.6155 105.779L48.1975 102.412L45.7925 105.779C45.7059 105.926 45.5932 106 45.4545 106H44.6875ZM56.9456 106C56.859 106 56.7853 105.974 56.7246 105.922C56.6726 105.861 56.6466 105.788 56.6466 105.701V97.212C56.6466 97.1167 56.6726 97.043 56.7246 96.991C56.7853 96.9303 56.859 96.9 56.9456 96.9H59.8966C61.2053 96.9 62.15 97.1947 62.7306 97.784C63.3113 98.3647 63.6146 99.2443 63.6406 100.423C63.6493 100.674 63.6536 101.012 63.6536 101.437C63.6536 101.862 63.6493 102.204 63.6406 102.464C63.6146 103.287 63.476 103.959 63.2246 104.479C62.982 104.99 62.5963 105.372 62.0676 105.623C61.539 105.874 60.837 106 59.9616 106H56.9456ZM59.8966 104.895C60.4946 104.895 60.967 104.813 61.3136 104.648C61.669 104.483 61.9246 104.223 62.0806 103.868C62.2453 103.504 62.3363 103.019 62.3536 102.412C62.371 101.892 62.3796 101.567 62.3796 101.437C62.3796 101.298 62.371 100.978 62.3536 100.475C62.3363 99.617 62.1326 98.993 61.7426 98.603C61.3526 98.2043 60.7156 98.005 59.8316 98.005H57.9206V104.895H59.8966ZM68.1445 106.13C67.2518 106.13 66.5368 105.857 65.9995 105.311C65.4708 104.756 65.1805 104.002 65.1285 103.049L65.1155 102.607L65.1285 102.178C65.1892 101.242 65.4838 100.497 66.0125 99.942C66.5498 99.3873 67.2562 99.11 68.1315 99.11C69.0935 99.11 69.8388 99.4177 70.3675 100.033C70.8962 100.64 71.1605 101.463 71.1605 102.503V102.724C71.1605 102.811 71.1302 102.884 71.0695 102.945C71.0175 102.997 70.9482 103.023 70.8615 103.023H66.3635V103.14C66.3895 103.703 66.5585 104.184 66.8705 104.583C67.1912 104.973 67.6115 105.168 68.1315 105.168C68.5302 105.168 68.8552 105.09 69.1065 104.934C69.3665 104.769 69.5572 104.6 69.6785 104.427C69.7565 104.323 69.8128 104.262 69.8475 104.245C69.8908 104.219 69.9645 104.206 70.0685 104.206H70.7055C70.7835 104.206 70.8485 104.228 70.9005 104.271C70.9525 104.314 70.9785 104.375 70.9785 104.453C70.9785 104.644 70.8572 104.873 70.6145 105.142C70.3805 105.411 70.0468 105.645 69.6135 105.844C69.1888 106.035 68.6992 106.13 68.1445 106.13ZM69.9255 102.126V102.087C69.9255 101.489 69.7608 101.004 69.4315 100.631C69.1108 100.25 68.6775 100.059 68.1315 100.059C67.5855 100.059 67.1522 100.25 66.8315 100.631C66.5195 101.004 66.3635 101.489 66.3635 102.087V102.126H69.9255ZM75.0549 106.13C74.4483 106.13 73.9369 106.035 73.5209 105.844C73.1136 105.645 72.8059 105.419 72.5979 105.168C72.3986 104.917 72.2989 104.709 72.2989 104.544C72.2989 104.457 72.3293 104.392 72.3899 104.349C72.4593 104.297 72.5286 104.271 72.5979 104.271H73.1829C73.2696 104.271 73.3476 104.314 73.4169 104.401C73.6249 104.644 73.8503 104.834 74.0929 104.973C74.3356 105.112 74.6606 105.181 75.0679 105.181C75.5186 105.181 75.8826 105.094 76.1599 104.921C76.4459 104.739 76.5889 104.492 76.5889 104.18C76.5889 103.972 76.5283 103.803 76.4069 103.673C76.2943 103.534 76.0949 103.417 75.8089 103.322C75.5316 103.218 75.1156 103.105 74.5609 102.984C73.8069 102.819 73.2696 102.581 72.9489 102.269C72.6369 101.957 72.4809 101.554 72.4809 101.06C72.4809 100.731 72.5763 100.419 72.7669 100.124C72.9663 99.8207 73.2523 99.578 73.6249 99.396C74.0063 99.2053 74.4613 99.11 74.9899 99.11C75.5446 99.11 76.0169 99.201 76.4069 99.383C76.7969 99.565 77.0873 99.7817 77.2779 100.033C77.4773 100.276 77.5769 100.479 77.5769 100.644C77.5769 100.722 77.5466 100.787 77.4859 100.839C77.4339 100.891 77.3689 100.917 77.2909 100.917H76.7449C76.6409 100.917 76.5543 100.874 76.4849 100.787C76.3463 100.622 76.2249 100.497 76.1209 100.41C76.0256 100.315 75.8826 100.232 75.6919 100.163C75.5099 100.094 75.2759 100.059 74.9899 100.059C74.5739 100.059 74.2533 100.15 74.0279 100.332C73.8026 100.505 73.6899 100.735 73.6899 101.021C73.6899 101.203 73.7376 101.359 73.8329 101.489C73.9283 101.61 74.1103 101.723 74.3789 101.827C74.6563 101.931 75.0549 102.039 75.5749 102.152C76.3983 102.325 76.9789 102.577 77.3169 102.906C77.6636 103.227 77.8369 103.638 77.8369 104.141C77.8369 104.514 77.7286 104.852 77.5119 105.155C77.2953 105.458 76.9746 105.697 76.5499 105.87C76.1339 106.043 75.6356 106.13 75.0549 106.13ZM82.1109 106.13C81.1575 106.13 80.4165 105.861 79.8879 105.324C79.3679 104.787 79.0905 104.072 79.0559 103.179L79.0429 102.62L79.0559 102.061C79.0905 101.177 79.3722 100.466 79.9009 99.929C80.4295 99.383 81.1662 99.11 82.1109 99.11C83.0555 99.11 83.7922 99.383 84.3209 99.929C84.8495 100.466 85.1312 101.177 85.1659 102.061C85.1745 102.156 85.1789 102.343 85.1789 102.62C85.1789 102.897 85.1745 103.084 85.1659 103.179C85.1312 104.072 84.8495 104.787 84.3209 105.324C83.8009 105.861 83.0642 106.13 82.1109 106.13ZM82.1109 105.129C82.6569 105.129 83.0859 104.956 83.3979 104.609C83.7185 104.262 83.8919 103.764 83.9179 103.114C83.9265 103.027 83.9309 102.863 83.9309 102.62C83.9309 102.377 83.9265 102.213 83.9179 102.126C83.8919 101.476 83.7185 100.978 83.3979 100.631C83.0859 100.284 82.6569 100.111 82.1109 100.111C81.5649 100.111 81.1315 100.284 80.8109 100.631C80.4902 100.978 80.3212 101.476 80.3039 102.126L80.2909 102.62L80.3039 103.114C80.3212 103.764 80.4902 104.262 80.8109 104.609C81.1315 104.956 81.5649 105.129 82.1109 105.129ZM89.5757 108.86C88.8651 108.86 88.2931 108.739 87.8597 108.496C87.4264 108.262 87.1187 107.993 86.9367 107.69C86.7547 107.387 86.6551 107.114 86.6377 106.871C86.6291 106.784 86.6551 106.711 86.7157 106.65C86.7851 106.589 86.8587 106.559 86.9367 106.559H87.5607C87.6387 106.559 87.7037 106.576 87.7557 106.611C87.8077 106.654 87.8511 106.728 87.8857 106.832C87.9897 107.109 88.1587 107.348 88.3927 107.547C88.6354 107.755 89.0081 107.859 89.5107 107.859C90.1521 107.859 90.6244 107.72 90.9277 107.443C91.2311 107.174 91.3827 106.693 91.3827 106V105.116C91.1574 105.402 90.8714 105.632 90.5247 105.805C90.1781 105.97 89.7664 106.052 89.2897 106.052C88.3711 106.052 87.6821 105.762 87.2227 105.181C86.7721 104.592 86.5337 103.846 86.5077 102.945L86.4947 102.581L86.5077 102.23C86.5337 101.337 86.7764 100.596 87.2357 100.007C87.6951 99.409 88.3797 99.11 89.2897 99.11C90.1997 99.11 90.9104 99.4437 91.4217 100.111V99.552C91.4217 99.4653 91.4477 99.3917 91.4997 99.331C91.5604 99.2703 91.6341 99.24 91.7207 99.24H92.3187C92.4054 99.24 92.4791 99.2703 92.5397 99.331C92.6004 99.3917 92.6307 99.4653 92.6307 99.552V105.857C92.6307 107.859 91.6124 108.86 89.5757 108.86ZM89.5497 105.012C90.1391 105.012 90.5854 104.817 90.8887 104.427C91.1921 104.037 91.3567 103.573 91.3827 103.036C91.3914 102.958 91.3957 102.806 91.3957 102.581C91.3957 102.364 91.3914 102.217 91.3827 102.139C91.3567 101.602 91.1921 101.138 90.8887 100.748C90.5941 100.358 90.1477 100.163 89.5497 100.163C88.9344 100.163 88.4881 100.354 88.2107 100.735C87.9334 101.116 87.7817 101.619 87.7557 102.243L87.7427 102.581L87.7557 102.932C87.7817 103.547 87.9334 104.05 88.2107 104.44C88.4881 104.821 88.9344 105.012 89.5497 105.012ZM94.8626 106C94.7759 106 94.7022 105.974 94.6416 105.922C94.5896 105.861 94.5636 105.788 94.5636 105.701V99.539C94.5636 99.4523 94.5896 99.383 94.6416 99.331C94.7022 99.2703 94.7759 99.24 94.8626 99.24H95.4736C95.5602 99.24 95.6296 99.2703 95.6816 99.331C95.7422 99.383 95.7726 99.4523 95.7726 99.539V100.111C96.0239 99.7903 96.3186 99.5433 96.6566 99.37C97.0032 99.1967 97.4322 99.11 97.9436 99.11C98.7756 99.11 99.4212 99.3787 99.8806 99.916C100.349 100.445 100.583 101.151 100.583 102.035V105.701C100.583 105.788 100.552 105.861 100.492 105.922C100.44 105.974 100.37 106 100.284 106H99.6336C99.5469 106 99.4732 105.974 99.4126 105.922C99.3606 105.861 99.3346 105.788 99.3346 105.701V102.1C99.3346 101.485 99.1829 101.008 98.8796 100.67C98.5849 100.332 98.1559 100.163 97.5926 100.163C97.0466 100.163 96.6132 100.336 96.2926 100.683C95.9719 101.021 95.8116 101.493 95.8116 102.1V105.701C95.8116 105.788 95.7812 105.861 95.7206 105.922C95.6686 105.974 95.5992 106 95.5126 106H94.8626Z" fill="#212529"/>
<rect x="14" y="276" width="161" height="169" rx="8" fill="#FFEAF0"/>
<g filter="url(#filter1_d)">
<rect x="20" y="269" width="161" height="169" rx="8" fill="#FFFDF8"/>
</g>
<rect x="35" y="327" width="121" height="8" rx="4" fill="#E6E4E1"/>
<rect x="35" y="344" width="92" height="6" rx="3" fill="#F0EEEA"/>
<rect x="35" y="361" width="92" height="6" rx="3" fill="#F0EEEA"/>
<path d="M38.835 306C38.601 306 38.4407 305.887 38.354 305.662L35.455 297.303L35.429 297.16C35.429 297.091 35.455 297.03 35.507 296.978C35.559 296.926 35.6197 296.9 35.689 296.9H36.365C36.5297 296.9 36.6467 296.978 36.716 297.134L39.251 304.505L41.799 297.134C41.8163 297.082 41.8553 297.03 41.916 296.978C41.9767 296.926 42.0503 296.9 42.137 296.9H42.813C42.8823 296.9 42.943 296.926 42.995 296.978C43.0557 297.03 43.086 297.091 43.086 297.16L43.06 297.303L40.148 305.662C40.0613 305.887 39.9053 306 39.68 306H38.835ZM44.6756 297.979C44.5889 297.979 44.5152 297.953 44.4546 297.901C44.4026 297.84 44.3766 297.767 44.3766 297.68V296.978C44.3766 296.891 44.4026 296.818 44.4546 296.757C44.5152 296.696 44.5889 296.666 44.6756 296.666H45.4946C45.5812 296.666 45.6549 296.696 45.7156 296.757C45.7762 296.818 45.8066 296.891 45.8066 296.978V297.68C45.8066 297.767 45.7762 297.84 45.7156 297.901C45.6549 297.953 45.5812 297.979 45.4946 297.979H44.6756ZM44.7796 306C44.6929 306 44.6192 305.974 44.5586 305.922C44.5066 305.861 44.4806 305.788 44.4806 305.701V299.539C44.4806 299.452 44.5066 299.383 44.5586 299.331C44.6192 299.27 44.6929 299.24 44.7796 299.24H45.4036C45.4902 299.24 45.5596 299.27 45.6116 299.331C45.6722 299.383 45.7026 299.452 45.7026 299.539V305.701C45.7026 305.788 45.6722 305.861 45.6116 305.922C45.5596 305.974 45.4902 306 45.4036 306H44.7796ZM49.969 306.13C49.3623 306.13 48.851 306.035 48.435 305.844C48.0277 305.645 47.72 305.419 47.512 305.168C47.3127 304.917 47.213 304.709 47.213 304.544C47.213 304.457 47.2433 304.392 47.304 304.349C47.3733 304.297 47.4427 304.271 47.512 304.271H48.097C48.1837 304.271 48.2617 304.314 48.331 304.401C48.539 304.644 48.7643 304.834 49.007 304.973C49.2497 305.112 49.5747 305.181 49.982 305.181C50.4327 305.181 50.7967 305.094 51.074 304.921C51.36 304.739 51.503 304.492 51.503 304.18C51.503 303.972 51.4423 303.803 51.321 303.673C51.2083 303.534 51.009 303.417 50.723 303.322C50.4457 303.218 50.0297 303.105 49.475 302.984C48.721 302.819 48.1837 302.581 47.863 302.269C47.551 301.957 47.395 301.554 47.395 301.06C47.395 300.731 47.4903 300.419 47.681 300.124C47.8803 299.821 48.1663 299.578 48.539 299.396C48.9203 299.205 49.3753 299.11 49.904 299.11C50.4587 299.11 50.931 299.201 51.321 299.383C51.711 299.565 52.0013 299.782 52.192 300.033C52.3913 300.276 52.491 300.479 52.491 300.644C52.491 300.722 52.4607 300.787 52.4 300.839C52.348 300.891 52.283 300.917 52.205 300.917H51.659C51.555 300.917 51.4683 300.874 51.399 300.787C51.2603 300.622 51.139 300.497 51.035 300.41C50.9397 300.315 50.7967 300.232 50.606 300.163C50.424 300.094 50.19 300.059 49.904 300.059C49.488 300.059 49.1673 300.15 48.942 300.332C48.7167 300.505 48.604 300.735 48.604 301.021C48.604 301.203 48.6517 301.359 48.747 301.489C48.8423 301.61 49.0243 301.723 49.293 301.827C49.5703 301.931 49.969 302.039 50.489 302.152C51.3123 302.325 51.893 302.577 52.231 302.906C52.5777 303.227 52.751 303.638 52.751 304.141C52.751 304.514 52.6427 304.852 52.426 305.155C52.2093 305.458 51.8887 305.697 51.464 305.87C51.048 306.043 50.5497 306.13 49.969 306.13ZM56.7779 306.13C55.9546 306.13 55.3176 305.866 54.8669 305.337C54.4163 304.8 54.1909 304.089 54.1909 303.205V299.539C54.1909 299.452 54.2169 299.383 54.2689 299.331C54.3296 299.27 54.4033 299.24 54.4899 299.24H55.1399C55.2266 299.24 55.2959 299.27 55.3479 299.331C55.4086 299.383 55.4389 299.452 55.4389 299.539V303.14C55.4389 304.431 56.0023 305.077 57.1289 305.077C57.6749 305.077 58.1083 304.908 58.4289 304.57C58.7496 304.223 58.9099 303.747 58.9099 303.14V299.539C58.9099 299.452 58.9359 299.383 58.9879 299.331C59.0486 299.27 59.1223 299.24 59.2089 299.24H59.8589C59.9456 299.24 60.0149 299.27 60.0669 299.331C60.1189 299.383 60.1449 299.452 60.1449 299.539V305.701C60.1449 305.788 60.1189 305.861 60.0669 305.922C60.0149 305.974 59.9456 306 59.8589 306H59.2479C59.1613 306 59.0876 305.974 59.0269 305.922C58.9749 305.861 58.9489 305.788 58.9489 305.701V305.129C58.7063 305.458 58.4116 305.71 58.0649 305.883C57.7183 306.048 57.2893 306.13 56.7779 306.13ZM63.9613 306.13C63.5366 306.13 63.1423 306.043 62.7783 305.87C62.4143 305.697 62.1239 305.463 61.9073 305.168C61.6993 304.865 61.5953 304.531 61.5953 304.167C61.5953 303.595 61.8293 303.127 62.2973 302.763C62.7739 302.39 63.4153 302.148 64.2213 302.035L66.1583 301.762V301.385C66.1583 300.501 65.6513 300.059 64.6373 300.059C64.2559 300.059 63.9439 300.141 63.7013 300.306C63.4586 300.462 63.2766 300.648 63.1553 300.865C63.1293 300.943 63.0946 300.999 63.0513 301.034C63.0166 301.069 62.9646 301.086 62.8953 301.086H62.3363C62.2583 301.086 62.1889 301.06 62.1283 301.008C62.0763 300.947 62.0503 300.878 62.0503 300.8C62.0589 300.592 62.1543 300.358 62.3363 300.098C62.5269 299.829 62.8173 299.6 63.2073 299.409C63.5973 299.21 64.0783 299.11 64.6503 299.11C65.6209 299.11 66.3186 299.34 66.7433 299.799C67.1679 300.25 67.3803 300.813 67.3803 301.489V305.701C67.3803 305.788 67.3499 305.861 67.2893 305.922C67.2373 305.974 67.1679 306 67.0813 306H66.4833C66.3966 306 66.3229 305.974 66.2623 305.922C66.2103 305.861 66.1843 305.788 66.1843 305.701V305.142C65.9936 305.419 65.7163 305.653 65.3523 305.844C64.9883 306.035 64.5246 306.13 63.9613 306.13ZM64.2343 305.155C64.7976 305.155 65.2569 304.973 65.6123 304.609C65.9763 304.236 66.1583 303.703 66.1583 303.01V302.646L64.6503 302.867C64.0349 302.954 63.5713 303.101 63.2593 303.309C62.9473 303.508 62.7913 303.764 62.7913 304.076C62.7913 304.423 62.9343 304.691 63.2203 304.882C63.5063 305.064 63.8443 305.155 64.2343 305.155ZM69.5611 306C69.4744 306 69.4008 305.974 69.3401 305.922C69.2881 305.861 69.2621 305.788 69.2621 305.701V297.069C69.2621 296.982 69.2881 296.913 69.3401 296.861C69.4008 296.8 69.4744 296.77 69.5611 296.77H70.1721C70.2588 296.77 70.3281 296.8 70.3801 296.861C70.4408 296.913 70.4711 296.982 70.4711 297.069V305.701C70.4711 305.788 70.4408 305.861 70.3801 305.922C70.3281 305.974 70.2588 306 70.1721 306H69.5611ZM76.0648 306C75.9781 306 75.9044 305.974 75.8438 305.922C75.7918 305.861 75.7658 305.788 75.7658 305.701V297.199C75.7658 297.112 75.7918 297.043 75.8438 296.991C75.9044 296.93 75.9781 296.9 76.0648 296.9H76.7538C76.8404 296.9 76.9098 296.93 76.9618 296.991C77.0224 297.043 77.0528 297.112 77.0528 297.199V305.701C77.0528 305.788 77.0224 305.861 76.9618 305.922C76.9098 305.974 76.8404 306 76.7538 306H76.0648ZM81.6215 306.13C80.7201 306.13 80.0398 305.835 79.5805 305.246C79.1211 304.657 78.8785 303.911 78.8525 303.01L78.8395 302.62L78.8525 302.23C78.8785 301.337 79.1211 300.596 79.5805 300.007C80.0398 299.409 80.7201 299.11 81.6215 299.11C82.5141 299.11 83.2161 299.426 83.7275 300.059V297.069C83.7275 296.982 83.7535 296.913 83.8055 296.861C83.8661 296.8 83.9398 296.77 84.0265 296.77H84.6505C84.7371 296.77 84.8065 296.8 84.8585 296.861C84.9191 296.913 84.9495 296.982 84.9495 297.069V305.701C84.9495 305.788 84.9191 305.861 84.8585 305.922C84.8065 305.974 84.7371 306 84.6505 306H84.0655C83.9788 306 83.9051 305.974 83.8445 305.922C83.7925 305.861 83.7665 305.788 83.7665 305.701V305.155C83.2638 305.805 82.5488 306.13 81.6215 306.13ZM81.8945 305.077C82.4925 305.077 82.9388 304.882 83.2335 304.492C83.5368 304.093 83.7015 303.621 83.7275 303.075C83.7361 302.98 83.7405 302.815 83.7405 302.581C83.7405 302.338 83.7361 302.169 83.7275 302.074C83.7101 301.563 83.5455 301.116 83.2335 300.735C82.9215 300.354 82.4751 300.163 81.8945 300.163C81.2791 300.163 80.8285 300.354 80.5425 300.735C80.2651 301.116 80.1135 301.619 80.0875 302.243L80.0745 302.62C80.0745 304.258 80.6811 305.077 81.8945 305.077ZM89.5869 306.13C88.6942 306.13 87.9792 305.857 87.4419 305.311C86.9132 304.756 86.6229 304.002 86.5709 303.049L86.5579 302.607L86.5709 302.178C86.6316 301.242 86.9262 300.497 87.4549 299.942C87.9922 299.387 88.6986 299.11 89.5739 299.11C90.5359 299.11 91.2812 299.418 91.8099 300.033C92.3386 300.64 92.6029 301.463 92.6029 302.503V302.724C92.6029 302.811 92.5726 302.884 92.5119 302.945C92.4599 302.997 92.3906 303.023 92.3039 303.023H87.8059V303.14C87.8319 303.703 88.0009 304.184 88.3129 304.583C88.6336 304.973 89.0539 305.168 89.5739 305.168C89.9726 305.168 90.2976 305.09 90.5489 304.934C90.8089 304.769 90.9996 304.6 91.1209 304.427C91.1989 304.323 91.2552 304.262 91.2899 304.245C91.3332 304.219 91.4069 304.206 91.5109 304.206H92.1479C92.2259 304.206 92.2909 304.228 92.3429 304.271C92.3949 304.314 92.4209 304.375 92.4209 304.453C92.4209 304.644 92.2996 304.873 92.0569 305.142C91.8229 305.411 91.4892 305.645 91.0559 305.844C90.6312 306.035 90.1416 306.13 89.5869 306.13ZM91.3679 302.126V302.087C91.3679 301.489 91.2032 301.004 90.8739 300.631C90.5532 300.25 90.1199 300.059 89.5739 300.059C89.0279 300.059 88.5946 300.25 88.2739 300.631C87.9619 301.004 87.8059 301.489 87.8059 302.087V302.126H91.3679ZM94.4563 306C94.3696 306 94.296 305.974 94.2353 305.922C94.1833 305.861 94.1573 305.788 94.1573 305.701V299.539C94.1573 299.452 94.1833 299.383 94.2353 299.331C94.296 299.27 94.3696 299.24 94.4563 299.24H95.0673C95.154 299.24 95.2233 299.27 95.2753 299.331C95.336 299.383 95.3663 299.452 95.3663 299.539V300.111C95.6176 299.79 95.9123 299.543 96.2503 299.37C96.597 299.197 97.026 299.11 97.5373 299.11C98.3693 299.11 99.015 299.379 99.4743 299.916C99.9423 300.445 100.176 301.151 100.176 302.035V305.701C100.176 305.788 100.146 305.861 100.085 305.922C100.033 305.974 99.964 306 99.8773 306H99.2273C99.1406 306 99.067 305.974 99.0063 305.922C98.9543 305.861 98.9283 305.788 98.9283 305.701V302.1C98.9283 301.485 98.7766 301.008 98.4733 300.67C98.1786 300.332 97.7496 300.163 97.1863 300.163C96.6403 300.163 96.207 300.336 95.8863 300.683C95.5656 301.021 95.4053 301.493 95.4053 302.1V305.701C95.4053 305.788 95.375 305.861 95.3143 305.922C95.2623 305.974 95.193 306 95.1063 306H94.4563ZM102.236 297.979C102.149 297.979 102.076 297.953 102.015 297.901C101.963 297.84 101.937 297.767 101.937 297.68V296.978C101.937 296.891 101.963 296.818 102.015 296.757C102.076 296.696 102.149 296.666 102.236 296.666H103.055C103.142 296.666 103.215 296.696 103.276 296.757C103.337 296.818 103.367 296.891 103.367 296.978V297.68C103.367 297.767 103.337 297.84 103.276 297.901C103.215 297.953 103.142 297.979 103.055 297.979H102.236ZM102.34 306C102.253 306 102.18 305.974 102.119 305.922C102.067 305.861 102.041 305.788 102.041 305.701V299.539C102.041 299.452 102.067 299.383 102.119 299.331C102.18 299.27 102.253 299.24 102.34 299.24H102.964C103.051 299.24 103.12 299.27 103.172 299.331C103.233 299.383 103.263 299.452 103.263 299.539V305.701C103.263 305.788 103.233 305.861 103.172 305.922C103.12 305.974 103.051 306 102.964 306H102.34ZM107.829 306C106.459 306 105.775 305.237 105.775 303.712V300.28H104.761C104.674 300.28 104.6 300.254 104.54 300.202C104.488 300.141 104.462 300.068 104.462 299.981V299.539C104.462 299.452 104.488 299.383 104.54 299.331C104.6 299.27 104.674 299.24 104.761 299.24H105.775V297.069C105.775 296.982 105.801 296.913 105.853 296.861C105.913 296.8 105.987 296.77 106.074 296.77H106.685C106.771 296.77 106.841 296.8 106.893 296.861C106.953 296.913 106.984 296.982 106.984 297.069V299.24H108.596C108.682 299.24 108.752 299.27 108.804 299.331C108.864 299.383 108.895 299.452 108.895 299.539V299.981C108.895 300.068 108.864 300.141 108.804 300.202C108.752 300.254 108.682 300.28 108.596 300.28H106.984V303.621C106.984 304.054 107.057 304.384 107.205 304.609C107.352 304.826 107.595 304.934 107.933 304.934H108.726C108.812 304.934 108.882 304.964 108.934 305.025C108.994 305.077 109.025 305.146 109.025 305.233V305.701C109.025 305.788 108.994 305.861 108.934 305.922C108.882 305.974 108.812 306 108.726 306H107.829ZM111.451 308.47C111.381 308.47 111.321 308.444 111.269 308.392C111.217 308.34 111.191 308.279 111.191 308.21C111.191 308.149 111.212 308.071 111.256 307.976L112.257 305.597L109.774 299.734C109.73 299.621 109.709 299.548 109.709 299.513C109.709 299.435 109.735 299.37 109.787 299.318C109.839 299.266 109.904 299.24 109.982 299.24H110.619C110.757 299.24 110.861 299.314 110.931 299.461L112.907 304.193L114.935 299.461C115.004 299.314 115.112 299.24 115.26 299.24H115.871C115.949 299.24 116.014 299.266 116.066 299.318C116.118 299.37 116.144 299.431 116.144 299.5C116.144 299.526 116.122 299.604 116.079 299.734L112.387 308.249C112.317 308.396 112.209 308.47 112.062 308.47H111.451Z" fill="#212529"/>
<rect x="396" y="301" width="161" height="169" rx="8" fill="#EFE7F3"/>
<g filter="url(#filter2_d)">
<rect x="402" y="294" width="161" height="169" rx="8" fill="#FFFDF8"/>
</g>
<rect x="417" y="352" width="121" height="8" rx="4" fill="#E6E4E1"/>
<rect x="417" y="369" width="92" height="6" rx="3" fill="#F0EEEA"/>
<rect x="417" y="386" width="92" height="6" rx="3" fill="#F0EEEA"/>
<path d="M418.43 331C418.343 331 418.27 330.974 418.209 330.922C418.157 330.861 418.131 330.788 418.131 330.701V322.199C418.131 322.112 418.157 322.043 418.209 321.991C418.27 321.93 418.343 321.9 418.43 321.9H419.119C419.206 321.9 419.275 321.93 419.327 321.991C419.388 322.043 419.418 322.112 419.418 322.199V330.701C419.418 330.788 419.388 330.861 419.327 330.922C419.275 330.974 419.206 331 419.119 331H418.43ZM421.829 331C421.742 331 421.668 330.974 421.608 330.922C421.556 330.861 421.53 330.788 421.53 330.701V322.069C421.53 321.982 421.556 321.913 421.608 321.861C421.668 321.8 421.742 321.77 421.829 321.77H422.44C422.526 321.77 422.596 321.8 422.648 321.861C422.708 321.913 422.739 321.982 422.739 322.069V330.701C422.739 330.788 422.708 330.861 422.648 330.922C422.596 330.974 422.526 331 422.44 331H421.829ZM424.99 331C424.903 331 424.829 330.974 424.769 330.922C424.717 330.861 424.691 330.788 424.691 330.701V322.069C424.691 321.982 424.717 321.913 424.769 321.861C424.829 321.8 424.903 321.77 424.99 321.77H425.601C425.687 321.77 425.757 321.8 425.809 321.861C425.869 321.913 425.9 321.982 425.9 322.069V330.701C425.9 330.788 425.869 330.861 425.809 330.922C425.757 330.974 425.687 331 425.601 331H424.99ZM430.361 331.13C429.538 331.13 428.901 330.866 428.45 330.337C427.999 329.8 427.774 329.089 427.774 328.205V324.539C427.774 324.452 427.8 324.383 427.852 324.331C427.913 324.27 427.986 324.24 428.073 324.24H428.723C428.81 324.24 428.879 324.27 428.931 324.331C428.992 324.383 429.022 324.452 429.022 324.539V328.14C429.022 329.431 429.585 330.077 430.712 330.077C431.258 330.077 431.691 329.908 432.012 329.57C432.333 329.223 432.493 328.747 432.493 328.14V324.539C432.493 324.452 432.519 324.383 432.571 324.331C432.632 324.27 432.705 324.24 432.792 324.24H433.442C433.529 324.24 433.598 324.27 433.65 324.331C433.702 324.383 433.728 324.452 433.728 324.539V330.701C433.728 330.788 433.702 330.861 433.65 330.922C433.598 330.974 433.529 331 433.442 331H432.831C432.744 331 432.671 330.974 432.61 330.922C432.558 330.861 432.532 330.788 432.532 330.701V330.129C432.289 330.458 431.995 330.71 431.648 330.883C431.301 331.048 430.872 331.13 430.361 331.13ZM437.999 331.13C437.393 331.13 436.881 331.035 436.465 330.844C436.058 330.645 435.75 330.419 435.542 330.168C435.343 329.917 435.243 329.709 435.243 329.544C435.243 329.457 435.274 329.392 435.334 329.349C435.404 329.297 435.473 329.271 435.542 329.271H436.127C436.214 329.271 436.292 329.314 436.361 329.401C436.569 329.644 436.795 329.834 437.037 329.973C437.28 330.112 437.605 330.181 438.012 330.181C438.463 330.181 438.827 330.094 439.104 329.921C439.39 329.739 439.533 329.492 439.533 329.18C439.533 328.972 439.473 328.803 439.351 328.673C439.239 328.534 439.039 328.417 438.753 328.322C438.476 328.218 438.06 328.105 437.505 327.984C436.751 327.819 436.214 327.581 435.893 327.269C435.581 326.957 435.425 326.554 435.425 326.06C435.425 325.731 435.521 325.419 435.711 325.124C435.911 324.821 436.197 324.578 436.569 324.396C436.951 324.205 437.406 324.11 437.934 324.11C438.489 324.11 438.961 324.201 439.351 324.383C439.741 324.565 440.032 324.782 440.222 325.033C440.422 325.276 440.521 325.479 440.521 325.644C440.521 325.722 440.491 325.787 440.43 325.839C440.378 325.891 440.313 325.917 440.235 325.917H439.689C439.585 325.917 439.499 325.874 439.429 325.787C439.291 325.622 439.169 325.497 439.065 325.41C438.97 325.315 438.827 325.232 438.636 325.163C438.454 325.094 438.22 325.059 437.934 325.059C437.518 325.059 437.198 325.15 436.972 325.332C436.747 325.505 436.634 325.735 436.634 326.021C436.634 326.203 436.682 326.359 436.777 326.489C436.873 326.61 437.055 326.723 437.323 326.827C437.601 326.931 437.999 327.039 438.519 327.152C439.343 327.325 439.923 327.577 440.261 327.906C440.608 328.227 440.781 328.638 440.781 329.141C440.781 329.514 440.673 329.852 440.456 330.155C440.24 330.458 439.919 330.697 439.494 330.87C439.078 331.043 438.58 331.13 437.999 331.13ZM444.913 331C443.543 331 442.859 330.237 442.859 328.712V325.28H441.845C441.758 325.28 441.684 325.254 441.624 325.202C441.572 325.141 441.546 325.068 441.546 324.981V324.539C441.546 324.452 441.572 324.383 441.624 324.331C441.684 324.27 441.758 324.24 441.845 324.24H442.859V322.069C442.859 321.982 442.885 321.913 442.937 321.861C442.997 321.8 443.071 321.77 443.158 321.77H443.769C443.855 321.77 443.925 321.8 443.977 321.861C444.037 321.913 444.068 321.982 444.068 322.069V324.24H445.68C445.766 324.24 445.836 324.27 445.888 324.331C445.948 324.383 445.979 324.452 445.979 324.539V324.981C445.979 325.068 445.948 325.141 445.888 325.202C445.836 325.254 445.766 325.28 445.68 325.28H444.068V328.621C444.068 329.054 444.141 329.384 444.289 329.609C444.436 329.826 444.679 329.934 445.017 329.934H445.81C445.896 329.934 445.966 329.964 446.018 330.025C446.078 330.077 446.109 330.146 446.109 330.233V330.701C446.109 330.788 446.078 330.861 446.018 330.922C445.966 330.974 445.896 331 445.81 331H444.913ZM447.651 331C447.564 331 447.49 330.974 447.43 330.922C447.378 330.861 447.352 330.788 447.352 330.701V324.552C447.352 324.465 447.378 324.392 447.43 324.331C447.49 324.27 447.564 324.24 447.651 324.24H448.249C448.335 324.24 448.409 324.27 448.47 324.331C448.53 324.392 448.561 324.465 448.561 324.552V325.124C448.916 324.535 449.523 324.24 450.381 324.24H450.888C450.974 324.24 451.044 324.27 451.096 324.331C451.156 324.383 451.187 324.452 451.187 324.539V325.072C451.187 325.159 451.156 325.228 451.096 325.28C451.044 325.332 450.974 325.358 450.888 325.358H450.108C449.64 325.358 449.271 325.497 449.003 325.774C448.734 326.043 448.6 326.411 448.6 326.879V330.701C448.6 330.788 448.569 330.861 448.509 330.922C448.448 330.974 448.374 331 448.288 331H447.651ZM454.074 331.13C453.649 331.13 453.255 331.043 452.891 330.87C452.527 330.697 452.236 330.463 452.02 330.168C451.812 329.865 451.708 329.531 451.708 329.167C451.708 328.595 451.942 328.127 452.41 327.763C452.886 327.39 453.528 327.148 454.334 327.035L456.271 326.762V326.385C456.271 325.501 455.764 325.059 454.75 325.059C454.368 325.059 454.056 325.141 453.814 325.306C453.571 325.462 453.389 325.648 453.268 325.865C453.242 325.943 453.207 325.999 453.164 326.034C453.129 326.069 453.077 326.086 453.008 326.086H452.449C452.371 326.086 452.301 326.06 452.241 326.008C452.189 325.947 452.163 325.878 452.163 325.8C452.171 325.592 452.267 325.358 452.449 325.098C452.639 324.829 452.93 324.6 453.32 324.409C453.71 324.21 454.191 324.11 454.763 324.11C455.733 324.11 456.431 324.34 456.856 324.799C457.28 325.25 457.493 325.813 457.493 326.489V330.701C457.493 330.788 457.462 330.861 457.402 330.922C457.35 330.974 457.28 331 457.194 331H456.596C456.509 331 456.435 330.974 456.375 330.922C456.323 330.861 456.297 330.788 456.297 330.701V330.142C456.106 330.419 455.829 330.653 455.465 330.844C455.101 331.035 454.637 331.13 454.074 331.13ZM454.347 330.155C454.91 330.155 455.369 329.973 455.725 329.609C456.089 329.236 456.271 328.703 456.271 328.01V327.646L454.763 327.867C454.147 327.954 453.684 328.101 453.372 328.309C453.06 328.508 452.904 328.764 452.904 329.076C452.904 329.423 453.047 329.691 453.333 329.882C453.619 330.064 453.957 330.155 454.347 330.155ZM461.937 331C460.568 331 459.883 330.237 459.883 328.712V325.28H458.869C458.782 325.28 458.709 325.254 458.648 325.202C458.596 325.141 458.57 325.068 458.57 324.981V324.539C458.57 324.452 458.596 324.383 458.648 324.331C458.709 324.27 458.782 324.24 458.869 324.24H459.883V322.069C459.883 321.982 459.909 321.913 459.961 321.861C460.022 321.8 460.095 321.77 460.182 321.77H460.793C460.88 321.77 460.949 321.8 461.001 321.861C461.062 321.913 461.092 321.982 461.092 322.069V324.24H462.704C462.791 324.24 462.86 324.27 462.912 324.331C462.973 324.383 463.003 324.452 463.003 324.539V324.981C463.003 325.068 462.973 325.141 462.912 325.202C462.86 325.254 462.791 325.28 462.704 325.28H461.092V328.621C461.092 329.054 461.166 329.384 461.313 329.609C461.46 329.826 461.703 329.934 462.041 329.934H462.834C462.921 329.934 462.99 329.964 463.042 330.025C463.103 330.077 463.133 330.146 463.133 330.233V330.701C463.133 330.788 463.103 330.861 463.042 330.922C462.99 330.974 462.921 331 462.834 331H461.937ZM464.571 322.979C464.484 322.979 464.411 322.953 464.35 322.901C464.298 322.84 464.272 322.767 464.272 322.68V321.978C464.272 321.891 464.298 321.818 464.35 321.757C464.411 321.696 464.484 321.666 464.571 321.666H465.39C465.477 321.666 465.55 321.696 465.611 321.757C465.672 321.818 465.702 321.891 465.702 321.978V322.68C465.702 322.767 465.672 322.84 465.611 322.901C465.55 322.953 465.477 322.979 465.39 322.979H464.571ZM464.675 331C464.588 331 464.515 330.974 464.454 330.922C464.402 330.861 464.376 330.788 464.376 330.701V324.539C464.376 324.452 464.402 324.383 464.454 324.331C464.515 324.27 464.588 324.24 464.675 324.24H465.299C465.386 324.24 465.455 324.27 465.507 324.331C465.568 324.383 465.598 324.452 465.598 324.539V330.701C465.598 330.788 465.568 330.861 465.507 330.922C465.455 330.974 465.386 331 465.299 331H464.675ZM470.294 331.13C469.34 331.13 468.599 330.861 468.071 330.324C467.551 329.787 467.273 329.072 467.239 328.179L467.226 327.62L467.239 327.061C467.273 326.177 467.555 325.466 468.084 324.929C468.612 324.383 469.349 324.11 470.294 324.11C471.238 324.11 471.975 324.383 472.504 324.929C473.032 325.466 473.314 326.177 473.349 327.061C473.357 327.156 473.362 327.343 473.362 327.62C473.362 327.897 473.357 328.084 473.349 328.179C473.314 329.072 473.032 329.787 472.504 330.324C471.984 330.861 471.247 331.13 470.294 331.13ZM470.294 330.129C470.84 330.129 471.269 329.956 471.581 329.609C471.901 329.262 472.075 328.764 472.101 328.114C472.109 328.027 472.114 327.863 472.114 327.62C472.114 327.377 472.109 327.213 472.101 327.126C472.075 326.476 471.901 325.978 471.581 325.631C471.269 325.284 470.84 325.111 470.294 325.111C469.748 325.111 469.314 325.284 468.994 325.631C468.673 325.978 468.504 326.476 468.487 327.126L468.473 327.62L468.487 328.114C468.504 328.764 468.673 329.262 468.994 329.609C469.314 329.956 469.748 330.129 470.294 330.129ZM475.288 331C475.202 331 475.128 330.974 475.067 330.922C475.015 330.861 474.989 330.788 474.989 330.701V324.539C474.989 324.452 475.015 324.383 475.067 324.331C475.128 324.27 475.202 324.24 475.288 324.24H475.899C475.986 324.24 476.055 324.27 476.107 324.331C476.168 324.383 476.198 324.452 476.198 324.539V325.111C476.45 324.79 476.744 324.543 477.082 324.37C477.429 324.197 477.858 324.11 478.369 324.11C479.201 324.11 479.847 324.379 480.306 324.916C480.774 325.445 481.008 326.151 481.008 327.035V330.701C481.008 330.788 480.978 330.861 480.917 330.922C480.865 330.974 480.796 331 480.709 331H480.059C479.973 331 479.899 330.974 479.838 330.922C479.786 330.861 479.76 330.788 479.76 330.701V327.1C479.76 326.485 479.609 326.008 479.305 325.67C479.011 325.332 478.582 325.163 478.018 325.163C477.472 325.163 477.039 325.336 476.718 325.683C476.398 326.021 476.237 326.493 476.237 327.1V330.701C476.237 330.788 476.207 330.861 476.146 330.922C476.094 330.974 476.025 331 475.938 331H475.288Z" fill="#212529"/>
<rect x="396" y="101" width="161" height="169" rx="8" fill="#E7EDF3"/>
<g filter="url(#filter3_d)">
<rect x="402" y="94" width="161" height="169" rx="8" fill="#FFFDF8"/>
</g>
<rect x="417" y="152" width="121" height="8" rx="4" fill="#E6E4E1"/>
<rect x="417" y="169" width="92" height="6" rx="3" fill="#F0EEEA"/>
<rect x="417" y="186" width="92" height="6" rx="3" fill="#F0EEEA"/>
<path d="M418.43 131C418.343 131 418.27 130.974 418.209 130.922C418.157 130.861 418.131 130.788 418.131 130.701V122.212C418.131 122.117 418.157 122.043 418.209 121.991C418.27 121.93 418.343 121.9 418.43 121.9H421.732C422.711 121.9 423.483 122.138 424.046 122.615C424.609 123.092 424.891 123.781 424.891 124.682C424.891 125.583 424.609 126.272 424.046 126.749C423.491 127.217 422.72 127.451 421.732 127.451H419.431V130.701C419.431 130.788 419.401 130.861 419.34 130.922C419.279 130.974 419.206 131 419.119 131H418.43ZM421.667 126.359C422.3 126.359 422.776 126.216 423.097 125.93C423.426 125.644 423.591 125.228 423.591 124.682C423.591 124.136 423.431 123.72 423.11 123.434C422.789 123.139 422.308 122.992 421.667 122.992H419.418V126.359H421.667ZM426.602 131C426.515 131 426.441 130.974 426.381 130.922C426.329 130.861 426.303 130.788 426.303 130.701V124.552C426.303 124.465 426.329 124.392 426.381 124.331C426.441 124.27 426.515 124.24 426.602 124.24H427.2C427.286 124.24 427.36 124.27 427.421 124.331C427.481 124.392 427.512 124.465 427.512 124.552V125.124C427.867 124.535 428.474 124.24 429.332 124.24H429.839C429.925 124.24 429.995 124.27 430.047 124.331C430.107 124.383 430.138 124.452 430.138 124.539V125.072C430.138 125.159 430.107 125.228 430.047 125.28C429.995 125.332 429.925 125.358 429.839 125.358H429.059C428.591 125.358 428.222 125.497 427.954 125.774C427.685 126.043 427.551 126.411 427.551 126.879V130.701C427.551 130.788 427.52 130.861 427.46 130.922C427.399 130.974 427.325 131 427.239 131H426.602ZM433.883 131.13C432.93 131.13 432.189 130.861 431.66 130.324C431.14 129.787 430.863 129.072 430.828 128.179L430.815 127.62L430.828 127.061C430.863 126.177 431.145 125.466 431.673 124.929C432.202 124.383 432.939 124.11 433.883 124.11C434.828 124.11 435.565 124.383 436.093 124.929C436.622 125.466 436.904 126.177 436.938 127.061C436.947 127.156 436.951 127.343 436.951 127.62C436.951 127.897 436.947 128.084 436.938 128.179C436.904 129.072 436.622 129.787 436.093 130.324C435.573 130.861 434.837 131.13 433.883 131.13ZM433.883 130.129C434.429 130.129 434.858 129.956 435.17 129.609C435.491 129.262 435.664 128.764 435.69 128.114C435.699 128.027 435.703 127.863 435.703 127.62C435.703 127.377 435.699 127.213 435.69 127.126C435.664 126.476 435.491 125.978 435.17 125.631C434.858 125.284 434.429 125.111 433.883 125.111C433.337 125.111 432.904 125.284 432.583 125.631C432.263 125.978 432.094 126.476 432.076 127.126L432.063 127.62L432.076 128.114C432.094 128.764 432.263 129.262 432.583 129.609C432.904 129.956 433.337 130.129 433.883 130.129ZM441.049 131.13C440.148 131.13 439.468 130.835 439.008 130.246C438.549 129.657 438.306 128.911 438.28 128.01L438.267 127.62L438.28 127.23C438.306 126.337 438.549 125.596 439.008 125.007C439.468 124.409 440.148 124.11 441.049 124.11C441.942 124.11 442.644 124.426 443.155 125.059V122.069C443.155 121.982 443.181 121.913 443.233 121.861C443.294 121.8 443.368 121.77 443.454 121.77H444.078C444.165 121.77 444.234 121.8 444.286 121.861C444.347 121.913 444.377 121.982 444.377 122.069V130.701C444.377 130.788 444.347 130.861 444.286 130.922C444.234 130.974 444.165 131 444.078 131H443.493C443.407 131 443.333 130.974 443.272 130.922C443.22 130.861 443.194 130.788 443.194 130.701V130.155C442.692 130.805 441.977 131.13 441.049 131.13ZM441.322 130.077C441.92 130.077 442.367 129.882 442.661 129.492C442.965 129.093 443.129 128.621 443.155 128.075C443.164 127.98 443.168 127.815 443.168 127.581C443.168 127.338 443.164 127.169 443.155 127.074C443.138 126.563 442.973 126.116 442.661 125.735C442.349 125.354 441.903 125.163 441.322 125.163C440.707 125.163 440.256 125.354 439.97 125.735C439.693 126.116 439.541 126.619 439.515 127.243L439.502 127.62C439.502 129.258 440.109 130.077 441.322 130.077ZM448.833 131.13C448.009 131.13 447.372 130.866 446.922 130.337C446.471 129.8 446.246 129.089 446.246 128.205V124.539C446.246 124.452 446.272 124.383 446.324 124.331C446.384 124.27 446.458 124.24 446.545 124.24H447.195C447.281 124.24 447.351 124.27 447.403 124.331C447.463 124.383 447.494 124.452 447.494 124.539V128.14C447.494 129.431 448.057 130.077 449.184 130.077C449.73 130.077 450.163 129.908 450.484 129.57C450.804 129.223 450.965 128.747 450.965 128.14V124.539C450.965 124.452 450.991 124.383 451.043 124.331C451.103 124.27 451.177 124.24 451.264 124.24H451.914C452 124.24 452.07 124.27 452.122 124.331C452.174 124.383 452.2 124.452 452.2 124.539V130.701C452.2 130.788 452.174 130.861 452.122 130.922C452.07 130.974 452 131 451.914 131H451.303C451.216 131 451.142 130.974 451.082 130.922C451.03 130.861 451.004 130.788 451.004 130.701V130.129C450.761 130.458 450.466 130.71 450.12 130.883C449.773 131.048 449.344 131.13 448.833 131.13ZM456.861 131.13C455.934 131.13 455.206 130.87 454.677 130.35C454.157 129.821 453.88 129.085 453.845 128.14L453.832 127.62L453.845 127.1C453.88 126.155 454.157 125.423 454.677 124.903C455.206 124.374 455.934 124.11 456.861 124.11C457.485 124.11 458.014 124.223 458.447 124.448C458.88 124.673 459.201 124.951 459.409 125.28C459.626 125.609 459.743 125.939 459.76 126.268C459.769 126.355 459.743 126.424 459.682 126.476C459.621 126.528 459.548 126.554 459.461 126.554H458.837C458.75 126.554 458.685 126.537 458.642 126.502C458.599 126.467 458.555 126.398 458.512 126.294C458.365 125.878 458.157 125.583 457.888 125.41C457.619 125.228 457.281 125.137 456.874 125.137C456.337 125.137 455.908 125.306 455.587 125.644C455.275 125.973 455.106 126.48 455.08 127.165L455.067 127.633L455.08 128.075C455.106 128.768 455.275 129.28 455.587 129.609C455.899 129.938 456.328 130.103 456.874 130.103C457.281 130.103 457.619 130.016 457.888 129.843C458.157 129.661 458.365 129.362 458.512 128.946C458.555 128.842 458.599 128.773 458.642 128.738C458.685 128.695 458.75 128.673 458.837 128.673H459.461C459.548 128.673 459.621 128.703 459.682 128.764C459.743 128.816 459.769 128.885 459.76 128.972C459.743 129.293 459.626 129.622 459.409 129.96C459.201 130.289 458.88 130.567 458.447 130.792C458.022 131.017 457.494 131.13 456.861 131.13ZM463.943 131C462.573 131 461.889 130.237 461.889 128.712V125.28H460.875C460.788 125.28 460.714 125.254 460.654 125.202C460.602 125.141 460.576 125.068 460.576 124.981V124.539C460.576 124.452 460.602 124.383 460.654 124.331C460.714 124.27 460.788 124.24 460.875 124.24H461.889V122.069C461.889 121.982 461.915 121.913 461.967 121.861C462.027 121.8 462.101 121.77 462.188 121.77H462.799C462.885 121.77 462.955 121.8 463.007 121.861C463.067 121.913 463.098 121.982 463.098 122.069V124.24H464.71C464.796 124.24 464.866 124.27 464.918 124.331C464.978 124.383 465.009 124.452 465.009 124.539V124.981C465.009 125.068 464.978 125.141 464.918 125.202C464.866 125.254 464.796 125.28 464.71 125.28H463.098V128.621C463.098 129.054 463.171 129.384 463.319 129.609C463.466 129.826 463.709 129.934 464.047 129.934H464.84C464.926 129.934 464.996 129.964 465.048 130.025C465.108 130.077 465.139 130.146 465.139 130.233V130.701C465.139 130.788 465.108 130.861 465.048 130.922C464.996 130.974 464.926 131 464.84 131H463.943ZM470.036 131C469.95 131 469.876 130.974 469.815 130.922C469.763 130.861 469.737 130.788 469.737 130.701V122.212C469.737 122.117 469.763 122.043 469.815 121.991C469.876 121.93 469.95 121.9 470.036 121.9H472.987C474.296 121.9 475.241 122.195 475.821 122.784C476.402 123.365 476.705 124.244 476.731 125.423C476.74 125.674 476.744 126.012 476.744 126.437C476.744 126.862 476.74 127.204 476.731 127.464C476.705 128.287 476.567 128.959 476.315 129.479C476.073 129.99 475.687 130.372 475.158 130.623C474.63 130.874 473.928 131 473.052 131H470.036ZM472.987 129.895C473.585 129.895 474.058 129.813 474.404 129.648C474.76 129.483 475.015 129.223 475.171 128.868C475.336 128.504 475.427 128.019 475.444 127.412C475.462 126.892 475.47 126.567 475.47 126.437C475.47 126.298 475.462 125.978 475.444 125.475C475.427 124.617 475.223 123.993 474.833 123.603C474.443 123.204 473.806 123.005 472.922 123.005H471.011V129.895H472.987ZM481.235 131.13C480.343 131.13 479.628 130.857 479.09 130.311C478.562 129.756 478.271 129.002 478.219 128.049L478.206 127.607L478.219 127.178C478.28 126.242 478.575 125.497 479.103 124.942C479.641 124.387 480.347 124.11 481.222 124.11C482.184 124.11 482.93 124.418 483.458 125.033C483.987 125.64 484.251 126.463 484.251 127.503V127.724C484.251 127.811 484.221 127.884 484.16 127.945C484.108 127.997 484.039 128.023 483.952 128.023H479.454V128.14C479.48 128.703 479.649 129.184 479.961 129.583C480.282 129.973 480.702 130.168 481.222 130.168C481.621 130.168 481.946 130.09 482.197 129.934C482.457 129.769 482.648 129.6 482.769 129.427C482.847 129.323 482.904 129.262 482.938 129.245C482.982 129.219 483.055 129.206 483.159 129.206H483.796C483.874 129.206 483.939 129.228 483.991 129.271C484.043 129.314 484.069 129.375 484.069 129.453C484.069 129.644 483.948 129.873 483.705 130.142C483.471 130.411 483.138 130.645 482.704 130.844C482.28 131.035 481.79 131.13 481.235 131.13ZM483.016 127.126V127.087C483.016 126.489 482.852 126.004 482.522 125.631C482.202 125.25 481.768 125.059 481.222 125.059C480.676 125.059 480.243 125.25 479.922 125.631C479.61 126.004 479.454 126.489 479.454 127.087V127.126H483.016ZM488.146 131.13C487.539 131.13 487.028 131.035 486.612 130.844C486.204 130.645 485.897 130.419 485.689 130.168C485.489 129.917 485.39 129.709 485.39 129.544C485.39 129.457 485.42 129.392 485.481 129.349C485.55 129.297 485.619 129.271 485.689 129.271H486.274C486.36 129.271 486.438 129.314 486.508 129.401C486.716 129.644 486.941 129.834 487.184 129.973C487.426 130.112 487.751 130.181 488.159 130.181C488.609 130.181 488.973 130.094 489.251 129.921C489.537 129.739 489.68 129.492 489.68 129.18C489.68 128.972 489.619 128.803 489.498 128.673C489.385 128.534 489.186 128.417 488.9 128.322C488.622 128.218 488.206 128.105 487.652 127.984C486.898 127.819 486.36 127.581 486.04 127.269C485.728 126.957 485.572 126.554 485.572 126.06C485.572 125.731 485.667 125.419 485.858 125.124C486.057 124.821 486.343 124.578 486.716 124.396C487.097 124.205 487.552 124.11 488.081 124.11C488.635 124.11 489.108 124.201 489.498 124.383C489.888 124.565 490.178 124.782 490.369 125.033C490.568 125.276 490.668 125.479 490.668 125.644C490.668 125.722 490.637 125.787 490.577 125.839C490.525 125.891 490.46 125.917 490.382 125.917H489.836C489.732 125.917 489.645 125.874 489.576 125.787C489.437 125.622 489.316 125.497 489.212 125.41C489.116 125.315 488.973 125.232 488.783 125.163C488.601 125.094 488.367 125.059 488.081 125.059C487.665 125.059 487.344 125.15 487.119 125.332C486.893 125.505 486.781 125.735 486.781 126.021C486.781 126.203 486.828 126.359 486.924 126.489C487.019 126.61 487.201 126.723 487.47 126.827C487.747 126.931 488.146 127.039 488.666 127.152C489.489 127.325 490.07 127.577 490.408 127.906C490.754 128.227 490.928 128.638 490.928 129.141C490.928 129.514 490.819 129.852 490.603 130.155C490.386 130.458 490.065 130.697 489.641 130.87C489.225 131.043 488.726 131.13 488.146 131.13ZM492.628 122.979C492.541 122.979 492.467 122.953 492.407 122.901C492.355 122.84 492.329 122.767 492.329 122.68V121.978C492.329 121.891 492.355 121.818 492.407 121.757C492.467 121.696 492.541 121.666 492.628 121.666H493.447C493.533 121.666 493.607 121.696 493.668 121.757C493.728 121.818 493.759 121.891 493.759 121.978V122.68C493.759 122.767 493.728 122.84 493.668 122.901C493.607 122.953 493.533 122.979 493.447 122.979H492.628ZM492.732 131C492.645 131 492.571 130.974 492.511 130.922C492.459 130.861 492.433 130.788 492.433 130.701V124.539C492.433 124.452 492.459 124.383 492.511 124.331C492.571 124.27 492.645 124.24 492.732 124.24H493.356C493.442 124.24 493.512 124.27 493.564 124.331C493.624 124.383 493.655 124.452 493.655 124.539V130.701C493.655 130.788 493.624 130.861 493.564 130.922C493.512 130.974 493.442 131 493.356 131H492.732ZM498.35 133.86C497.639 133.86 497.067 133.739 496.634 133.496C496.201 133.262 495.893 132.993 495.711 132.69C495.529 132.387 495.429 132.114 495.412 131.871C495.403 131.784 495.429 131.711 495.49 131.65C495.559 131.589 495.633 131.559 495.711 131.559H496.335C496.413 131.559 496.478 131.576 496.53 131.611C496.582 131.654 496.625 131.728 496.66 131.832C496.764 132.109 496.933 132.348 497.167 132.547C497.41 132.755 497.782 132.859 498.285 132.859C498.926 132.859 499.399 132.72 499.702 132.443C500.005 132.174 500.157 131.693 500.157 131V130.116C499.932 130.402 499.646 130.632 499.299 130.805C498.952 130.97 498.541 131.052 498.064 131.052C497.145 131.052 496.456 130.762 495.997 130.181C495.546 129.592 495.308 128.846 495.282 127.945L495.269 127.581L495.282 127.23C495.308 126.337 495.551 125.596 496.01 125.007C496.469 124.409 497.154 124.11 498.064 124.11C498.974 124.11 499.685 124.444 500.196 125.111V124.552C500.196 124.465 500.222 124.392 500.274 124.331C500.335 124.27 500.408 124.24 500.495 124.24H501.093C501.18 124.24 501.253 124.27 501.314 124.331C501.375 124.392 501.405 124.465 501.405 124.552V130.857C501.405 132.859 500.387 133.86 498.35 133.86ZM498.324 130.012C498.913 130.012 499.36 129.817 499.663 129.427C499.966 129.037 500.131 128.573 500.157 128.036C500.166 127.958 500.17 127.806 500.17 127.581C500.17 127.364 500.166 127.217 500.157 127.139C500.131 126.602 499.966 126.138 499.663 125.748C499.368 125.358 498.922 125.163 498.324 125.163C497.709 125.163 497.262 125.354 496.985 125.735C496.708 126.116 496.556 126.619 496.53 127.243L496.517 127.581L496.53 127.932C496.556 128.547 496.708 129.05 496.985 129.44C497.262 129.821 497.709 130.012 498.324 130.012ZM503.637 131C503.55 131 503.477 130.974 503.416 130.922C503.364 130.861 503.338 130.788 503.338 130.701V124.539C503.338 124.452 503.364 124.383 503.416 124.331C503.477 124.27 503.55 124.24 503.637 124.24H504.248C504.335 124.24 504.404 124.27 504.456 124.331C504.517 124.383 504.547 124.452 504.547 124.539V125.111C504.798 124.79 505.093 124.543 505.431 124.37C505.778 124.197 506.207 124.11 506.718 124.11C507.55 124.11 508.196 124.379 508.655 124.916C509.123 125.445 509.357 126.151 509.357 127.035V130.701C509.357 130.788 509.327 130.861 509.266 130.922C509.214 130.974 509.145 131 509.058 131H508.408C508.321 131 508.248 130.974 508.187 130.922C508.135 130.861 508.109 130.788 508.109 130.701V127.1C508.109 126.485 507.957 126.008 507.654 125.67C507.359 125.332 506.93 125.163 506.367 125.163C505.821 125.163 505.388 125.336 505.067 125.683C504.746 126.021 504.586 126.493 504.586 127.1V130.701C504.586 130.788 504.556 130.861 504.495 130.922C504.443 130.974 504.374 131 504.287 131H503.637Z" fill="#212529"/>
<rect x="205" y="223" width="161" height="169" rx="8" fill="#F3EAE7"/>
<g filter="url(#filter4_d)">
<rect x="211" y="216" width="161" height="169" rx="8" fill="#FFFDF8"/>
</g>
<rect x="226" y="274" width="121" height="8" rx="4" fill="#E6E4E1"/>
<rect x="226" y="291" width="92" height="6" rx="3" fill="#F0EEEA"/>
<rect x="226" y="308" width="92" height="6" rx="3" fill="#F0EEEA"/>
<path d="M230.563 253.13C229.445 253.13 228.578 252.831 227.963 252.233C227.356 251.626 227.053 250.712 227.053 249.49V244.212C227.053 244.117 227.079 244.043 227.131 243.991C227.192 243.93 227.265 243.9 227.352 243.9H228.015C228.11 243.9 228.184 243.93 228.236 243.991C228.297 244.043 228.327 244.117 228.327 244.212V249.516C228.327 250.348 228.522 250.972 228.912 251.388C229.302 251.804 229.852 252.012 230.563 252.012C231.274 252.012 231.824 251.804 232.214 251.388C232.604 250.972 232.799 250.348 232.799 249.516V244.212C232.799 244.117 232.825 244.043 232.877 243.991C232.938 243.93 233.011 243.9 233.098 243.9H233.774C233.861 243.9 233.93 243.93 233.982 243.991C234.043 244.052 234.073 244.125 234.073 244.212V249.49C234.073 250.712 233.765 251.626 233.15 252.233C232.543 252.831 231.681 253.13 230.563 253.13ZM236.545 253C236.459 253 236.385 252.974 236.324 252.922C236.272 252.861 236.246 252.788 236.246 252.701V244.199C236.246 244.112 236.272 244.043 236.324 243.991C236.385 243.93 236.459 243.9 236.545 243.9H237.234C237.321 243.9 237.39 243.93 237.442 243.991C237.503 244.043 237.533 244.112 237.533 244.199V252.701C237.533 252.788 237.503 252.861 237.442 252.922C237.39 252.974 237.321 253 237.234 253H236.545ZM243.286 253C243.2 253 243.126 252.974 243.065 252.922C243.013 252.861 242.987 252.788 242.987 252.701V244.212C242.987 244.117 243.013 244.043 243.065 243.991C243.126 243.93 243.2 243.9 243.286 243.9H246.237C247.546 243.9 248.491 244.195 249.071 244.784C249.652 245.365 249.955 246.244 249.981 247.423C249.99 247.674 249.994 248.012 249.994 248.437C249.994 248.862 249.99 249.204 249.981 249.464C249.955 250.287 249.817 250.959 249.565 251.479C249.323 251.99 248.937 252.372 248.408 252.623C247.88 252.874 247.178 253 246.302 253H243.286ZM246.237 251.895C246.835 251.895 247.308 251.813 247.654 251.648C248.01 251.483 248.265 251.223 248.421 250.868C248.586 250.504 248.677 250.019 248.694 249.412C248.712 248.892 248.72 248.567 248.72 248.437C248.72 248.298 248.712 247.978 248.694 247.475C248.677 246.617 248.473 245.993 248.083 245.603C247.693 245.204 247.056 245.005 246.172 245.005H244.261V251.895H246.237ZM254.485 253.13C253.593 253.13 252.878 252.857 252.34 252.311C251.812 251.756 251.521 251.002 251.469 250.049L251.456 249.607L251.469 249.178C251.53 248.242 251.825 247.497 252.353 246.942C252.891 246.387 253.597 246.11 254.472 246.11C255.434 246.11 256.18 246.418 256.708 247.033C257.237 247.64 257.501 248.463 257.501 249.503V249.724C257.501 249.811 257.471 249.884 257.41 249.945C257.358 249.997 257.289 250.023 257.202 250.023H252.704V250.14C252.73 250.703 252.899 251.184 253.211 251.583C253.532 251.973 253.952 252.168 254.472 252.168C254.871 252.168 255.196 252.09 255.447 251.934C255.707 251.769 255.898 251.6 256.019 251.427C256.097 251.323 256.154 251.262 256.188 251.245C256.232 251.219 256.305 251.206 256.409 251.206H257.046C257.124 251.206 257.189 251.228 257.241 251.271C257.293 251.314 257.319 251.375 257.319 251.453C257.319 251.644 257.198 251.873 256.955 252.142C256.721 252.411 256.388 252.645 255.954 252.844C255.53 253.035 255.04 253.13 254.485 253.13ZM256.266 249.126V249.087C256.266 248.489 256.102 248.004 255.772 247.631C255.452 247.25 255.018 247.059 254.472 247.059C253.926 247.059 253.493 247.25 253.172 247.631C252.86 248.004 252.704 248.489 252.704 249.087V249.126H256.266ZM261.396 253.13C260.789 253.13 260.278 253.035 259.862 252.844C259.454 252.645 259.147 252.419 258.939 252.168C258.739 251.917 258.64 251.709 258.64 251.544C258.64 251.457 258.67 251.392 258.731 251.349C258.8 251.297 258.869 251.271 258.939 251.271H259.524C259.61 251.271 259.688 251.314 259.758 251.401C259.966 251.644 260.191 251.834 260.434 251.973C260.676 252.112 261.001 252.181 261.409 252.181C261.859 252.181 262.223 252.094 262.501 251.921C262.787 251.739 262.93 251.492 262.93 251.18C262.93 250.972 262.869 250.803 262.748 250.673C262.635 250.534 262.436 250.417 262.15 250.322C261.872 250.218 261.456 250.105 260.902 249.984C260.148 249.819 259.61 249.581 259.29 249.269C258.978 248.957 258.822 248.554 258.822 248.06C258.822 247.731 258.917 247.419 259.108 247.124C259.307 246.821 259.593 246.578 259.966 246.396C260.347 246.205 260.802 246.11 261.331 246.11C261.885 246.11 262.358 246.201 262.748 246.383C263.138 246.565 263.428 246.782 263.619 247.033C263.818 247.276 263.918 247.479 263.918 247.644C263.918 247.722 263.887 247.787 263.827 247.839C263.775 247.891 263.71 247.917 263.632 247.917H263.086C262.982 247.917 262.895 247.874 262.826 247.787C262.687 247.622 262.566 247.497 262.462 247.41C262.366 247.315 262.223 247.232 262.033 247.163C261.851 247.094 261.617 247.059 261.331 247.059C260.915 247.059 260.594 247.15 260.369 247.332C260.143 247.505 260.031 247.735 260.031 248.021C260.031 248.203 260.078 248.359 260.174 248.489C260.269 248.61 260.451 248.723 260.72 248.827C260.997 248.931 261.396 249.039 261.916 249.152C262.739 249.325 263.32 249.577 263.658 249.906C264.004 250.227 264.178 250.638 264.178 251.141C264.178 251.514 264.069 251.852 263.853 252.155C263.636 252.458 263.315 252.697 262.891 252.87C262.475 253.043 261.976 253.13 261.396 253.13ZM265.878 244.979C265.791 244.979 265.717 244.953 265.657 244.901C265.605 244.84 265.579 244.767 265.579 244.68V243.978C265.579 243.891 265.605 243.818 265.657 243.757C265.717 243.696 265.791 243.666 265.878 243.666H266.697C266.783 243.666 266.857 243.696 266.918 243.757C266.978 243.818 267.009 243.891 267.009 243.978V244.68C267.009 244.767 266.978 244.84 266.918 244.901C266.857 244.953 266.783 244.979 266.697 244.979H265.878ZM265.982 253C265.895 253 265.821 252.974 265.761 252.922C265.709 252.861 265.683 252.788 265.683 252.701V246.539C265.683 246.452 265.709 246.383 265.761 246.331C265.821 246.27 265.895 246.24 265.982 246.24H266.606C266.692 246.24 266.762 246.27 266.814 246.331C266.874 246.383 266.905 246.452 266.905 246.539V252.701C266.905 252.788 266.874 252.861 266.814 252.922C266.762 252.974 266.692 253 266.606 253H265.982ZM271.6 255.86C270.889 255.86 270.317 255.739 269.884 255.496C269.451 255.262 269.143 254.993 268.961 254.69C268.779 254.387 268.679 254.114 268.662 253.871C268.653 253.784 268.679 253.711 268.74 253.65C268.809 253.589 268.883 253.559 268.961 253.559H269.585C269.663 253.559 269.728 253.576 269.78 253.611C269.832 253.654 269.875 253.728 269.91 253.832C270.014 254.109 270.183 254.348 270.417 254.547C270.66 254.755 271.032 254.859 271.535 254.859C272.176 254.859 272.649 254.72 272.952 254.443C273.255 254.174 273.407 253.693 273.407 253V252.116C273.182 252.402 272.896 252.632 272.549 252.805C272.202 252.97 271.791 253.052 271.314 253.052C270.395 253.052 269.706 252.762 269.247 252.181C268.796 251.592 268.558 250.846 268.532 249.945L268.519 249.581L268.532 249.23C268.558 248.337 268.801 247.596 269.26 247.007C269.719 246.409 270.404 246.11 271.314 246.11C272.224 246.11 272.935 246.444 273.446 247.111V246.552C273.446 246.465 273.472 246.392 273.524 246.331C273.585 246.27 273.658 246.24 273.745 246.24H274.343C274.43 246.24 274.503 246.27 274.564 246.331C274.625 246.392 274.655 246.465 274.655 246.552V252.857C274.655 254.859 273.637 255.86 271.6 255.86ZM271.574 252.012C272.163 252.012 272.61 251.817 272.913 251.427C273.216 251.037 273.381 250.573 273.407 250.036C273.416 249.958 273.42 249.806 273.42 249.581C273.42 249.364 273.416 249.217 273.407 249.139C273.381 248.602 273.216 248.138 272.913 247.748C272.618 247.358 272.172 247.163 271.574 247.163C270.959 247.163 270.512 247.354 270.235 247.735C269.958 248.116 269.806 248.619 269.78 249.243L269.767 249.581L269.78 249.932C269.806 250.547 269.958 251.05 270.235 251.44C270.512 251.821 270.959 252.012 271.574 252.012ZM276.887 253C276.8 253 276.727 252.974 276.666 252.922C276.614 252.861 276.588 252.788 276.588 252.701V246.539C276.588 246.452 276.614 246.383 276.666 246.331C276.727 246.27 276.8 246.24 276.887 246.24H277.498C277.585 246.24 277.654 246.27 277.706 246.331C277.767 246.383 277.797 246.452 277.797 246.539V247.111C278.048 246.79 278.343 246.543 278.681 246.37C279.028 246.197 279.457 246.11 279.968 246.11C280.8 246.11 281.446 246.379 281.905 246.916C282.373 247.445 282.607 248.151 282.607 249.035V252.701C282.607 252.788 282.577 252.861 282.516 252.922C282.464 252.974 282.395 253 282.308 253H281.658C281.571 253 281.498 252.974 281.437 252.922C281.385 252.861 281.359 252.788 281.359 252.701V249.1C281.359 248.485 281.207 248.008 280.904 247.67C280.609 247.332 280.18 247.163 279.617 247.163C279.071 247.163 278.638 247.336 278.317 247.683C277.996 248.021 277.836 248.493 277.836 249.1V252.701C277.836 252.788 277.806 252.861 277.745 252.922C277.693 252.974 277.624 253 277.537 253H276.887Z" fill="#212529"/>
<rect x="205" y="23" width="161" height="169" rx="8" fill="#E7F3E8"/>
<g filter="url(#filter5_d)">
<rect x="211" y="16" width="161" height="169" rx="8" fill="#FFFDF8"/>
</g>
<rect x="226" y="74" width="121" height="8" rx="4" fill="#E6E4E1"/>
<rect x="226" y="91" width="92" height="6" rx="3" fill="#F0EEEA"/>
<rect x="226" y="108" width="92" height="6" rx="3" fill="#F0EEEA"/>
<path d="M230.446 53.13C229.311 53.13 228.427 52.8223 227.794 52.207C227.17 51.583 226.836 50.7337 226.793 49.659C226.784 49.399 226.78 48.9917 226.78 48.437C226.78 47.8737 226.784 47.4663 226.793 47.215C226.836 46.149 227.174 45.3083 227.807 44.693C228.44 44.0777 229.319 43.77 230.446 43.77C231.209 43.77 231.854 43.9087 232.383 44.186C232.92 44.4547 233.323 44.784 233.592 45.174C233.861 45.564 234.004 45.928 234.021 46.266V46.292C234.021 46.3613 233.995 46.4177 233.943 46.461C233.891 46.5043 233.826 46.526 233.748 46.526H232.981C232.894 46.526 232.829 46.513 232.786 46.487C232.751 46.4523 232.717 46.3873 232.682 46.292C232.552 45.902 232.301 45.5683 231.928 45.291C231.564 45.0137 231.07 44.875 230.446 44.875C229.727 44.875 229.163 45.07 228.756 45.46C228.349 45.85 228.128 46.4567 228.093 47.28C228.084 47.5313 228.08 47.917 228.08 48.437C228.08 48.9483 228.084 49.334 228.093 49.594C228.128 50.426 228.349 51.0413 228.756 51.44C229.163 51.83 229.727 52.025 230.446 52.025C231.174 52.025 231.755 51.8257 232.188 51.427C232.621 51.0283 232.838 50.4303 232.838 49.633V49.087H230.888C230.801 49.087 230.728 49.061 230.667 49.009C230.615 48.9483 230.589 48.8703 230.589 48.775V48.359C230.589 48.2723 230.615 48.1987 230.667 48.138C230.728 48.0773 230.801 48.047 230.888 48.047H233.826C233.913 48.047 233.982 48.0773 234.034 48.138C234.095 48.19 234.125 48.2637 234.125 48.359V49.607C234.125 50.3177 233.978 50.9373 233.683 51.466C233.388 51.9947 232.964 52.4063 232.409 52.701C231.854 52.987 231.2 53.13 230.446 53.13ZM236.11 53C236.023 53 235.949 52.974 235.889 52.922C235.837 52.8613 235.811 52.7877 235.811 52.701V46.552C235.811 46.4653 235.837 46.3917 235.889 46.331C235.949 46.2703 236.023 46.24 236.11 46.24H236.708C236.794 46.24 236.868 46.2703 236.929 46.331C236.989 46.3917 237.02 46.4653 237.02 46.552V47.124C237.375 46.5347 237.982 46.24 238.84 46.24H239.347C239.433 46.24 239.503 46.2703 239.555 46.331C239.615 46.383 239.646 46.4523 239.646 46.539V47.072C239.646 47.1587 239.615 47.228 239.555 47.28C239.503 47.332 239.433 47.358 239.347 47.358H238.567C238.099 47.358 237.73 47.4967 237.462 47.774C237.193 48.0427 237.059 48.411 237.059 48.879V52.701C237.059 52.7877 237.028 52.8613 236.968 52.922C236.907 52.974 236.833 53 236.747 53H236.11ZM242.533 53.13C242.108 53.13 241.714 53.0433 241.35 52.87C240.986 52.6967 240.695 52.4627 240.479 52.168C240.271 51.8647 240.167 51.531 240.167 51.167C240.167 50.595 240.401 50.127 240.869 49.763C241.345 49.3903 241.987 49.1477 242.793 49.035L244.73 48.762V48.385C244.73 47.501 244.223 47.059 243.209 47.059C242.827 47.059 242.515 47.1413 242.273 47.306C242.03 47.462 241.848 47.6483 241.727 47.865C241.701 47.943 241.666 47.9993 241.623 48.034C241.588 48.0687 241.536 48.086 241.467 48.086H240.908C240.83 48.086 240.76 48.06 240.7 48.008C240.648 47.9473 240.622 47.878 240.622 47.8C240.63 47.592 240.726 47.358 240.908 47.098C241.098 46.8293 241.389 46.5997 241.779 46.409C242.169 46.2097 242.65 46.11 243.222 46.11C244.192 46.11 244.89 46.3397 245.315 46.799C245.739 47.2497 245.952 47.813 245.952 48.489V52.701C245.952 52.7877 245.921 52.8613 245.861 52.922C245.809 52.974 245.739 53 245.653 53H245.055C244.968 53 244.894 52.974 244.834 52.922C244.782 52.8613 244.756 52.7877 244.756 52.701V52.142C244.565 52.4193 244.288 52.6533 243.924 52.844C243.56 53.0347 243.096 53.13 242.533 53.13ZM242.806 52.155C243.369 52.155 243.828 51.973 244.184 51.609C244.548 51.2363 244.73 50.7033 244.73 50.01V49.646L243.222 49.867C242.606 49.9537 242.143 50.101 241.831 50.309C241.519 50.5083 241.363 50.764 241.363 51.076C241.363 51.4227 241.506 51.6913 241.792 51.882C242.078 52.064 242.416 52.155 242.806 52.155ZM248.132 55.47C248.046 55.47 247.972 55.4397 247.911 55.379C247.859 55.327 247.833 55.2577 247.833 55.171V46.539C247.833 46.4523 247.859 46.383 247.911 46.331C247.972 46.2703 248.046 46.24 248.132 46.24H248.73C248.817 46.24 248.886 46.2703 248.938 46.331C248.999 46.383 249.029 46.4523 249.029 46.539V47.111C249.515 46.4437 250.225 46.11 251.161 46.11C252.071 46.11 252.752 46.396 253.202 46.968C253.662 47.54 253.909 48.2767 253.943 49.178C253.952 49.2733 253.956 49.4207 253.956 49.62C253.956 49.8193 253.952 49.9667 253.943 50.062C253.909 50.9547 253.662 51.6913 253.202 52.272C252.743 52.844 252.063 53.13 251.161 53.13C250.26 53.13 249.558 52.805 249.055 52.155V55.171C249.055 55.2577 249.029 55.327 248.977 55.379C248.925 55.4397 248.856 55.47 248.769 55.47H248.132ZM250.888 52.077C251.504 52.077 251.95 51.8863 252.227 51.505C252.513 51.1237 252.669 50.621 252.695 49.997C252.704 49.9103 252.708 49.7847 252.708 49.62C252.708 47.982 252.102 47.163 250.888 47.163C250.29 47.163 249.84 47.3623 249.536 47.761C249.242 48.151 249.081 48.619 249.055 49.165L249.042 49.659L249.055 50.166C249.073 50.6773 249.237 51.1237 249.549 51.505C249.861 51.8863 250.308 52.077 250.888 52.077ZM255.877 53C255.79 53 255.716 52.974 255.656 52.922C255.604 52.8613 255.578 52.7877 255.578 52.701V44.069C255.578 43.9823 255.604 43.913 255.656 43.861C255.716 43.8003 255.79 43.77 255.877 43.77H256.527C256.613 43.77 256.683 43.8003 256.735 43.861C256.795 43.913 256.826 43.9823 256.826 44.069V47.098C257.077 46.7773 257.372 46.5347 257.71 46.37C258.048 46.1967 258.468 46.11 258.971 46.11C259.803 46.11 260.448 46.3787 260.908 46.916C261.376 47.4447 261.61 48.151 261.61 49.035V52.701C261.61 52.7877 261.579 52.8613 261.519 52.922C261.467 52.974 261.397 53 261.311 53H260.661C260.574 53 260.5 52.974 260.44 52.922C260.388 52.8613 260.362 52.7877 260.362 52.701V49.1C260.362 48.4847 260.21 48.008 259.907 47.67C259.612 47.332 259.183 47.163 258.62 47.163C258.074 47.163 257.636 47.3363 257.307 47.683C256.986 48.021 256.826 48.4933 256.826 49.1V52.701C256.826 52.7877 256.795 52.8613 256.735 52.922C256.683 52.974 256.613 53 256.527 53H255.877ZM263.681 44.979C263.595 44.979 263.521 44.953 263.46 44.901C263.408 44.8403 263.382 44.7667 263.382 44.68V43.978C263.382 43.8913 263.408 43.8177 263.46 43.757C263.521 43.6963 263.595 43.666 263.681 43.666H264.5C264.587 43.666 264.661 43.6963 264.721 43.757C264.782 43.8177 264.812 43.8913 264.812 43.978V44.68C264.812 44.7667 264.782 44.8403 264.721 44.901C264.661 44.953 264.587 44.979 264.5 44.979H263.681ZM263.785 53C263.699 53 263.625 52.974 263.564 52.922C263.512 52.8613 263.486 52.7877 263.486 52.701V46.539C263.486 46.4523 263.512 46.383 263.564 46.331C263.625 46.2703 263.699 46.24 263.785 46.24H264.409C264.496 46.24 264.565 46.2703 264.617 46.331C264.678 46.383 264.708 46.4523 264.708 46.539V52.701C264.708 52.7877 264.678 52.8613 264.617 52.922C264.565 52.974 264.496 53 264.409 53H263.785ZM269.365 53.13C268.438 53.13 267.71 52.87 267.181 52.35C266.661 51.8213 266.384 51.0847 266.349 50.14L266.336 49.62L266.349 49.1C266.384 48.1553 266.661 47.423 267.181 46.903C267.71 46.3743 268.438 46.11 269.365 46.11C269.989 46.11 270.518 46.2227 270.951 46.448C271.384 46.6733 271.705 46.9507 271.913 47.28C272.13 47.6093 272.247 47.9387 272.264 48.268C272.273 48.3547 272.247 48.424 272.186 48.476C272.125 48.528 272.052 48.554 271.965 48.554H271.341C271.254 48.554 271.189 48.5367 271.146 48.502C271.103 48.4673 271.059 48.398 271.016 48.294C270.869 47.878 270.661 47.5833 270.392 47.41C270.123 47.228 269.785 47.137 269.378 47.137C268.841 47.137 268.412 47.306 268.091 47.644C267.779 47.9733 267.61 48.4803 267.584 49.165L267.571 49.633L267.584 50.075C267.61 50.7683 267.779 51.2797 268.091 51.609C268.403 51.9383 268.832 52.103 269.378 52.103C269.785 52.103 270.123 52.0163 270.392 51.843C270.661 51.661 270.869 51.362 271.016 50.946C271.059 50.842 271.103 50.7727 271.146 50.738C271.189 50.6947 271.254 50.673 271.341 50.673H271.965C272.052 50.673 272.125 50.7033 272.186 50.764C272.247 50.816 272.273 50.8853 272.264 50.972C272.247 51.2927 272.13 51.622 271.913 51.96C271.705 52.2893 271.384 52.5667 270.951 52.792C270.526 53.0173 269.998 53.13 269.365 53.13ZM277.462 53C277.376 53 277.302 52.974 277.241 52.922C277.189 52.8613 277.163 52.7877 277.163 52.701V44.212C277.163 44.1167 277.189 44.043 277.241 43.991C277.302 43.9303 277.376 43.9 277.462 43.9H280.413C281.722 43.9 282.667 44.1947 283.247 44.784C283.828 45.3647 284.131 46.2443 284.157 47.423C284.166 47.6743 284.17 48.0123 284.17 48.437C284.17 48.8617 284.166 49.204 284.157 49.464C284.131 50.2873 283.993 50.959 283.741 51.479C283.499 51.9903 283.113 52.3717 282.584 52.623C282.056 52.8743 281.354 53 280.478 53H277.462ZM280.413 51.895C281.011 51.895 281.484 51.8127 281.83 51.648C282.186 51.4833 282.441 51.2233 282.597 50.868C282.762 50.504 282.853 50.0187 282.87 49.412C282.888 48.892 282.896 48.567 282.896 48.437C282.896 48.2983 282.888 47.9777 282.87 47.475C282.853 46.617 282.649 45.993 282.259 45.603C281.869 45.2043 281.232 45.005 280.348 45.005H278.437V51.895H280.413ZM288.661 53.13C287.768 53.13 287.053 52.857 286.516 52.311C285.987 51.7563 285.697 51.0023 285.645 50.049L285.632 49.607L285.645 49.178C285.706 48.242 286 47.4967 286.529 46.942C287.066 46.3873 287.773 46.11 288.648 46.11C289.61 46.11 290.355 46.4177 290.884 47.033C291.413 47.6397 291.677 48.463 291.677 49.503V49.724C291.677 49.8107 291.647 49.8843 291.586 49.945C291.534 49.997 291.465 50.023 291.378 50.023H286.88V50.14C286.906 50.7033 287.075 51.1843 287.387 51.583C287.708 51.973 288.128 52.168 288.648 52.168C289.047 52.168 289.372 52.09 289.623 51.934C289.883 51.7693 290.074 51.6003 290.195 51.427C290.273 51.323 290.329 51.2623 290.364 51.245C290.407 51.219 290.481 51.206 290.585 51.206H291.222C291.3 51.206 291.365 51.2277 291.417 51.271C291.469 51.3143 291.495 51.375 291.495 51.453C291.495 51.6437 291.374 51.8733 291.131 52.142C290.897 52.4107 290.563 52.6447 290.13 52.844C289.705 53.0347 289.216 53.13 288.661 53.13ZM290.442 49.126V49.087C290.442 48.489 290.277 48.0037 289.948 47.631C289.627 47.2497 289.194 47.059 288.648 47.059C288.102 47.059 287.669 47.2497 287.348 47.631C287.036 48.0037 286.88 48.489 286.88 49.087V49.126H290.442ZM295.572 53.13C294.965 53.13 294.454 53.0347 294.038 52.844C293.63 52.6447 293.323 52.4193 293.115 52.168C292.915 51.9167 292.816 51.7087 292.816 51.544C292.816 51.4573 292.846 51.3923 292.907 51.349C292.976 51.297 293.045 51.271 293.115 51.271H293.7C293.786 51.271 293.864 51.3143 293.934 51.401C294.142 51.6437 294.367 51.8343 294.61 51.973C294.852 52.1117 295.177 52.181 295.585 52.181C296.035 52.181 296.399 52.0943 296.677 51.921C296.963 51.739 297.106 51.492 297.106 51.18C297.106 50.972 297.045 50.803 296.924 50.673C296.811 50.5343 296.612 50.4173 296.326 50.322C296.048 50.218 295.632 50.1053 295.078 49.984C294.324 49.8193 293.786 49.581 293.466 49.269C293.154 48.957 292.998 48.554 292.998 48.06C292.998 47.7307 293.093 47.4187 293.284 47.124C293.483 46.8207 293.769 46.578 294.142 46.396C294.523 46.2053 294.978 46.11 295.507 46.11C296.061 46.11 296.534 46.201 296.924 46.383C297.314 46.565 297.604 46.7817 297.795 47.033C297.994 47.2757 298.094 47.4793 298.094 47.644C298.094 47.722 298.063 47.787 298.003 47.839C297.951 47.891 297.886 47.917 297.808 47.917H297.262C297.158 47.917 297.071 47.8737 297.002 47.787C296.863 47.6223 296.742 47.4967 296.638 47.41C296.542 47.3147 296.399 47.2323 296.209 47.163C296.027 47.0937 295.793 47.059 295.507 47.059C295.091 47.059 294.77 47.15 294.545 47.332C294.319 47.5053 294.207 47.735 294.207 48.021C294.207 48.203 294.254 48.359 294.35 48.489C294.445 48.6103 294.627 48.723 294.896 48.827C295.173 48.931 295.572 49.0393 296.092 49.152C296.915 49.3253 297.496 49.5767 297.834 49.906C298.18 50.2267 298.354 50.6383 298.354 51.141C298.354 51.5137 298.245 51.8517 298.029 52.155C297.812 52.4583 297.491 52.6967 297.067 52.87C296.651 53.0433 296.152 53.13 295.572 53.13ZM300.053 44.979C299.967 44.979 299.893 44.953 299.832 44.901C299.78 44.8403 299.754 44.7667 299.754 44.68V43.978C299.754 43.8913 299.78 43.8177 299.832 43.757C299.893 43.6963 299.967 43.666 300.053 43.666H300.872C300.959 43.666 301.033 43.6963 301.093 43.757C301.154 43.8177 301.184 43.8913 301.184 43.978V44.68C301.184 44.7667 301.154 44.8403 301.093 44.901C301.033 44.953 300.959 44.979 300.872 44.979H300.053ZM300.157 53C300.071 53 299.997 52.974 299.936 52.922C299.884 52.8613 299.858 52.7877 299.858 52.701V46.539C299.858 46.4523 299.884 46.383 299.936 46.331C299.997 46.2703 300.071 46.24 300.157 46.24H300.781C300.868 46.24 300.937 46.2703 300.989 46.331C301.05 46.383 301.08 46.4523 301.08 46.539V52.701C301.08 52.7877 301.05 52.8613 300.989 52.922C300.937 52.974 300.868 53 300.781 53H300.157ZM305.776 55.86C305.065 55.86 304.493 55.7387 304.06 55.496C303.627 55.262 303.319 54.9933 303.137 54.69C302.955 54.3867 302.855 54.1137 302.838 53.871C302.829 53.7843 302.855 53.7107 302.916 53.65C302.985 53.5893 303.059 53.559 303.137 53.559H303.761C303.839 53.559 303.904 53.5763 303.956 53.611C304.008 53.6543 304.051 53.728 304.086 53.832C304.19 54.1093 304.359 54.3477 304.593 54.547C304.836 54.755 305.208 54.859 305.711 54.859C306.352 54.859 306.825 54.7203 307.128 54.443C307.431 54.1743 307.583 53.6933 307.583 53V52.116C307.358 52.402 307.072 52.6317 306.725 52.805C306.378 52.9697 305.967 53.052 305.49 53.052C304.571 53.052 303.882 52.7617 303.423 52.181C302.972 51.5917 302.734 50.8463 302.708 49.945L302.695 49.581L302.708 49.23C302.734 48.3373 302.977 47.5963 303.436 47.007C303.895 46.409 304.58 46.11 305.49 46.11C306.4 46.11 307.111 46.4437 307.622 47.111V46.552C307.622 46.4653 307.648 46.3917 307.7 46.331C307.761 46.2703 307.834 46.24 307.921 46.24H308.519C308.606 46.24 308.679 46.2703 308.74 46.331C308.801 46.3917 308.831 46.4653 308.831 46.552V52.857C308.831 54.859 307.813 55.86 305.776 55.86ZM305.75 52.012C306.339 52.012 306.786 51.817 307.089 51.427C307.392 51.037 307.557 50.5733 307.583 50.036C307.592 49.958 307.596 49.8063 307.596 49.581C307.596 49.3643 307.592 49.217 307.583 49.139C307.557 48.6017 307.392 48.138 307.089 47.748C306.794 47.358 306.348 47.163 305.75 47.163C305.135 47.163 304.688 47.3537 304.411 47.735C304.134 48.1163 303.982 48.619 303.956 49.243L303.943 49.581L303.956 49.932C303.982 50.5473 304.134 51.05 304.411 51.44C304.688 51.8213 305.135 52.012 305.75 52.012ZM311.063 53C310.976 53 310.902 52.974 310.842 52.922C310.79 52.8613 310.764 52.7877 310.764 52.701V46.539C310.764 46.4523 310.79 46.383 310.842 46.331C310.902 46.2703 310.976 46.24 311.063 46.24H311.674C311.76 46.24 311.83 46.2703 311.882 46.331C311.942 46.383 311.973 46.4523 311.973 46.539V47.111C312.224 46.7903 312.519 46.5433 312.857 46.37C313.203 46.1967 313.632 46.11 314.144 46.11C314.976 46.11 315.621 46.3787 316.081 46.916C316.549 47.4447 316.783 48.151 316.783 49.035V52.701C316.783 52.7877 316.752 52.8613 316.692 52.922C316.64 52.974 316.57 53 316.484 53H315.834C315.747 53 315.673 52.974 315.613 52.922C315.561 52.8613 315.535 52.7877 315.535 52.701V49.1C315.535 48.4847 315.383 48.008 315.08 47.67C314.785 47.332 314.356 47.163 313.793 47.163C313.247 47.163 312.813 47.3363 312.493 47.683C312.172 48.021 312.012 48.4933 312.012 49.1V52.701C312.012 52.7877 311.981 52.8613 311.921 52.922C311.869 52.974 311.799 53 311.713 53H311.063Z" fill="#212529"/>
<path d="M372.268 440C373.038 438.667 374.962 438.667 375.732 440L383.526 453.5C384.296 454.833 383.334 456.5 381.794 456.5H366.206C364.666 456.5 363.704 454.833 364.474 453.5L372.268 440Z" fill="#FFF8E4"/>
<path d="M369.701 440.25C370.278 439.25 371.722 439.25 372.299 440.25L380.093 453.75C380.671 454.75 379.949 456 378.794 456H363.206C362.051 456 361.329 454.75 361.907 453.75L369.701 440.25Z" stroke="#212529"/>
<path d="M141.268 26C142.038 24.6667 143.962 24.6667 144.732 26L152.526 39.5C153.296 40.8333 152.334 42.5 150.794 42.5H135.206C133.666 42.5 132.704 40.8333 133.474 39.5L141.268 26Z" fill="#FFF8E4"/>
<path d="M138.701 26.25C139.278 25.25 140.722 25.25 141.299 26.25L149.093 39.75C149.671 40.75 148.949 42 147.794 42H132.206C131.051 42 130.329 40.75 130.907 39.75L138.701 26.25Z" stroke="#212529"/>
<circle cx="417" cy="83" r="7.5" stroke="#212529"/>
<circle cx="418" cy="80" r="8" fill="#E4EAFF"/>
<defs>
<filter id="filter0_d" x="0" y="53" width="201" height="209" filterUnits="userSpaceOnUse" color-interpolation-filters="sRGB">
<feFlood flood-opacity="0" result="BackgroundImageFix"/>
<feColorMatrix in="SourceAlpha" type="matrix" values="0 0 0 0 0 0 0 0 0 0 0 0 0 0 0 0 0 0 127 0"/>
<feOffset dy="4"/>
<feGaussianBlur stdDeviation="10"/>
<feColorMatrix type="matrix" values="0 0 0 0 0.4 0 0 0 0 0.439216 0 0 0 0 0.811765 0 0 0 0.1 0"/>
<feBlend mode="normal" in2="BackgroundImageFix" result="effect1_dropShadow"/>
<feBlend mode="normal" in="SourceGraphic" in2="effect1_dropShadow" result="shape"/>
</filter>
<filter id="filter1_d" x="0" y="253" width="201" height="209" filterUnits="userSpaceOnUse" color-interpolation-filters="sRGB">
<feFlood flood-opacity="0" result="BackgroundImageFix"/>
<feColorMatrix in="SourceAlpha" type="matrix" values="0 0 0 0 0 0 0 0 0 0 0 0 0 0 0 0 0 0 127 0"/>
<feOffset dy="4"/>
<feGaussianBlur stdDeviation="10"/>
<feColorMatrix type="matrix" values="0 0 0 0 0.4 0 0 0 0 0.439216 0 0 0 0 0.811765 0 0 0 0.1 0"/>
<feBlend mode="normal" in2="BackgroundImageFix" result="effect1_dropShadow"/>
<feBlend mode="normal" in="SourceGraphic" in2="effect1_dropShadow" result="shape"/>
</filter>
<filter id="filter2_d" x="382" y="278" width="201" height="209" filterUnits="userSpaceOnUse" color-interpolation-filters="sRGB">
<feFlood flood-opacity="0" result="BackgroundImageFix"/>
<feColorMatrix in="SourceAlpha" type="matrix" values="0 0 0 0 0 0 0 0 0 0 0 0 0 0 0 0 0 0 127 0"/>
<feOffset dy="4"/>
<feGaussianBlur stdDeviation="10"/>
<feColorMatrix type="matrix" values="0 0 0 0 0.4 0 0 0 0 0.439216 0 0 0 0 0.811765 0 0 0 0.1 0"/>
<feBlend mode="normal" in2="BackgroundImageFix" result="effect1_dropShadow"/>
<feBlend mode="normal" in="SourceGraphic" in2="effect1_dropShadow" result="shape"/>
</filter>
<filter id="filter3_d" x="382" y="78" width="201" height="209" filterUnits="userSpaceOnUse" color-interpolation-filters="sRGB">
<feFlood flood-opacity="0" result="BackgroundImageFix"/>
<feColorMatrix in="SourceAlpha" type="matrix" values="0 0 0 0 0 0 0 0 0 0 0 0 0 0 0 0 0 0 127 0"/>
<feOffset dy="4"/>
<feGaussianBlur stdDeviation="10"/>
<feColorMatrix type="matrix" values="0 0 0 0 0.4 0 0 0 0 0.439216 0 0 0 0 0.811765 0 0 0 0.1 0"/>
<feBlend mode="normal" in2="BackgroundImageFix" result="effect1_dropShadow"/>
<feBlend mode="normal" in="SourceGraphic" in2="effect1_dropShadow" result="shape"/>
</filter>
<filter id="filter4_d" x="191" y="200" width="201" height="209" filterUnits="userSpaceOnUse" color-interpolation-filters="sRGB">
<feFlood flood-opacity="0" result="BackgroundImageFix"/>
<feColorMatrix in="SourceAlpha" type="matrix" values="0 0 0 0 0 0 0 0 0 0 0 0 0 0 0 0 0 0 127 0"/>
<feOffset dy="4"/>
<feGaussianBlur stdDeviation="10"/>
<feColorMatrix type="matrix" values="0 0 0 0 0.4 0 0 0 0 0.439216 0 0 0 0 0.811765 0 0 0 0.1 0"/>
<feBlend mode="normal" in2="BackgroundImageFix" result="effect1_dropShadow"/>
<feBlend mode="normal" in="SourceGraphic" in2="effect1_dropShadow" result="shape"/>
</filter>
<filter id="filter5_d" x="191" y="0" width="201" height="209" filterUnits="userSpaceOnUse" color-interpolation-filters="sRGB">
<feFlood flood-opacity="0" result="BackgroundImageFix"/>
<feColorMatrix in="SourceAlpha" type="matrix" values="0 0 0 0 0 0 0 0 0 0 0 0 0 0 0 0 0 0 127 0"/>
<feOffset dy="4"/>
<feGaussianBlur stdDeviation="10"/>
<feColorMatrix type="matrix" values="0 0 0 0 0.4 0 0 0 0 0.439216 0 0 0 0 0.811765 0 0 0 0.1 0"/>
<feBlend mode="normal" in2="BackgroundImageFix" result="effect1_dropShadow"/>
<feBlend mode="normal" in="SourceGraphic" in2="effect1_dropShadow" result="shape"/>
</filter>
</defs>
</svg>
