<svg width="16" height="16" viewBox="0 0 16 16" fill="none" xmlns="http://www.w3.org/2000/svg">
<path d="M0 14.6667H9.33333V16H0V14.6667Z" fill="#455880"/>
<path d="M8.00004 13.3225C8.00004 13.1457 7.9298 12.9761 7.80478 12.8511C7.67975 12.7261 7.51018 12.6558 7.33337 12.6558H2.00004C1.82323 12.6558 1.65366 12.7261 1.52864 12.8511C1.40361 12.9761 1.33337 13.1457 1.33337 13.3225V14H8.00004V13.3225Z" fill="#455880"/>
<path d="M9.07102 7.87184C8.76039 8.2029 8.49991 8.57765 8.29785 8.98418L13.7852 14.4715C13.9102 14.5965 14.0797 14.6667 14.2565 14.6667C14.4333 14.6667 14.6028 14.5965 14.7279 14.4715L15.6707 13.5287C15.7326 13.4668 15.7817 13.3933 15.8152 13.3124C15.8487 13.2315 15.866 13.1448 15.866 13.0573C15.866 12.9697 15.8487 12.883 15.8152 12.8021C15.7817 12.7212 15.7326 12.6478 15.6707 12.5858L10.1834 7.10001C9.77611 7.30029 9.40117 7.56046 9.07102 7.87184Z" fill="#455880"/>
<path d="M5.77118 4.572C5.26704 5.03987 4.68345 5.41401 4.04785 5.67684L7.49352 9.1225C7.75871 8.48801 8.13322 7.90499 8.60002 7.4C9.10422 6.93216 9.68779 6.55797 10.3234 6.295L6.87752 2.85001C6.61224 3.48427 6.23779 4.06709 5.77118 4.572Z" fill="#455880"/>
<path d="M8.12701 0.330358L7.18435 1.27302C6.92404 1.53333 6.92404 1.95538 7.18435 2.21569L10.955 5.98636C11.2153 6.24667 11.6374 6.24667 11.8977 5.98636L12.8403 5.04369C13.1007 4.78338 13.1007 4.36133 12.8403 4.10102L9.06968 0.330358C8.80937 0.0700481 8.38732 0.0700481 8.12701 0.330358Z" fill="#455880"/>
<path d="M2.47027 5.98612L1.52761 6.92879C1.2673 7.1891 1.2673 7.61115 1.52761 7.87146L5.29827 11.6421C5.55858 11.9024 5.98063 11.9024 6.24094 11.6421L7.18361 10.6995C7.44392 10.4391 7.44392 10.0171 7.18361 9.75679L3.41294 5.98612C3.15263 5.72581 2.73058 5.72581 2.47027 5.98612Z" fill="#455880"/>
</svg>
