<svg width="143" height="142" viewBox="0 0 143 142" fill="none" xmlns="http://www.w3.org/2000/svg">
<path d="M25.0923 51.4897C24.5816 51.3784 24.1301 51.1709 23.7378 50.8671C23.3455 50.5633 23.0577 50.2058 22.8743 49.7947C22.7036 49.3754 22.666 48.9469 22.7613 48.5092C22.9112 47.8213 23.3152 47.3198 23.9734 47.0047C24.6442 46.6814 25.479 46.5576 26.4778 46.6333L28.8787 46.8125L28.9775 46.3591C29.2091 45.296 28.7152 44.6317 27.4958 44.366C27.0372 44.2661 26.6404 44.2834 26.3055 44.4178C25.9728 44.5419 25.7051 44.7183 25.5024 44.947C25.4507 45.034 25.3943 45.0927 25.3331 45.123C25.2823 45.1556 25.2152 45.1628 25.1318 45.1447L24.4596 44.9982C24.3658 44.9778 24.2892 44.9284 24.2299 44.8499C24.1833 44.7634 24.1702 44.6732 24.1906 44.5794C24.2555 44.3315 24.4315 44.0751 24.7184 43.8101C25.0181 43.537 25.4274 43.3368 25.9464 43.2097C26.4676 43.0722 27.0721 43.0783 27.76 43.2282C28.9273 43.4825 29.7061 43.9415 30.0965 44.6051C30.4891 45.2583 30.5969 45.9914 30.4198 46.8043L29.3163 51.8695C29.2936 51.9737 29.2378 52.0544 29.149 52.1114C29.0728 52.1603 28.9826 52.1734 28.8784 52.1507L28.1593 51.9941C28.055 51.9714 27.9733 51.9208 27.9139 51.8424C27.8673 51.7558 27.8553 51.6604 27.878 51.5562L28.0245 50.8839C27.7225 51.1675 27.3277 51.3762 26.84 51.5102C26.3523 51.6441 25.7698 51.6373 25.0923 51.4897ZM25.6761 50.3887C26.3535 50.5363 26.9536 50.4378 27.4762 50.0931C28.0116 49.7403 28.3701 49.147 28.5517 48.3133L28.6471 47.8755L26.7757 47.7462C26.0131 47.6892 25.4169 47.7449 24.9872 47.9133C24.5598 48.0713 24.3052 48.3379 24.2234 48.7131C24.1326 49.13 24.2342 49.4905 24.5282 49.7948C24.8244 50.0885 25.2071 50.2865 25.6761 50.3887ZM31.8449 52.797C31.7407 52.7743 31.6589 52.7237 31.5996 52.6453C31.553 52.5587 31.541 52.4633 31.5637 52.3591L33.178 44.9489C33.2007 44.8447 33.2502 44.7681 33.3263 44.7192C33.4152 44.6621 33.5117 44.645 33.6159 44.6677L34.3507 44.8277C34.4549 44.8505 34.5304 44.9051 34.577 44.9917C34.6363 45.0701 34.6546 45.1614 34.6319 45.2656L34.4821 45.9535C34.8683 45.6337 35.2874 45.4139 35.7393 45.294C36.2016 45.1764 36.7402 45.1845 37.3551 45.3185C38.3556 45.5365 39.0617 46.0287 39.4733 46.7952C39.8976 47.5536 39.9939 48.4643 39.7624 49.5274L38.8019 53.936C38.7792 54.0402 38.7234 54.1208 38.6346 54.1779C38.5584 54.2268 38.4683 54.2399 38.364 54.2172L37.5824 54.0469C37.4781 54.0242 37.3964 53.9736 37.337 53.8952C37.2904 53.8086 37.2784 53.7132 37.3011 53.609L38.2445 49.2786C38.4057 48.5386 38.3482 47.9257 38.072 47.4397C37.8062 46.9561 37.3346 46.6404 36.6571 46.4929C36.0005 46.3498 35.434 46.4447 34.9576 46.7776C34.4834 47.1001 34.1668 47.6261 34.0079 48.3556L33.0645 52.6861C33.0418 52.7903 32.986 52.8709 32.8972 52.928C32.821 52.9769 32.7308 52.99 32.6266 52.9673L31.8449 52.797ZM43.9024 55.5875C42.8185 55.3514 42.0775 54.8188 41.6796 53.9897C41.2816 53.1607 41.185 52.2008 41.3899 51.1101L41.4764 50.6377L41.5942 50.1721C41.8594 49.1054 42.3453 48.2779 43.0521 47.6895C43.7611 47.0907 44.6576 46.9094 45.7415 47.1455C46.815 47.3794 47.5763 47.9437 48.0255 48.8385L48.8088 45.2428C48.8315 45.1386 48.8809 45.062 48.9571 45.0131C49.046 44.9561 49.1425 44.9389 49.2467 44.9616L49.9971 45.1251C50.1013 45.1478 50.1768 45.2024 50.2234 45.289C50.2827 45.3674 50.3011 45.4587 50.2783 45.563L48.0169 55.9435C47.9942 56.0477 47.9384 56.1284 47.8496 56.1854C47.7734 56.2343 47.6832 56.2474 47.579 56.2247L46.8755 56.0715C46.7713 56.0488 46.6895 55.9982 46.6302 55.9198C46.5835 55.8332 46.5716 55.7378 46.5943 55.6336L46.7373 54.977C45.9626 55.6269 45.0176 55.8305 43.9024 55.5875ZM44.5066 54.3927C45.2257 54.5494 45.8135 54.4318 46.2701 54.04C46.7393 53.6401 47.061 53.1152 47.2354 52.4654C47.2707 52.353 47.3191 52.1562 47.3804 51.8748C47.444 51.5829 47.483 51.3786 47.4976 51.2616C47.6107 50.6422 47.5296 50.0623 47.2543 49.522C46.979 48.9817 46.4922 48.6355 45.7939 48.4833C45.054 48.3221 44.4621 48.4334 44.0182 48.817C43.5848 49.2029 43.2707 49.7677 43.076 50.5113L42.9616 50.9612C42.5325 52.931 43.0475 54.0749 44.5066 54.3927ZM54.4709 57.7261C54.3666 57.7034 54.2849 57.6529 54.2255 57.5744C54.1789 57.4879 54.1669 57.3925 54.1896 57.2882L56.4511 46.9077C56.4738 46.8035 56.5232 46.7269 56.5994 46.678C56.6882 46.6209 56.7847 46.6038 56.889 46.6265L57.6237 46.7865C57.728 46.8092 57.8034 46.8639 57.85 46.9505C57.9094 47.0289 57.9277 47.1202 57.905 47.2244L55.6435 57.605C55.6208 57.7092 55.5651 57.7898 55.4762 57.8469C55.4 57.8958 55.3099 57.9089 55.2056 57.8862L54.4709 57.7261ZM61.193 59.3543C60.0465 59.1046 59.2258 58.5873 58.7308 57.8027C58.2463 57.0203 58.1001 56.0878 58.2923 55.0052L58.4231 54.3296L58.5851 53.6607C58.8584 52.6067 59.3833 51.8259 60.1599 51.3182C60.9387 50.8001 61.8961 50.6648 63.0321 50.9123C64.1681 51.1598 64.9825 51.6811 65.4752 52.4762C65.9702 53.2609 66.1227 54.1893 65.9328 55.2614C65.9183 55.3784 65.8747 55.6036 65.802 55.9371C65.7293 56.2706 65.6753 56.4935 65.6399 56.6059C65.3644 57.6703 64.8383 58.4564 64.0618 58.964C63.2957 59.474 62.3394 59.6041 61.193 59.3543ZM61.4552 58.1505C62.1118 58.2936 62.6731 58.1975 63.1391 57.8624C63.6156 57.5295 63.9546 56.9756 64.1561 56.2008C64.1893 56.0988 64.2376 55.9019 64.3012 55.6101C64.3648 55.3183 64.4027 55.1191 64.415 55.0127C64.554 54.2242 64.4761 53.5795 64.1813 53.0786C63.8969 52.58 63.4264 52.2591 62.7698 52.1161C62.1132 51.973 61.5467 52.068 61.0703 52.4008C60.5938 52.7337 60.2601 53.2887 60.0689 54.0658L59.9239 54.6565L59.8101 55.254C59.6606 56.0402 59.7333 56.6837 60.0281 57.1846C60.3229 57.6855 60.7986 58.0075 61.4552 58.1505ZM69.9713 61.1029C68.3246 60.7442 67.7011 59.6477 68.1007 57.8134L68.9998 53.6862L67.7804 53.4205C67.6762 53.3978 67.5944 53.3473 67.5351 53.2688C67.4884 53.1822 67.4764 53.0868 67.4991 52.9826L67.6149 52.4511C67.6377 52.3469 67.6871 52.2703 67.7632 52.2214C67.8521 52.1643 67.9486 52.1472 68.0528 52.1699L69.2722 52.4355L69.841 49.8247C69.8637 49.7205 69.9131 49.644 69.9893 49.595C70.0781 49.538 70.1747 49.5208 70.2789 49.5435L71.0137 49.7036C71.1179 49.7263 71.1933 49.7809 71.24 49.8675C71.2993 49.9459 71.3176 50.0373 71.2949 50.1415L70.7261 52.7522L72.6647 53.1746C72.7689 53.1973 72.8443 53.2519 72.891 53.3385C72.9503 53.4169 72.9686 53.5082 72.9459 53.6125L72.8301 54.144C72.8074 54.2482 72.7516 54.3289 72.6628 54.3859C72.5866 54.4348 72.4964 54.4479 72.3922 54.4252L70.4537 54.0029L69.5784 58.0207C69.4649 58.5418 69.4672 58.9571 69.5853 59.2667C69.7057 59.5659 69.9692 59.7597 70.3757 59.8483L71.3293 60.056C71.4335 60.0787 71.5089 60.1334 71.5556 60.2199C71.6149 60.2984 71.6332 60.3897 71.6105 60.4939L71.4879 61.0567C71.4652 61.1609 71.4094 61.2416 71.3206 61.2986C71.2444 61.3475 71.1542 61.3606 71.05 61.3379L69.9713 61.1029ZM75.6845 62.5113C74.9549 62.3524 74.365 62.1038 73.9146 61.7655C73.477 61.4191 73.1661 61.0675 72.9818 60.7108C72.8079 60.3563 72.7426 60.0801 72.7857 59.882C72.8084 59.7778 72.8619 59.7076 72.9462 59.6714C73.0432 59.627 73.1334 59.6139 73.2168 59.6321L73.9203 59.7853C74.0245 59.808 74.1069 59.8806 74.1676 60.003C74.3542 60.3493 74.5752 60.6376 74.8307 60.8679C75.0862 61.0983 75.4589 61.2668 75.9487 61.3735C76.4907 61.4916 76.9511 61.4827 77.33 61.3469C77.7216 61.203 77.9583 60.9434 78.0401 60.5682C78.0945 60.3181 78.0659 60.0989 77.954 59.9108C77.8548 59.7146 77.6458 59.5216 77.3268 59.3321C77.0206 59.1343 76.5498 58.8899 75.9146 58.5986C75.051 58.2031 74.4673 57.7757 74.1634 57.3165C73.8699 56.8596 73.7879 56.3341 73.9173 55.74C74.0036 55.3439 74.2 54.9937 74.5065 54.6893C74.8256 54.3768 75.2331 54.1599 75.729 54.0386C76.2375 53.9092 76.8096 53.9138 77.4454 54.0523C78.1124 54.1976 78.6566 54.4308 79.0779 54.7518C79.4992 55.0729 79.7916 55.4095 79.9551 55.7617C80.1312 56.1057 80.1977 56.3768 80.1546 56.5748C80.1341 56.6686 80.0806 56.7388 79.994 56.7854C79.9179 56.8343 79.8329 56.8486 79.7391 56.8282L79.0825 56.6851C78.9574 56.6579 78.8646 56.583 78.8039 56.4607C78.6803 56.2263 78.5673 56.0434 78.4649 55.9119C78.3753 55.7723 78.2249 55.6358 78.0137 55.5025C77.813 55.3715 77.5407 55.2685 77.1968 55.1935C76.6965 55.0845 76.2871 55.11 75.9684 55.2698C75.652 55.4192 75.4563 55.6659 75.3814 56.0098C75.3337 56.2287 75.3502 56.4288 75.4308 56.6101C75.5136 56.781 75.703 56.9641 75.9988 57.1596C76.3051 57.3573 76.7561 57.592 77.352 57.8638C78.2967 58.2879 78.9291 58.7423 79.2493 59.2269C79.5822 59.7033 79.6828 60.2438 79.5511 60.8483C79.4534 61.2964 79.2346 61.6745 78.8946 61.9825C78.5546 62.2905 78.1065 62.4931 77.5504 62.5903C77.0047 62.6898 76.3827 62.6634 75.6845 62.5113ZM85.0654 64.3912C84.9612 64.3685 84.8794 64.318 84.8201 64.2395C84.7734 64.153 84.7615 64.0576 84.7842 63.9533L86.3985 56.5431C86.4212 56.4389 86.4706 56.3624 86.5468 56.3134C86.6356 56.2564 86.7322 56.2392 86.8364 56.2619L87.5399 56.4152C87.6441 56.4379 87.7196 56.4925 87.7662 56.5791C87.8255 56.6575 87.8438 56.7488 87.8211 56.8531L87.7019 57.4002C88.3983 56.8096 89.2311 56.6198 90.2004 56.831C91.3572 57.083 92.0709 57.7407 92.3415 58.804C92.687 58.4207 93.1174 58.1488 93.6327 57.9881C94.1481 57.8275 94.6923 57.8096 95.2656 57.9345C96.1202 58.1207 96.7549 58.5646 97.1697 59.2663C97.5845 59.968 97.6716 60.8713 97.4309 61.976L96.4466 66.494C96.4239 66.5983 96.3681 66.6789 96.2793 66.736C96.2031 66.7849 96.113 66.798 96.0087 66.7753L95.274 66.6152C95.1697 66.5925 95.088 66.5419 95.0286 66.4635C94.982 66.3769 94.97 66.2815 94.9927 66.1773L95.9463 61.8C96.1234 60.987 96.0786 60.3659 95.8119 59.9367C95.5556 59.5096 95.1512 59.236 94.5989 59.1156C94.109 59.0089 93.6472 59.0993 93.2134 59.3869C92.7818 59.6641 92.4786 60.2039 92.3038 61.0064L91.3502 65.3838C91.3275 65.488 91.2717 65.5686 91.1828 65.6257C91.1067 65.6746 91.0165 65.6877 90.9123 65.665L90.1775 65.5049C90.0733 65.4822 89.9915 65.4317 89.9322 65.3532C89.8855 65.2666 89.8736 65.1712 89.8963 65.067L90.8499 60.6897C91.027 59.8768 90.977 59.2545 90.6998 58.823C90.4331 58.3937 90.0339 58.1211 89.5024 58.0053C89.0125 57.8986 88.5507 57.9891 88.1169 58.2766C87.6853 58.5538 87.3833 59.0884 87.2107 59.8805L86.2537 64.2735C86.231 64.3777 86.1752 64.4583 86.0864 64.5154C86.0102 64.5643 85.92 64.5774 85.8158 64.5547L85.0654 64.3912ZM101.895 68.2213C100.748 67.9715 99.9274 67.4543 99.4324 66.6696C98.9479 65.8872 98.8017 64.9547 98.9939 63.8722L99.1247 63.1965L99.2867 62.5277C99.56 61.4737 100.085 60.6929 100.861 60.1852C101.64 59.6671 102.598 59.5318 103.734 59.7793C104.87 60.0268 105.684 60.5481 106.177 61.3432C106.672 62.1278 106.824 63.0563 106.634 64.1284C106.62 64.2453 106.576 64.4705 106.504 64.804C106.431 65.1375 106.377 65.3605 106.342 65.4729C106.066 66.5373 105.54 67.3233 104.763 67.831C103.997 68.3409 103.041 68.471 101.895 68.2213ZM102.157 67.0175C102.813 67.1606 103.375 67.0645 103.841 66.7293C104.317 66.3965 104.656 65.8426 104.858 65.0677C104.891 64.9658 104.939 64.7689 105.003 64.4771C105.066 64.1853 105.104 63.9861 105.117 63.8796C105.256 63.0911 105.178 62.4464 104.883 61.9455C104.599 61.4469 104.128 61.1261 103.471 60.983C102.815 60.84 102.248 60.9349 101.772 61.2678C101.295 61.6007 100.962 62.1557 100.771 62.9328L100.625 63.5235L100.512 64.1209C100.362 64.9071 100.435 65.5507 100.73 66.0516C101.025 66.5525 101.5 66.8745 102.157 67.0175ZM107.935 69.3735C107.831 69.3508 107.749 69.3002 107.69 69.2218C107.643 69.1352 107.631 69.0398 107.654 68.9356L109.265 61.541C109.288 61.4368 109.338 61.355 109.417 61.2957C109.505 61.2386 109.602 61.2215 109.706 61.2442L110.425 61.4008C110.53 61.4235 110.61 61.4793 110.667 61.5682C110.724 61.657 110.742 61.7536 110.719 61.8578L110.569 62.5456C111.151 61.93 111.957 61.7346 112.989 61.9594L113.599 62.0922C113.703 62.1149 113.779 62.1696 113.825 62.2561C113.885 62.3346 113.903 62.4259 113.88 62.5301L113.741 63.1711C113.718 63.2753 113.663 63.3507 113.577 63.3974C113.5 63.4463 113.41 63.4594 113.306 63.4367L112.368 63.2323C111.805 63.1097 111.326 63.18 110.93 63.4431C110.537 63.6958 110.279 64.1036 110.156 64.6664L109.155 69.2626C109.132 69.3668 109.076 69.4474 108.987 69.5045C108.901 69.5511 108.806 69.5631 108.701 69.5404L107.935 69.3735ZM116.58 71.4204C115.506 71.1866 114.718 70.671 114.215 69.8736C113.724 69.0681 113.573 68.0853 113.76 66.9252L113.86 66.3903L113.988 65.8778C114.306 64.7681 114.856 63.9489 115.637 63.4204C116.428 62.8942 117.35 62.7457 118.403 62.975C119.56 63.2271 120.376 63.7923 120.85 64.6708C121.327 65.5388 121.429 66.5982 121.157 67.8489L121.099 68.1146C121.076 68.2189 121.02 68.2995 120.931 68.3566C120.855 68.4055 120.765 68.4186 120.661 68.3959L115.252 67.2175L115.221 67.3582C115.105 68.0424 115.182 68.6651 115.453 69.2263C115.736 69.7793 116.191 70.1239 116.816 70.2602C117.295 70.3646 117.707 70.3559 118.05 70.2342C118.406 70.1043 118.679 69.951 118.87 69.7743C118.991 69.6697 119.075 69.6115 119.121 69.5998C119.18 69.5798 119.272 69.5835 119.397 69.6108L120.163 69.7776C120.257 69.7981 120.33 69.8412 120.381 69.9069C120.432 69.9726 120.447 70.0524 120.427 70.1462C120.377 70.3755 120.171 70.6199 119.809 70.8794C119.457 71.1412 118.994 71.3352 118.421 71.4613C117.86 71.5794 117.247 71.5657 116.58 71.4204ZM119.77 67.072L119.78 67.0251C119.937 66.3059 119.866 65.6791 119.568 65.1447C119.282 64.6021 118.811 64.2593 118.154 64.1163C117.498 63.9732 116.927 64.089 116.441 64.4636C115.968 64.83 115.654 65.3727 115.497 66.0919L115.487 66.1388L119.77 67.072ZM123.066 69.9515C122.962 69.9288 122.88 69.8782 122.821 69.7998C122.774 69.7132 122.762 69.6178 122.785 69.5136L124.447 61.8845C124.469 61.7803 124.519 61.7037 124.595 61.6548C124.684 61.5978 124.78 61.5806 124.885 61.6033L125.619 61.7634C125.724 61.7861 125.799 61.8407 125.846 61.9273C125.905 62.0057 125.923 62.097 125.901 62.2013L124.239 69.8303C124.216 69.9345 124.16 70.0152 124.071 70.0722C123.995 70.1211 123.905 70.1343 123.801 70.1115L123.066 69.9515ZM122.36 72.516C122.256 72.4933 122.174 72.4427 122.115 72.3643C122.068 72.2777 122.056 72.1823 122.079 72.0781L122.293 71.0932C122.316 70.9889 122.367 70.9072 122.445 70.8478C122.534 70.7908 122.63 70.7736 122.735 70.7963L123.735 71.0143C123.839 71.037 123.915 71.0916 123.961 71.1782C124.018 71.267 124.036 71.3636 124.013 71.4678L123.798 72.4527C123.776 72.5569 123.72 72.6376 123.631 72.6946C123.555 72.7435 123.465 72.7566 123.36 72.7339L122.36 72.516Z" fill="#FB5980"/>
<path d="M138.604 90.2814C134.18 85.144 128.84 80.7394 123.946 76.1484C123.337 75.5295 122.148 76.0277 121.888 76.6606C120.482 80.3953 118.778 84.2547 118.512 88.2107L118.364 88.273C100.785 97.2083 76.7648 89.0936 59.5433 83.0251C39.7037 76.1304 20.0192 65.8504 6.90685 49.1477C5.61314 46.8933 4.25715 44.4904 3.19853 41.9628C2.70035 40.7734 1.06488 41.4584 1.41438 42.7101C1.6012 43.1561 1.78802 43.6021 1.97483 44.0482C1.38012 44.2973 1.1209 44.9301 1.43226 45.6735C2.26593 47.2467 3.39696 48.6954 4.37932 50.2063C22.4445 90.0001 78.8408 111.992 119.151 98.0795C118.809 101.019 118.678 104.044 118.188 107.046C117.88 108.398 119.506 108.94 120.484 108.356C127.482 104.202 132.678 97.831 138.396 92.2905C138.929 91.8928 139.274 91.049 138.604 90.2814ZM121.171 104.573C121.254 102.267 121.039 100.085 121.27 97.716C121.256 96.8478 120.561 96.4402 120.053 96.4783C119.866 96.0323 119.444 95.8592 118.936 95.8976C80.9107 104.833 41.9167 92.6796 17.4495 64.3049C29.8551 74.3132 45.2927 81.1292 59.8343 86.2233C70.4924 89.9733 81.2851 92.7927 92.3853 94.2601C101.055 95.3476 111.383 95.3906 118.354 89.5006C118.406 90.8768 120.439 90.7242 120.66 89.5831C121.534 86.246 122.471 83.0576 123.618 79.9556C127.63 83.693 131.791 87.3676 135.418 91.4404C130.79 95.8261 126.409 100.806 121.171 104.573Z" fill="#FB5980"/>
</svg>
