<svg width="16" height="16" viewBox="0 0 16 16" fill="none" xmlns="http://www.w3.org/2000/svg">
<g clip-path="url(#clip0)">
<path d="M15.7798 4.78992L8.24856 0.0711699C8.09659 -0.0240488 7.90341 -0.0240488 7.75144 0.0711699L0.220188 4.78992C0.0833125 4.87551 0 5.02567 0 5.18726C0 5.34886 0.0833125 5.49901 0.220188 5.58461L7.75144 10.2721C7.82744 10.3197 7.91394 10.3435 8 10.3435C8.08606 10.3435 8.17256 10.3197 8.24856 10.2721L15.7798 5.58461C15.9167 5.49901 16 5.34886 16 5.18726C16 5.02567 15.9167 4.87551 15.7798 4.78992Z" fill="#455880"/>
<path d="M15.7798 7.60261L15.0499 7.14639L8.74522 11.0674C8.52231 11.207 8.26412 11.2812 8 11.2812C7.73588 11.2812 7.47769 11.207 7.25384 11.067L0.949969 7.14652L0.220188 7.60261C0.0833125 7.68821 0 7.83836 0 7.99996C0 8.16155 0.0833125 8.31171 0.220188 8.3973L7.75144 13.0848C7.82744 13.1324 7.91394 13.1562 8 13.1562C8.08606 13.1562 8.17256 13.1324 8.24856 13.0848L15.7798 8.3973C15.9167 8.31171 16 8.16155 16 7.99996C16 7.83836 15.9167 7.68821 15.7798 7.60261Z" fill="#455880"/>
<path d="M15.7798 10.4151L15.0499 9.95889L8.74522 13.8799C8.52231 14.0196 8.26412 14.0937 8 14.0937C7.73588 14.0937 7.47769 14.0196 7.25384 13.8795L0.949969 9.95902L0.220188 10.4151C0.0833125 10.5007 0 10.6509 0 10.8125C0 10.9741 0.0833125 11.1242 0.220188 11.2098L7.75144 15.9286C7.82744 15.9762 7.91394 16 8 16C8.08606 16 8.17256 15.9762 8.24856 15.9286L15.7798 11.2098C15.9167 11.1242 16 10.9741 16 10.8125C16 10.6509 15.9167 10.5007 15.7798 10.4151Z" fill="#455880"/>
</g>
<defs>
<clipPath id="clip0">
<rect width="16" height="16" fill="white"/>
</clipPath>
</defs>
</svg>
