<svg width="16" height="16" viewBox="0 0 16 16" fill="none" xmlns="http://www.w3.org/2000/svg">
<path d="M13.3882 10.1333L14.1896 10.614C14.239 10.6436 14.2799 10.6855 14.3083 10.7356C14.3368 10.7858 14.3517 10.8424 14.3517 10.9C14.3517 10.9576 14.3368 11.0143 14.3083 11.0644C14.2799 11.1145 14.239 11.1564 14.1896 11.186L8.34291 14.694C8.23922 14.7563 8.12054 14.7892 7.99958 14.7892C7.87862 14.7892 7.75993 14.7563 7.65624 14.694L1.80958 11.186C1.76014 11.1564 1.71922 11.1145 1.69081 11.0644C1.6624 11.0143 1.64746 10.9576 1.64746 10.9C1.64746 10.8424 1.6624 10.7858 1.69081 10.7356C1.71922 10.6855 1.76014 10.6436 1.80958 10.614L2.61091 10.1333L7.99958 13.3667L13.3882 10.1333ZM13.3882 7.00001L14.1896 7.48067C14.239 7.51027 14.2799 7.55217 14.3083 7.6023C14.3368 7.65242 14.3517 7.70905 14.3517 7.76667C14.3517 7.82429 14.3368 7.88092 14.3083 7.93105C14.2799 7.98117 14.239 8.02308 14.1896 8.05267L7.99958 11.7667L1.80958 8.05267C1.76014 8.02308 1.71922 7.98117 1.69081 7.93105C1.6624 7.88092 1.64746 7.82429 1.64746 7.76667C1.64746 7.70905 1.6624 7.65242 1.69081 7.6023C1.71922 7.55217 1.76014 7.51027 1.80958 7.48067L2.61091 7.00001L7.99958 10.2333L13.3882 7.00001ZM8.34224 0.872672L14.1896 4.38067C14.239 4.41027 14.2799 4.45217 14.3083 4.5023C14.3368 4.55242 14.3517 4.60906 14.3517 4.66667C14.3517 4.72429 14.3368 4.78092 14.3083 4.83105C14.2799 4.88117 14.239 4.92308 14.1896 4.95267L7.99958 8.66667L1.80958 4.95267C1.76014 4.92308 1.71922 4.88117 1.69081 4.83105C1.6624 4.78092 1.64746 4.72429 1.64746 4.66667C1.64746 4.60906 1.6624 4.55242 1.69081 4.5023C1.71922 4.45217 1.76014 4.41027 1.80958 4.38067L7.65624 0.872672C7.75993 0.810377 7.87862 0.777466 7.99958 0.777466C8.12054 0.777466 8.23922 0.810377 8.34291 0.872672H8.34224ZM7.99958 2.22134L3.92424 4.66667L7.99958 7.11201L12.0749 4.66667L7.99958 2.22134Z" fill="#212020"/>
</svg>
