<svg width="16" height="19" viewBox="0 0 16 12" fill="none" xmlns="http://www.w3.org/2000/svg">
<path d="M7.46145 12H8.53077C9.35649 12 10.0329 11.3505 10.0385 10.5524L10.0467 9.46318C10.1958 8.52876 10.5688 7.65976 11.156 6.88028C11.6748 6.19195 11.949 5.37107 11.949 4.50636C11.949 2.2841 10.1303 0.526824 7.94441 0.558152C5.81637 0.587679 4.08333 2.31833 4.05221 4.44714C4.03905 5.33836 4.31601 6.18364 4.85318 6.89164C5.43493 7.65827 5.80494 8.52118 5.95379 9.4566V10.5419C5.95376 11.3459 6.63008 12 7.46145 12ZM8.99999 10.5449C8.99836 10.7746 8.78786 10.9615 8.53073 10.9615H7.46141C7.2027 10.9615 6.9922 10.7733 6.9922 10.5419V9.92301H9.00466L8.99999 10.5449ZM5.09051 4.46237C5.11332 2.90375 6.40002 1.61816 7.95881 1.59652C9.57956 1.57253 10.9105 2.87873 10.9105 4.50636C10.9105 5.14371 10.7086 5.74841 10.3265 6.25533C9.72349 7.05592 9.31208 7.93856 9.1003 8.88457H8.51966V5.87404C8.51966 5.58728 8.28718 5.3548 8.00042 5.3548C7.71366 5.3548 7.48118 5.58728 7.48118 5.87404V8.88457H6.90188C6.69111 7.93548 6.28129 7.05575 5.68047 6.26395C5.28484 5.7425 5.08085 5.11955 5.09051 4.46237Z" fill="#212020"/>
<path d="M3.04696 3.9936C3.04696 3.70684 2.81448 3.47437 2.52772 3.47437H0.796581C0.509824 3.47437 0.277344 3.70684 0.277344 3.9936C0.277344 4.28035 0.509824 4.51283 0.796581 4.51283H2.52772C2.81451 4.51283 3.04696 4.28035 3.04696 3.9936Z" fill="#212020"/>
<path d="M12.9833 7.03682L14.4748 7.91554C14.7221 8.0612 15.0404 7.97864 15.1858 7.73173C15.3313 7.48464 15.2491 7.16639 15.002 7.02079L13.5104 6.14207C13.2633 5.99655 12.945 6.07876 12.7995 6.32588C12.6539 6.57297 12.7362 6.89126 12.9833 7.03682Z" fill="#212020"/>
<path d="M1.52605 7.91555L3.01761 7.03682C3.2647 6.89126 3.34698 6.57297 3.20142 6.32588C3.05583 6.07876 2.73754 5.99655 2.49048 6.14207L0.998923 7.0208C0.751835 7.16636 0.669553 7.48465 0.815113 7.73174C0.960707 7.97886 1.27896 8.06107 1.52605 7.91555Z" fill="#212020"/>
<path d="M13.5104 1.84541L15.002 0.966691C15.2491 0.821131 15.3314 0.502839 15.1858 0.255751C15.0402 0.00862872 14.7219 -0.0735839 14.4749 0.0719411L12.9833 0.950664C12.7362 1.09622 12.6539 1.41452 12.7995 1.6616C12.9451 1.90876 13.2633 1.99094 13.5104 1.84541Z" fill="#212020"/>
<path d="M3.01761 0.950664L1.52605 0.0719411C1.27896 -0.0735839 0.960742 0.00862872 0.815113 0.255751C0.669553 0.502839 0.751835 0.821097 0.998923 0.966691L2.49048 1.84541C2.73771 1.99104 3.0559 1.90859 3.20142 1.6616C3.34695 1.41452 3.26467 1.09622 3.01761 0.950664Z" fill="#212020"/>
<path d="M15.7237 3.9936C15.7237 3.70684 15.4912 3.47437 15.2045 3.47437H13.4733C13.1866 3.47437 12.9541 3.70684 12.9541 3.9936C12.9541 4.28035 13.1866 4.51283 13.4733 4.51283H15.2045C15.4912 4.51283 15.7237 4.28035 15.7237 3.9936Z" fill="#212020"/>
</svg>
