<svg width="16" height="16" viewBox="0 0 16 16" fill="none" xmlns="http://www.w3.org/2000/svg">
<path d="M16 0L6.0329 1.84575L3.53195 7.47295L2.67979 6.62082L0 9.30057L6.69946 16L9.37921 13.3202L8.52708 12.4681L14.1543 9.96714L16 0ZM6.69946 14.6601L1.33991 9.30057L2.67979 7.96066L8.03933 13.3202L6.69946 14.6601ZM7.80929 11.7503L4.24974 8.19071L6.69605 2.68648L13.9953 1.33479L10.9971 4.33299C10.4807 4.08586 9.82587 4.16434 9.37924 4.61094C9.11083 4.87935 8.96297 5.23625 8.96297 5.61586C8.96297 6.40129 9.59861 7.03703 10.3841 7.03703C10.7638 7.03703 11.1207 6.88917 11.389 6.62075C11.8347 6.17514 11.9147 5.52064 11.667 5.0029L14.6652 2.0047L13.3135 9.30392L7.80929 11.7503ZM10.7191 5.95082C10.6297 6.04029 10.5107 6.08955 10.3842 6.08955C10.1223 6.08955 9.91045 5.87761 9.91045 5.61583C9.91045 5.35405 10.1223 5.14211 10.3842 5.14211C10.5107 5.14211 10.6297 5.19141 10.7191 5.28091C10.9043 5.46601 10.9043 5.76568 10.7191 5.95082Z" fill="#212020"/>
</svg>
