<svg width="16" height="16" viewBox="0 0 16 16" fill="none" xmlns="http://www.w3.org/2000/svg">
<path d="M14.7265 0.3652H1.27168C0.568549 0.3652 0 0.936121 0 1.63747V14.3631C0 15.0651 0.568549 15.6348 1.27168 15.6348H14.7265C15.4297 15.6348 16 15.0651 16 14.3631V1.63747C16 0.936121 15.4291 0.3652 14.7265 0.3652ZM3.65436 5.20528C2.74552 5.20528 2.008 4.46776 2.008 3.5601C2.008 2.65007 2.74552 1.91255 3.65436 1.91255C4.5644 1.91255 5.30191 2.65007 5.30191 3.5601C5.30191 4.46776 4.5644 5.20528 3.65436 5.20528ZM12.5472 14.0033C11.6372 14.0033 10.8997 13.2657 10.8997 12.3569C10.8997 11.4481 11.6372 10.7105 12.5472 10.7105C13.4549 10.7105 14.1936 11.4481 14.1936 12.3569C14.1936 13.2657 13.4549 14.0033 12.5472 14.0033ZM12.4523 5.23433C11.5435 5.23433 10.806 4.49681 10.806 3.58915C10.806 2.67912 11.5435 1.94279 12.4523 1.94279C13.3612 1.94279 14.0987 2.67912 14.0987 3.58915C14.0987 4.49681 13.3612 5.23433 12.4523 5.23433ZM3.69468 13.9659C2.7882 13.9659 2.04832 13.2284 2.04832 12.3184C2.04832 11.4107 2.7882 10.6732 3.69468 10.6732C4.60471 10.6732 5.34223 11.4107 5.34223 12.3184C5.34282 13.2284 4.60531 13.9659 3.69468 13.9659Z" fill="#455880"/>
</svg>
