<svg width="27" height="27" viewBox="0 0 27 27" fill="none" xmlns="http://www.w3.org/2000/svg">
<g clip-path="url(#clip0)">
<path d="M8.71996 5.61604C8.63664 5.70268 8.56867 5.80285 8.51896 5.91229L8.51296 5.90629L0.100959 24.8558L0.109209 24.864C-0.0467913 25.1663 0.214209 25.7813 0.748959 26.3168C1.28371 26.8515 1.89871 27.1125 2.20096 26.9565L2.20846 26.964L21.158 18.5513L21.152 18.5445C21.2622 18.492 21.3635 18.4283 21.4482 18.3428C22.6197 17.1713 20.72 13.3725 17.2062 9.85804C13.691 6.34354 9.89221 4.44454 8.71996 5.61604Z" fill="#DD2E44"/>
<path d="M9.75046 9L0.312459 24.3795L0.100959 24.8558L0.109209 24.864C-0.0467913 25.1663 0.214209 25.7813 0.748959 26.3168C0.922959 26.4908 1.10371 26.6228 1.28071 26.7345L12.7505 12.75L9.75046 9Z" fill="#EA596E"/>
<path d="M17.2595 9.79954C20.762 13.3035 22.7067 17.0385 21.6012 18.1425C20.4965 19.248 16.7615 17.304 13.2567 13.8015C9.75349 10.2975 7.80949 6.56103 8.91424 5.45628C10.0197 4.35153 13.7547 6.29553 17.2595 9.79954Z" fill="#A0041E"/>
<path d="M13.9424 10.2067C13.8659 10.2688 13.7778 10.315 13.6833 10.3427C13.5888 10.3703 13.4897 10.3789 13.3919 10.368C12.7409 10.2975 12.1934 10.071 11.8101 9.71323C11.4044 9.33448 11.2041 8.82598 11.2589 8.31673C11.3549 7.42273 12.2519 6.60223 13.7811 6.76723C14.3759 6.83098 14.6414 6.63973 14.6504 6.54823C14.6609 6.45748 14.4426 6.21373 13.8479 6.14923C13.1969 6.07873 12.6494 5.85223 12.2654 5.49448C11.8596 5.11573 11.6586 4.60723 11.7141 4.09798C11.8116 3.20398 12.7079 2.38348 14.2356 2.54923C14.6691 2.59573 14.8979 2.50648 14.9946 2.44873C15.0719 2.40148 15.1026 2.35648 15.1056 2.33023C15.1146 2.23948 14.8994 1.99573 14.3031 1.93123C14.2052 1.92077 14.1102 1.89106 14.0237 1.84383C13.9373 1.79659 13.861 1.73275 13.7993 1.65596C13.7375 1.57917 13.6915 1.49095 13.664 1.39636C13.6364 1.30176 13.6278 1.20266 13.6386 1.10473C13.649 1.00679 13.6786 0.911861 13.7258 0.8254C13.7729 0.738938 13.8367 0.662644 13.9134 0.600899C13.9902 0.539155 14.0783 0.493176 14.1729 0.465603C14.2674 0.438029 14.3665 0.429406 14.4644 0.440226C15.9921 0.604476 16.6941 1.59673 16.5974 2.49148C16.4999 3.38698 15.6036 4.20598 14.0744 4.04173C13.6409 3.99448 13.4144 4.08448 13.3169 4.14223C13.2396 4.18873 13.2081 4.23448 13.2051 4.25998C13.1954 4.35148 13.4121 4.59448 14.0084 4.65898C15.5361 4.82398 16.2381 5.81548 16.1414 6.71023C16.0446 7.60423 15.1484 8.42473 13.6199 8.25898C13.1864 8.21248 12.9584 8.30248 12.8609 8.35948C12.7829 8.40748 12.7529 8.45248 12.7499 8.47798C12.7401 8.56873 12.9569 8.81248 13.5524 8.87698C13.6998 8.89289 13.8393 8.95218 13.9531 9.04733C14.0668 9.14249 14.1498 9.26924 14.1916 9.41157C14.2333 9.5539 14.2319 9.70541 14.1876 9.84694C14.1432 9.98848 14.0579 10.1137 13.9424 10.2067Z" fill="#AA8DD8"/>
<path d="M22.9956 17.1427C24.4754 16.725 25.4961 17.385 25.7391 18.2512C25.9821 19.1167 25.4556 20.2125 23.9766 20.6287C23.3991 20.7907 23.2259 21.0667 23.2491 21.1545C23.2746 21.243 23.5679 21.3885 24.1439 21.2257C25.6229 20.8095 26.6436 21.4695 26.8866 22.335C27.1311 23.2012 26.6031 24.2955 25.1234 24.7125C24.5466 24.8745 24.3726 25.1512 24.3981 25.239C24.4229 25.3267 24.7154 25.4722 25.2921 25.3102C25.3878 25.2806 25.4884 25.2705 25.5881 25.2805C25.6878 25.2904 25.7844 25.3202 25.8724 25.3681C25.9603 25.416 26.0378 25.4811 26.1002 25.5594C26.1626 25.6377 26.2087 25.7278 26.2358 25.8242C26.2628 25.9206 26.2703 26.0215 26.2577 26.1209C26.2452 26.2202 26.2128 26.3161 26.1626 26.4027C26.1124 26.4894 26.0453 26.5651 25.9654 26.6254C25.8855 26.6858 25.7942 26.7295 25.6971 26.754C24.2189 27.1702 23.1974 26.5117 22.9529 25.6447C22.7099 24.7792 23.2371 23.685 24.7176 23.268C25.2951 23.1052 25.4684 22.83 25.4429 22.7415C25.4189 22.6537 25.1264 22.5075 24.5504 22.6695C23.0699 23.0865 22.0499 22.428 21.8061 21.5602C21.5624 20.6947 22.0896 19.6005 23.5694 19.1827C24.1454 19.0215 24.3186 18.744 24.2946 18.657C24.2691 18.5685 23.9774 18.423 23.4006 18.585C23.3042 18.6174 23.2022 18.63 23.1008 18.6218C22.9994 18.6136 22.9008 18.5849 22.8108 18.5374C22.7209 18.4898 22.6416 18.4245 22.5776 18.3454C22.5137 18.2662 22.4666 18.1749 22.4391 18.077C22.4116 17.979 22.4043 17.8765 22.4177 17.7757C22.431 17.6749 22.4648 17.5778 22.5168 17.4904C22.5689 17.403 22.6382 17.3271 22.7205 17.2673C22.8028 17.2076 22.8964 17.1652 22.9956 17.1427Z" fill="#77B255"/>
<path d="M17.2507 15.1199C17.0954 15.1197 16.944 15.0714 16.8173 14.9815C16.6906 14.8916 16.595 14.7647 16.5435 14.6181C16.492 14.4716 16.4872 14.3127 16.5297 14.1634C16.5723 14.014 16.6602 13.8815 16.7812 13.7842C16.9447 13.6529 20.8447 10.5899 26.3564 11.3782C26.4562 11.3895 26.5526 11.4206 26.64 11.4699C26.7275 11.5191 26.8042 11.5854 26.8656 11.6647C26.9269 11.7441 26.9717 11.835 26.9974 11.9321C27.023 12.0291 27.0288 12.1303 27.0146 12.2296C27.0004 12.329 26.9664 12.4244 26.9147 12.5104C26.8629 12.5964 26.7944 12.6711 26.7132 12.7301C26.632 12.7891 26.5399 12.8312 26.4421 12.8539C26.3444 12.8767 26.2431 12.8796 26.1442 12.8624C21.2744 12.1709 17.7539 14.9279 17.7194 14.9557C17.5864 15.0622 17.4211 15.1201 17.2507 15.1199Z" fill="#AA8DD8"/>
<path d="M4.31548 12C4.19858 12 4.08329 11.9727 3.97883 11.9202C3.87436 11.8677 3.78361 11.7916 3.7138 11.6978C3.644 11.604 3.59709 11.4952 3.5768 11.3801C3.55652 11.265 3.56343 11.1467 3.59698 11.0347C4.44673 8.20498 5.21698 3.68923 4.27048 2.51173C4.16473 2.37823 4.00498 2.24698 3.63898 2.27473C2.93548 2.32873 3.00223 3.81298 3.00298 3.82798C3.0125 3.92734 3.0021 4.0276 2.97238 4.12289C2.94265 4.21818 2.89421 4.30657 2.82988 4.3829C2.76555 4.45922 2.68664 4.52194 2.59776 4.56737C2.50888 4.6128 2.41183 4.64003 2.31229 4.64747C2.21275 4.65491 2.11273 4.6424 2.01808 4.61068C1.92344 4.57896 1.83608 4.52867 1.76112 4.46276C1.68617 4.39684 1.62512 4.31663 1.58157 4.22682C1.53801 4.137 1.51283 4.0394 1.50748 3.93973C1.43023 2.90548 1.75198 0.913476 3.52648 0.779226C4.31848 0.719226 4.97623 0.994476 5.44048 1.57198C7.21873 3.78523 5.41348 10.2015 5.03398 11.466C4.98754 11.6204 4.89256 11.7557 4.76314 11.8519C4.63371 11.9481 4.47673 12 4.31548 12Z" fill="#77B255"/>
<path d="M19.125 8.25C19.7463 8.25 20.25 7.74632 20.25 7.125C20.25 6.50368 19.7463 6 19.125 6C18.5037 6 18 6.50368 18 7.125C18 7.74632 18.5037 8.25 19.125 8.25Z" fill="#5C913B"/>
<path d="M1.5 15C2.32843 15 3 14.3284 3 13.5C3 12.6716 2.32843 12 1.5 12C0.671573 12 0 12.6716 0 13.5C0 14.3284 0.671573 15 1.5 15Z" fill="#9266CC"/>
<path d="M24.375 15.75C24.9963 15.75 25.5 15.2463 25.5 14.625C25.5 14.0037 24.9963 13.5 24.375 13.5C23.7537 13.5 23.25 14.0037 23.25 14.625C23.25 15.2463 23.7537 15.75 24.375 15.75Z" fill="#5C913B"/>
<path d="M17.625 24.75C18.2463 24.75 18.75 24.2463 18.75 23.625C18.75 23.0037 18.2463 22.5 17.625 22.5C17.0037 22.5 16.5 23.0037 16.5 23.625C16.5 24.2463 17.0037 24.75 17.625 24.75Z" fill="#5C913B"/>
<path d="M21 4.5C21.8284 4.5 22.5 3.82843 22.5 3C22.5 2.17157 21.8284 1.5 21 1.5C20.1716 1.5 19.5 2.17157 19.5 3C19.5 3.82843 20.1716 4.5 21 4.5Z" fill="#FFCC4D"/>
<path d="M24.375 7.5C24.9963 7.5 25.5 6.99632 25.5 6.375C25.5 5.75368 24.9963 5.25 24.375 5.25C23.7537 5.25 23.25 5.75368 23.25 6.375C23.25 6.99632 23.7537 7.5 24.375 7.5Z" fill="#FFCC4D"/>
<path d="M22.125 10.5C22.7463 10.5 23.25 9.99632 23.25 9.375C23.25 8.75368 22.7463 8.25 22.125 8.25C21.5037 8.25 21 8.75368 21 9.375C21 9.99632 21.5037 10.5 22.125 10.5Z" fill="#FFCC4D"/>
<path d="M5.625 18.75C6.24632 18.75 6.75 18.2463 6.75 17.625C6.75 17.0037 6.24632 16.5 5.625 16.5C5.00368 16.5 4.5 17.0037 4.5 17.625C4.5 18.2463 5.00368 18.75 5.625 18.75Z" fill="#FFCC4D"/>
</g>
<defs>
<clipPath id="clip0">
<rect width="27" height="27" fill="white"/>
</clipPath>
</defs>
</svg>
