<svg width="33" height="33" viewBox="0 0 33 33" fill="none" xmlns="http://www.w3.org/2000/svg">
<path d="M19.708 9.625H27.958V24.75H19.708V9.625Z" fill="#61B2E4"/>
<path d="M5.04199 9.625H19.7087V24.75H5.04199V9.625Z" fill="#92D3F5"/>
<path d="M7.79201 9.87814H5.19922V24.4353H7.79201" stroke="black" stroke-linecap="round" stroke-linejoin="round"/>
<path d="M7.88086 9.87814H25.1197V24.4353H7.88086V9.87814Z" stroke="black" stroke-linecap="round" stroke-linejoin="round"/>
<path d="M25.2723 9.86191L27.8665 9.88528L27.7367 24.4419L25.1426 24.4186" stroke="black" stroke-linecap="round" stroke-linejoin="round"/>
<path d="M20.625 9.87814H25.0511V24.4353H20.625" stroke="black" stroke-linecap="round" stroke-linejoin="round"/>
<path d="M7.11497 27.5001C7.5382 27.5001 7.8813 27.157 7.8813 26.7338C7.8813 26.3106 7.5382 25.9675 7.11497 25.9675C6.69173 25.9675 6.34863 26.3106 6.34863 26.7338C6.34863 27.157 6.69173 27.5001 7.11497 27.5001Z" fill="black"/>
<path d="M4.43333 27.5001C4.85656 27.5001 5.19966 27.157 5.19966 26.7338C5.19966 26.3106 4.85656 25.9675 4.43333 25.9675C4.01009 25.9675 3.66699 26.3106 3.66699 26.7338C3.66699 27.157 4.01009 27.5001 4.43333 27.5001Z" fill="black"/>
<path d="M28.5671 27.5001C28.9903 27.5001 29.3334 27.157 29.3334 26.7338C29.3334 26.3106 28.9903 25.9675 28.5671 25.9675C28.1439 25.9675 27.8008 26.3106 27.8008 26.7338C27.8008 27.157 28.1439 27.5001 28.5671 27.5001Z" fill="black"/>
<path d="M25.8865 27.5001C26.3097 27.5001 26.6528 27.157 26.6528 26.7338C26.6528 26.3106 26.3097 25.9675 25.8865 25.9675C25.4632 25.9675 25.1201 26.3106 25.1201 26.7338C25.1201 27.157 25.4632 27.5001 25.8865 27.5001Z" fill="black"/>
<path d="M23.2048 27.5001C23.628 27.5001 23.9711 27.157 23.9711 26.7338C23.9711 26.3106 23.628 25.9675 23.2048 25.9675C22.7816 25.9675 22.4385 26.3106 22.4385 26.7338C22.4385 27.157 22.7816 27.5001 23.2048 27.5001Z" fill="black"/>
<path d="M20.5222 27.5001C20.9454 27.5001 21.2885 27.157 21.2885 26.7338C21.2885 26.3106 20.9454 25.9675 20.5222 25.9675C20.099 25.9675 19.7559 26.3106 19.7559 26.7338C19.7559 27.157 20.099 27.5001 20.5222 27.5001Z" fill="black"/>
<path d="M17.8406 27.5001C18.2638 27.5001 18.6069 27.157 18.6069 26.7338C18.6069 26.3106 18.2638 25.9675 17.8406 25.9675C17.4173 25.9675 17.0742 26.3106 17.0742 26.7338C17.0742 27.157 17.4173 27.5001 17.8406 27.5001Z" fill="black"/>
<path d="M15.1599 27.5001C15.5831 27.5001 15.9262 27.157 15.9262 26.7338C15.9262 26.3106 15.5831 25.9675 15.1599 25.9675C14.7367 25.9675 14.3936 26.3106 14.3936 26.7338C14.3936 27.157 14.7367 27.5001 15.1599 27.5001Z" fill="black"/>
<path d="M12.4782 27.5001C12.9015 27.5001 13.2446 27.157 13.2446 26.7338C13.2446 26.3106 12.9015 25.9675 12.4782 25.9675C12.055 25.9675 11.7119 26.3106 11.7119 26.7338C11.7119 27.157 12.055 27.5001 12.4782 27.5001Z" fill="black"/>
<path d="M9.79661 27.5001C10.2198 27.5001 10.5629 27.157 10.5629 26.7338C10.5629 26.3106 10.2198 25.9675 9.79661 25.9675C9.37337 25.9675 9.03027 26.3106 9.03027 26.7338C9.03027 27.157 9.37337 27.5001 9.79661 27.5001Z" fill="black"/>
<path d="M12.834 9.62501V7.79168C12.834 7.79168 12.834 5.95834 14.9946 5.95834H17.8757" stroke="black" stroke-linecap="round" stroke-linejoin="round"/>
<path d="M20.1676 9.62501V7.79168C20.1676 7.79168 20.1676 5.95834 18.0071 5.95834H15.126" stroke="black" stroke-linecap="round" stroke-linejoin="round"/>
</svg>
