<svg width="24" height="24" viewBox="0 0 24 24" fill="none" xmlns="http://www.w3.org/2000/svg">
<g clip-path="url(#clip0)">
<path d="M8.29689 20.25H5.46374C5.1808 19.4523 4.54775 18.8192 3.74999 18.5363V15.7032C3.74999 15.1854 3.33026 14.7656 2.81247 14.7656C2.29469 14.7656 1.87495 15.1854 1.87495 15.7032V18.5363C0.783822 18.9233 0 19.9653 0 21.1875C0 22.7383 1.26169 24 2.81252 24C4.03469 24 5.07673 23.2162 5.46379 22.125H8.29689C8.81468 22.125 9.23441 21.7053 9.23441 21.1875C9.23441 20.6697 8.81468 20.25 8.29689 20.25ZM2.81252 22.125C2.29559 22.125 1.875 21.7045 1.875 21.1875C1.875 20.6706 2.29554 20.25 2.81252 20.25C3.32949 20.25 3.75004 20.6705 3.75004 21.1875C3.74999 21.7044 3.32945 22.125 2.81252 22.125ZM21.1875 0C19.9653 0 18.9233 0.783822 18.5362 1.875H15.6562C15.1384 1.875 14.7187 2.29473 14.7187 2.81252C14.7187 3.3303 15.1384 3.75004 15.6562 3.75004H18.5362C18.8192 4.54775 19.4522 5.18084 20.25 5.46379V8.25005C20.25 8.76783 20.6697 9.18757 21.1875 9.18757C21.7053 9.18757 22.125 8.76783 22.125 8.25005V5.46379C23.2162 5.07677 24 4.03469 24 2.81252C24 1.26169 22.7383 0 21.1875 0V0ZM21.1875 3.74999C20.6706 3.74999 20.25 3.32945 20.25 2.81247C20.25 2.2955 20.6705 1.87495 21.1875 1.87495C21.7044 1.87495 22.125 2.2955 22.125 2.81247C22.125 3.32945 21.7044 3.74999 21.1875 3.74999ZM22.3593 12.0937C22.3593 12.7409 21.8347 13.2656 21.1875 13.2656C20.5403 13.2656 20.0156 12.7409 20.0156 12.0937C20.0156 11.4465 20.5403 10.9219 21.1875 10.9219C21.8347 10.9219 22.3593 11.4465 22.3593 12.0937ZM14.1094 13.0312C14.1094 13.6785 13.5847 14.2031 12.9375 14.2031C12.2903 14.2031 11.7657 13.6785 11.7657 13.0312C11.7657 12.384 12.2903 11.8594 12.9375 11.8594C13.5847 11.8594 14.1094 12.384 14.1094 13.0312ZM8.29689 1.875H5.46374C5.07668 0.783822 4.03469 0 2.81252 0C1.26169 0 0 1.26169 0 2.81252C0 4.03469 0.783822 5.07673 1.875 5.46379V8.25005C1.875 8.76783 2.29473 9.18757 2.81252 9.18757C3.3303 9.18757 3.75004 8.76783 3.75004 8.25005V5.46379C4.54775 5.18084 5.18084 4.5478 5.46379 3.75004H8.29689C8.81468 3.75004 9.23441 3.3303 9.23441 2.81252C9.23441 2.29473 8.81468 1.875 8.29689 1.875ZM2.81252 3.74999C2.29559 3.74999 1.875 3.32945 1.875 2.81247C1.875 2.2955 2.29554 1.87495 2.81252 1.87495C3.32949 1.87495 3.75004 2.2955 3.75004 2.81247C3.75004 3.32945 3.32945 3.74999 2.81252 3.74999ZM13.125 21.1875C13.125 21.8347 12.6003 22.3593 11.9531 22.3593C11.3059 22.3593 10.7812 21.8347 10.7812 21.1875C10.7812 20.5403 11.3059 20.0156 11.9531 20.0156C12.6003 20.0156 13.125 20.5403 13.125 21.1875ZM10.7812 2.81252C10.7812 2.16531 11.3059 1.64065 11.9531 1.64065C12.6003 1.64065 13.125 2.16531 13.125 2.81252C13.125 3.45972 12.6003 3.98439 11.9531 3.98439C11.3059 3.98439 10.7812 3.45972 10.7812 2.81252ZM23.7283 18.6994L18.6829 13.609C18.3487 11.9031 17.5669 10.2155 16.4102 8.71011C16.1665 8.39291 15.7485 8.26538 15.3692 8.39229C13.6547 8.96622 11.5244 8.68422 8.85657 7.5302C8.50908 7.37992 8.10534 7.45337 7.83305 7.71635C7.56077 7.97938 7.47338 8.38033 7.61152 8.73286C8.5485 11.123 8.80946 13.4374 8.36621 15.4258C8.29568 15.7423 8.39368 16.0728 8.62542 16.2997C9.91214 17.5594 11.9254 18.5671 13.556 18.7932L18.4103 23.7205C18.5938 23.9068 18.8359 24.0001 19.0782 24.0001C19.3158 24.0001 19.5535 23.9103 19.7361 23.7305C20.105 23.3671 20.1094 22.7735 19.746 22.4047L14.6558 17.2378C14.4944 17.074 14.2784 16.9752 14.0489 16.9603C12.9394 16.8879 11.3804 16.1795 10.3024 15.2876C10.5788 13.6282 10.468 11.8187 9.98034 9.95413C11.2525 10.3556 12.425 10.5555 13.5114 10.5555C14.1321 10.5555 14.7249 10.4901 15.2914 10.3598C16.0246 11.4328 16.5376 12.5887 16.7973 13.752L15.6965 14.8528C15.3304 15.2189 15.3304 15.8125 15.6965 16.1785C16.0627 16.5446 16.6563 16.5447 17.0223 16.1785L17.8096 15.3913L22.3967 20.0193C22.58 20.2042 22.8212 20.2968 23.0625 20.2968C23.301 20.2968 23.5397 20.2064 23.7225 20.0251C24.0902 19.6607 24.0928 19.0672 23.7283 18.6994ZM2.81252 10.9219C2.16531 10.9219 1.64065 11.4465 1.64065 12.0937C1.64065 12.7409 2.16531 13.2656 2.81252 13.2656C3.45972 13.2656 3.98439 12.7409 3.98439 12.0937C3.98439 11.4465 3.45972 10.9219 2.81252 10.9219Z" fill="#8F8F8F"/>
</g>
<defs>
<clipPath id="clip0">
<rect width="24" height="24" fill="white"/>
</clipPath>
</defs>
</svg>
