<svg width="48" height="48" viewBox="0 0 48 48" fill="none" xmlns="http://www.w3.org/2000/svg">
<rect width="48" height="48" rx="8" fill="#E4E3E1"/>
<g clip-path="url(#clip0)">
<path d="M20.2969 32.25H17.4637C17.1808 31.4523 16.5478 30.8192 15.75 30.5363V27.7032C15.75 27.1854 15.3303 26.7656 14.8125 26.7656C14.2947 26.7656 13.875 27.1854 13.875 27.7032V30.5363C12.7838 30.9233 12 31.9653 12 33.1875C12 34.7383 13.2617 36 14.8125 36C16.0347 36 17.0767 35.2162 17.4638 34.125H20.2969C20.8147 34.125 21.2344 33.7053 21.2344 33.1875C21.2344 32.6697 20.8147 32.25 20.2969 32.25ZM14.8125 34.125C14.2956 34.125 13.875 33.7045 13.875 33.1875C13.875 32.6706 14.2955 32.25 14.8125 32.25C15.3295 32.25 15.75 32.6705 15.75 33.1875C15.75 33.7044 15.3294 34.125 14.8125 34.125ZM33.1875 12C31.9653 12 30.9233 12.7838 30.5362 13.875H27.6562C27.1384 13.875 26.7187 14.2947 26.7187 14.8125C26.7187 15.3303 27.1384 15.75 27.6562 15.75H30.5362C30.8192 16.5478 31.4522 17.1808 32.25 17.4638V20.25C32.25 20.7678 32.6697 21.1876 33.1875 21.1876C33.7053 21.1876 34.125 20.7678 34.125 20.25V17.4638C35.2162 17.0768 36 16.0347 36 14.8125C36 13.2617 34.7383 12 33.1875 12V12ZM33.1875 15.75C32.6706 15.75 32.25 15.3294 32.25 14.8125C32.25 14.2955 32.6705 13.875 33.1875 13.875C33.7044 13.875 34.125 14.2955 34.125 14.8125C34.125 15.3294 33.7044 15.75 33.1875 15.75ZM34.3593 24.0937C34.3593 24.7409 33.8347 25.2656 33.1875 25.2656C32.5403 25.2656 32.0156 24.7409 32.0156 24.0937C32.0156 23.4465 32.5403 22.9219 33.1875 22.9219C33.8347 22.9219 34.3593 23.4465 34.3593 24.0937ZM26.1094 25.0312C26.1094 25.6785 25.5847 26.2031 24.9375 26.2031C24.2903 26.2031 23.7657 25.6785 23.7657 25.0312C23.7657 24.384 24.2903 23.8594 24.9375 23.8594C25.5847 23.8594 26.1094 24.384 26.1094 25.0312ZM20.2969 13.875H17.4637C17.0767 12.7838 16.0347 12 14.8125 12C13.2617 12 12 13.2617 12 14.8125C12 16.0347 12.7838 17.0767 13.875 17.4638V20.25C13.875 20.7678 14.2947 21.1876 14.8125 21.1876C15.3303 21.1876 15.75 20.7678 15.75 20.25V17.4638C16.5478 17.1808 17.1808 16.5478 17.4638 15.75H20.2969C20.8147 15.75 21.2344 15.3303 21.2344 14.8125C21.2344 14.2947 20.8147 13.875 20.2969 13.875ZM14.8125 15.75C14.2956 15.75 13.875 15.3294 13.875 14.8125C13.875 14.2955 14.2955 13.875 14.8125 13.875C15.3295 13.875 15.75 14.2955 15.75 14.8125C15.75 15.3294 15.3294 15.75 14.8125 15.75ZM25.125 33.1875C25.125 33.8347 24.6003 34.3593 23.9531 34.3593C23.3059 34.3593 22.7812 33.8347 22.7812 33.1875C22.7812 32.5403 23.3059 32.0156 23.9531 32.0156C24.6003 32.0156 25.125 32.5403 25.125 33.1875ZM22.7812 14.8125C22.7812 14.1653 23.3059 13.6407 23.9531 13.6407C24.6003 13.6407 25.125 14.1653 25.125 14.8125C25.125 15.4597 24.6003 15.9844 23.9531 15.9844C23.3059 15.9844 22.7812 15.4597 22.7812 14.8125ZM35.7283 30.6994L30.6829 25.609C30.3487 23.9031 29.5669 22.2155 28.4102 20.7101C28.1665 20.3929 27.7485 20.2654 27.3692 20.3923C25.6547 20.9662 23.5244 20.6842 20.8566 19.5302C20.5091 19.3799 20.1053 19.4534 19.8331 19.7164C19.5608 19.9794 19.4734 20.3803 19.6115 20.7329C20.5485 23.123 20.8095 25.4374 20.3662 27.4258C20.2957 27.7423 20.3937 28.0728 20.6254 28.2997C21.9121 29.5594 23.9254 30.5671 25.556 30.7932L30.4103 35.7205C30.5938 35.9068 30.8359 36.0001 31.0782 36.0001C31.3158 36.0001 31.5535 35.9103 31.7361 35.7305C32.105 35.3671 32.1094 34.7735 31.746 34.4047L26.6558 29.2378C26.4944 29.074 26.2784 28.9752 26.0489 28.9603C24.9394 28.8879 23.3804 28.1795 22.3024 27.2876C22.5788 25.6282 22.468 23.8187 21.9803 21.9541C23.2525 22.3556 24.425 22.5555 25.5114 22.5555C26.1321 22.5555 26.7249 22.4901 27.2914 22.3598C28.0246 23.4328 28.5376 24.5887 28.7973 25.752L27.6965 26.8528C27.3304 27.2189 27.3304 27.8125 27.6965 28.1785C28.0627 28.5446 28.6563 28.5447 29.0223 28.1785L29.8096 27.3913L34.3967 32.0193C34.58 32.2042 34.8212 32.2968 35.0625 32.2968C35.301 32.2968 35.5397 32.2064 35.7225 32.0251C36.0902 31.6607 36.0928 31.0672 35.7283 30.6994ZM14.8125 22.9219C14.1653 22.9219 13.6407 23.4465 13.6407 24.0937C13.6407 24.7409 14.1653 25.2656 14.8125 25.2656C15.4597 25.2656 15.9844 24.7409 15.9844 24.0937C15.9844 23.4465 15.4597 22.9219 14.8125 22.9219Z" fill="#8F8F8F"/>
</g>
<defs>
<clipPath id="clip0">
<rect width="24" height="24" fill="white" transform="translate(12 12)"/>
</clipPath>
</defs>
</svg>
