<svg width="16" height="16" viewBox="0 0 16 16" fill="none" xmlns="http://www.w3.org/2000/svg">
<path d="M5.39617 2.5H8.06961C8.77336 2.5 9.34554 1.92781 9.34554 1.22438V0.46875C9.34554 0.21 9.13554 0 8.87679 0H4.58899C4.33024 0 4.12024 0.21 4.12024 0.46875V1.22438C4.12024 1.92781 4.69243 2.5 5.39617 2.5Z" fill="#455880"/>
<path d="M14.7695 2.52991L13.773 2.36585L13.6089 1.3696C13.547 0.993662 13.0855 0.843974 12.8152 1.11429L11.8811 2.04804C11.7805 2.14866 11.7311 2.28991 11.7467 2.43116C11.8511 3.36897 11.8302 3.18147 11.8767 3.5996L7.59298 7.3421C7.37642 7.21616 7.13579 7.15241 6.88892 7.15241C6.14579 7.15241 5.48267 7.75366 5.48267 8.55866C5.48267 9.33804 6.11329 9.96491 6.88892 9.96491C7.69517 9.96491 8.29517 9.30679 8.29517 8.55866C8.29517 8.38022 8.26173 8.2096 8.2011 8.05241C10.9414 5.64897 9.95173 6.51366 12.5395 4.26241C13.5402 4.37397 13.7592 4.4021 13.7827 4.39429C13.8577 4.39429 13.9905 4.35804 14.0908 4.25772L15.0249 3.32397C15.2945 3.05397 15.1461 2.5921 14.7695 2.52991ZM6.88892 9.02741C6.63017 9.02741 6.42017 8.81741 6.42017 8.55866C6.42017 8.29991 6.63017 8.08991 6.88892 8.08991C7.14767 8.08991 7.35767 8.29991 7.35767 8.55866C7.35767 8.81741 7.14767 9.02741 6.88892 9.02741Z" fill="#455880"/>
<path d="M0.837402 15.5312C0.837402 15.79 1.0474 16 1.30615 16H12.4721C12.7308 16 12.9408 15.79 12.9408 15.5312V14.4375H0.837402V15.5312Z" fill="#455880"/>
<path d="M6.88892 6.21512C7.05798 6.21512 7.22267 6.23324 7.38173 6.26731L8.20329 5.55293C7.80079 5.37574 7.3561 5.27762 6.88892 5.27762C5.07985 5.27762 3.60767 6.74949 3.60767 8.55887C3.60767 10.3679 5.07985 11.8401 6.88892 11.8401C8.69829 11.8401 10.1702 10.3679 10.1702 8.55887C10.1702 8.25168 10.1277 7.95418 10.0483 7.67231L9.22642 8.38762C9.23048 8.44418 9.23267 8.50137 9.23267 8.55887C9.23267 9.85106 8.18142 10.9026 6.88892 10.9026C5.59673 10.9026 4.54517 9.85106 4.54517 8.55887C4.54517 7.26637 5.59673 6.21512 6.88892 6.21512Z" fill="#455880"/>
<path d="M10.8124 7.00781C11.003 7.48812 11.1077 8.01125 11.1077 8.55875C11.1077 10.885 9.21522 12.7775 6.88897 12.7775C4.56272 12.7775 2.67022 10.885 2.67022 8.55875C2.67022 6.2325 4.56272 4.34 6.88897 4.34C7.64397 4.34 8.35334 4.53937 8.96709 4.88812L10.8905 3.21469C10.8056 2.45156 10.767 2.31594 10.8637 1.98031C10.9273 1.76522 11.0449 1.55872 11.2183 1.38531L11.6662 0.9375H10.283V1.22438C10.283 2.44469 9.29022 3.4375 8.06959 3.4375H5.39615C4.17553 3.4375 3.18272 2.44469 3.18272 1.22438V0.9375H1.30615C1.0474 0.9375 0.837402 1.1475 0.837402 1.40625V13.5H12.9408V5.25031L12.8446 5.23969L10.8124 7.00781Z" fill="#455880"/>
</svg>
