<svg width="20" height="17" viewBox="0 0 20 17" fill="none" xmlns="http://www.w3.org/2000/svg">
<g clip-path="url(#clip0)">
<path d="M20 2.07007C19.2641 2.40982 18.4733 2.63945 17.6433 2.74275C18.4905 2.21404 19.1411 1.37681 19.4474 0.379259C18.642 0.876884 17.7608 1.22749 16.8419 1.41593C16.0934 0.585699 15.027 0.0668335 13.8468 0.0668335C11.5807 0.0668335 9.74344 1.97962 9.74344 4.33879C9.74344 4.67367 9.77977 4.99968 9.84969 5.31243C6.43953 5.13422 3.41609 3.43348 1.39227 0.848833C1.03914 1.47979 0.836797 2.21371 0.836797 2.99653C0.836797 4.4787 1.56125 5.78623 2.66219 6.55237C2.01059 6.53113 1.37332 6.34789 0.803594 6.01797C0.803359 6.03587 0.803359 6.05376 0.803359 6.07174C0.803359 8.14159 2.21773 9.86827 4.09477 10.2607C3.49054 10.4318 2.85674 10.4569 2.2418 10.3339C2.76391 12.0312 4.2793 13.2662 6.07477 13.3008C4.67047 14.4466 2.90117 15.1296 0.978828 15.1296C0.647578 15.1296 0.321016 15.1093 0 15.0699C1.81586 16.282 3.97266 16.9892 6.28984 16.9892C13.8373 16.9892 17.9644 10.4795 17.9644 4.83423C17.9644 4.64894 17.9605 4.46471 17.9525 4.28153C18.7558 3.67692 19.4492 2.92805 20 2.07007Z" fill="#55ACEE"/>
</g>
<defs>
<clipPath id="clip0">
<rect width="20" height="17" fill="white"/>
</clipPath>
</defs>
</svg>
